{
.appVersion = "3058";
.formatVersion = 3;
axes = (
{
name = Weight;
tag = wght;
},
{
name = Italic;
tag = ital;
}
);
customParameters = (
{
name = variableStyleName;
value = Sans;
},
{
name = fsType;
value = (
);
},
{
name = "Enforce Compatibility Check";
value = 1;
},
{
name = "Variable Font Origin";
value = "024B54ED-FF00-4B3B-B916-19AEEB47CF52";
},
{
name = "gasp Table";
value = {
};
},
{
name = vendorID;
value = KERN;
},
{
name = "Axis Mappings";
value = {
ital = {
0 = 0;
1 = 1;
};
wght = {
100 = 30;
200 = 43;
300 = 54;
400 = 70;
500 = 84;
600 = 104;
700 = 122;
800 = 138;
900 = 150;
};
};
},
{
name = panose;
value = (
2,
11,
10,
4,
4,
2,
0,
0,
2,
3
);
}
);
date = "2020-03-28 06:10:06 +0000";
familyName = Urbanist;
featurePrefixes = (
{
automatic = 1;
code = "languagesystem DFLT dflt;
";
name = Languagesystems;
}
);
features = (
{
automatic = 1;
code = "feature subs;
feature sinf;
feature sups;
feature frac;
feature ordn;
";
tag = aalt;
},
{
automatic = 1;
code = "lookup ccmp_Other_1 {
	@CombiningTopAccents = [acutecomb circumflexcomb dieresiscomb dotaccentcomb gravecomb ringcomb tildecomb];
	@CombiningNonTopAccents = [cedillacomb];
	sub [i]' @CombiningTopAccents by [idotless];
	sub [i]' @CombiningNonTopAccents @CombiningTopAccents by [idotless];
} ccmp_Other_1;
";
tag = ccmp;
},
{
automatic = 1;
code = "sub zero by zeroinferior;
sub one by oneinferior;
sub two by twoinferior;
sub three by threeinferior;
sub four by fourinferior;
sub five by fiveinferior;
sub six by sixinferior;
sub seven by seveninferior;
sub eight by eightinferior;
sub nine by nineinferior;
";
tag = subs;
},
{
automatic = 1;
code = "sub zero by zeroinferior;
sub one by oneinferior;
sub two by twoinferior;
sub three by threeinferior;
sub four by fourinferior;
sub five by fiveinferior;
sub six by sixinferior;
sub seven by seveninferior;
sub eight by eightinferior;
sub nine by nineinferior;
";
tag = sinf;
},
{
automatic = 1;
code = "sub zero by zerosuperior;
sub one by onesuperior;

glyphs = (
{
glyphname = A;
kernLeft = A;
kernRight = A;
lastChange = "2021-06-04 07:15:20 +0000";
layers = (
{
anchors = (
{
name = bottom;
pos = (757,0);
},
{
name = ogonek;
pos = (1363,10);
},
{
name = top;
pos = (757,1400);
}
);
hints = (
{
horizontal = 1;
origin = (0,0);
target = up;
type = BottomGhost;
},
{
horizontal = 1;
origin = (0,2);
target = (1,2);
type = Stem;
},
{
horizontal = 1;
origin = (0,7);
target = down;
type = TopGhost;
}
);
layerId = "10BC12B3-5274-42E3-B5BC-F74F362F0DF4";
shapes = (
{
closed = 1;
nodes = (
(80,0,l),
(398,0,l),
(478,220,l),
(1036,220,l),
(1116,0,l),
(1434,0,l),
(926,1400,l),
(588,1400,l)
);
},
{
closed = 1;
nodes = (
(756,984,l),
(926,520,l),
(588,520,l)
);
}
);
width = 1514;
},
{
anchors = (
{
name = bottom;
pos = (636,0);
},
{
name = ogonek;
pos = (1145,10);
},
{
name = top;
pos = (636,1400);
}
);
hints = (
{
horizontal = 1;
origin = (0,0);
target = up;
type = BottomGhost;
},
{
horizontal = 1;
origin = (0,2);
target = (1,2);
type = Stem;
},
{
horizontal = 1;
origin = (0,7);
target = (1,0);
type = Stem;
}
);
layerId = "9AF1F7D9-E035-453E-B2A8-46DE370997D0";
shapes = (
{
closed = 1;
nodes = (
(80,0,l),
(144,0,l),
(268,340,l),
(1004,340,l),
(1128,0,l),
(1192,0,l),
(682,1400,l),
(590,1400,l)
);
},
{
closed = 1;
nodes = (
(636,1350,l),
(982,400,l),
(290,400,l)
);
}
);
width = 1272;
},
{
anchors = (
{
name = bottom;
pos = (439,0);
},
{
name = ogonek;
pos = (950,10);
},
{
name = top;
pos = (636,1400);
}
);
hints = (
{
horizontal = 1;
origin = (0,0);
target = up;
type = BottomGhost;
},
{
horizontal = 1;
origin = (0,2);
target = (1,2);
type = Stem;
},
{
horizontal = 1;
origin = (0,7);
target = (1,0);
type = Stem;
}
);
layerId = m003;
shapes = (
{
closed = 1;
nodes = (
(-117,0,l),
(-53,0,l),
(119,340,l),
(855,340,l),
(931,0,l),
(995,0,l),
(682,1400,l),
(590,1400,l)
);
},
{
closed = 1;
nodes = (
(629,1350,l),
(841,400,l),
(149,400,l)
);
}
);
width = 1272;
},
{
anchors = (
{
name = bottom;
pos = (560,0);
},
{
name = ogonek;
pos = (1168,10);
},
{
name = top;
pos = (757,1400);
}
);
hints = (
{
horizontal = 1;
origin = (0,0);
target = up;
type = BottomGhost;
},
{
horizontal = 1;
origin = (0,2);
target = (1,2);
type = Stem;
},
{
horizontal = 1;
origin = (0,7);
target = down;
type = TopGhost;
}
);
layerId = m004;
shapes = (
{
closed = 1;
nodes = (
(-117,0,l),
(201,0,l),
(312,220,l),
(870,220,l),
(919,0,l),
(1237,0,l),
(926,1400,l),
(588,1400,l)
);
},
{
closed = 1;
nodes = (
(698,984,l),
(802,520,l),
(464,520,l)
);
}
);
width = 1514;
},
{
anchors = (
{
name = bottom;
pos = (676,0);
},
{
name = ogonek;
pos = (1218,10);
},
{
name = top;
pos = (676,1400);
}
);
hints = (
{
horizontal = 1;
origin = (0,0);
target = up;
type = BottomGhost;
},
{
horizontal = 1;
origin = (0,2);
target = (1,2);
type = Stem;
},
{
horizontal = 1;
origin = (0,7);
target = down;
type = TopGhost;
}
);
layerId = "024B54ED-FF00-4B3B-B916-19AEEB47CF52";
shapes = (
{
closed = 1;
nodes = (
(80,0,l),
(229,0,l),
(338,300,l),
(1015,300,l),
(1124,0,l),
(1273,0,l),
(763,1400,l),
(589,1400,l)
);
},
{
closed = 1;
nodes = (
(676,1228,l),
(963,440,l),
(389,440,l)
);
}
);
width = 1352.66667;
},
{
anchors = (
{
name = bottom;
pos = (479,0);
},
{
name = ogonek;
pos = (1023,10);
},
{
name = top;
pos = (676,1400);
}
);
hints = (
{
horizontal = 1;
origin = (0,0);
target = up;
type = BottomGhost;
},
{
horizontal = 1;
origin = (0,2);
target = (1,2);
type = Stem;
},
{
horizontal = 1;
origin = (0,7);
target = down;
type = TopGhost;
}
);
layerId = "D546763A-DEF0-4334-A7AF-26D5912082F8";
shapes = (
{
closed = 1;
nodes = (
(-117,0,l),
(32,0,l),
(183,300,l),
(860,300,l),
(927,0,l),
(1076,0,l),
(763,1400,l),
(589,1400,l)
);
},
{
closed = 1;
nodes = (
(652,1228,l),
(828,440,l),
(254,440,l)
);
}
);
width = 1352.66667;
}
);
unicode = 65;
},
{
glyphname = AE;
kernLeft = A;
kernRight = E;
lastChange = "2021-06-04 07:15:20 +0000";
layers = (
{
anchors = (
{
name = bottom;
pos = (855,0);
},
{
name = top;
pos = (855,1400);
}
);
hints = (
{
horizontal = 1;
origin = (0,15);
target = (0,6);
type = Stem;
},
{
horizontal = 1;
origin = (0,7);
target = (0,10);
type = Stem;
},
{
horizontal = 1;
origin = (0,14);
target = (1,0);
type = Stem;
},
{
horizontal = 1;
origin = (0,1);
target = (1,3);
type = Stem;
},
{
origin = (0,3);
target = (0,6);
type = Stem;
}
);
layerId = "10BC12B3-5274-42E3-B5BC-F74F362F0DF4";
shapes = (
{
closed = 1;
nodes = (
(398,0,l),
(478,220,l),
(858,220,l),
(858,0,l),
(1610,0,l),
(1610,300,l),
(1158,300,l),
(1158,550,l),
(1514,550,l),
(1514,850,l),
(1158,850,l),
(1158,1100,l),
(1610,1100,l),
(1610,1400,l),
(588,1400,l),
(80,0,l)
);
},
{
closed = 1;
nodes = (
(798,1100,l),
(858,1100,l),
(858,520,l),
(588,520,l)
);
}
);
width = 1710;
},
{
anchors = (
{
name = bottom;
pos = (787,0);
},
{
name = top;
pos = (787,1400);
}
);
hints = (
{
horizontal = 1;
origin = (0,15);
target = (0,6);
type = Stem;
},
{
horizontal = 1;
origin = (0,1);
target = (1,3);
type = Stem;
},
{
horizontal = 1;
origin = (0,7);
target = (0,10);
type = Stem;
},
{
horizontal = 1;
origin = (0,14);
target = (1,0);
type = Stem;
},
{
origin = (0,3);
target = (0,6);
type = Stem;
}
);
layerId = "9AF1F7D9-E035-453E-B2A8-46DE370997D0";
shapes = (
{
closed = 1;
nodes = (
(144,0,l),
(268,340,l),
(782,340,l),
(782,0,l),
(1474,0,l),
(1474,60,l),
(842,60,l),
(842,670,l),
(1378,670,l),
(1378,730,l),
(842,730,l),
(842,1340,l),
(1474,1340,l),
(1474,1400,l),
(590,1400,l),
(80,0,l)
);
},
{
closed = 1;
nodes = (
(634,1340,l),
(782,1340,l),
(782,400,l),
(290,400,l)
);
}
);
width = 1574;
},
{
anchors = (
{
name = bottom;
pos = (590,0);
},
{
name = top;
pos = (787,1400);
}
);
hints = (
{
horizontal = 1;
origin = (0,15);
target = (0,6);
type = Stem;
},
{
horizontal = 1;
origin = (0,1);
target = (1,3);
type = Stem;
},
{
horizontal = 1;
origin = (0,7);
target = (0,10);
type = Stem;
},
{
horizontal = 1;
origin = (0,14);
target = (1,0);
type = Stem;
},
{
origin = (0,3);
target = (0,6);
type = Stem;
}
);
layerId = m003;
shapes = (
{
closed = 1;
nodes = (
(-53,0,l),
(119,340,l),
(633,340,l),
(585,0,l),
(1277,0,l),
(1286,60,l),
(654,60,l),
(739,670,l),
(1275,670,l),
(1284,730,l),
(748,730,l),
(834,1340,l),
(1466,1340,l),
(1474,1400,l),
(590,1400,l),
(-117,0,l)
);
},
{
closed = 1;
nodes = (
(626,1340,l),
(774,1340,l),
(641,400,l),
(149,400,l)
);
}
);
width = 1574;
},
{
anchors = (
{
name = bottom;
pos = (658,0);
},
{
name = top;
pos = (855,1400);
}
);
hints = (
{
horizontal = 1;
origin = (0,15);
target = (0,6);
type = Stem;
},
{
horizontal = 1;
origin = (0,7);
target = (0,10);
type = Stem;
},
{
horizontal = 1;
origin = (0,14);
target = (1,0);
type = Stem;
},
{
horizontal = 1;
origin = (0,1);
target = (1,3);
type = Stem;
},
{
origin = (0,3);
target = (0,6);
type = Stem;
}
);
layerId = m004;
shapes = (
{
closed = 1;
nodes = (
(201,0,l),
(312,220,l),
(692,220,l),
(661,0,l),
(1413,0,l),
(1455,300,l),
(1003,300,l),
(1039,550,l),
(1395,550,l),
(1437,850,l),
(1081,850,l),
(1116,1100,l),
(1568,1100,l),
(1610,1400,l),
(588,1400,l),
(-117,0,l)
);
},
{
closed = 1;
nodes = (
(756,1100,l),
(816,1100,l),
(734,520,l),
(464,520,l)
);
}
);
width = 1710;
},
{
anchors = (
{
name = bottom;
pos = (810,0);
},
{
name = top;
pos = (810,1400);
}
);
hints = (
{
horizontal = 1;
origin = (0,15);
target = (0,6);
type = Stem;
},
{
horizontal = 1;
origin = (0,7);
target = (0,10);
type = Stem;
},
{
horizontal = 1;
origin = (0,14);
target = (1,0);
type = Stem;
},
{
horizontal = 1;
origin = (0,1);
target = (1,3);
type = Stem;
},
{
origin = (0,3);
target = (0,6);
type = Stem;
}
);
layerId = "024B54ED-FF00-4B3B-B916-19AEEB47CF52";
shapes = (
{
closed = 1;
nodes = (
(229,0,l),
(338,300,l),
(807,300,l),
(807,0,l),
(1519,0,l),
(1519,140,l),
(947,140,l),
(947,630,l),
(1423,630,l),
(1423,770,l),
(947,770,l),
(947,1260,l),
(1519,1260,l),
(1519,1400,l),
(589,1400,l),
(80,0,l)
);
},
{
closed = 1;
nodes = (
(689,1260,l),
(807,1260,l),
(807,440,l),
(389,440,l)
);
}
);
width = 1619.33333;
},
{
anchors = (
{
name = bottom;
pos = (613,0);
},
{
name = top;
pos = (810,1400);
}
);
hints = (
{
horizontal = 1;
origin = (0,15);
target = (0,6);
type = Stem;
},
{
horizontal = 1;
origin = (0,7);
target = (0,10);
type = Stem;
},
{
horizontal = 1;
origin = (0,14);
target = (1,0);
type = Stem;
},
{
horizontal = 1;
origin = (0,1);
target = (1,3);
type = Stem;
},
{
origin = (0,3);
target = (0,6);
type = Stem;
}
);
layerId = "D546763A-DEF0-4334-A7AF-26D5912082F8";
shapes = (
{
closed = 1;
nodes = (
(32,0,l),
(183,300,l),
(653,300,l),
(610,0,l),
(1322,0,l),
(1342,140,l),
(770,140,l),
(839,630,l),
(1315,630,l),
(1335,770,l),
(859,770,l),
(928,1260,l),
(1500,1260,l),
(1519,1400,l),
(589,1400,l),
(-117,0,l)
);
},
{
closed = 1;
nodes = (
(669,1260,l),
(788,1260,l),
(672,440,l),
(254,440,l)
);
}
);
width = 1619.33333;
}
);
metricLeft = A;
metricRight = E;
unicode = 198;
},
{
glyphname = B;
kernLeft = H;
kernRight = B;
lastChange = "2021-06-04 07:15:20 +0000";
layers = (
{
anchors = (
{
name = bottom;
pos = (603,0);
},
{
name = top;
pos = (603,1400);
}
);
hints = (
{
horizontal = 1;
origin = (0,14);
target = (1,8);
type = Stem;
},
{
horizontal = 1;
origin = (1,0);
target = (2,8);
type = Stem;
},
{
horizontal = 1;
origin = (0,13);
target = (2,0);
type = Stem;
},
{
origin = (0,14);
target = (1,8);
type = Stem;
},
{
origin = (2,4);
target = (0,9);
type = Stem;
},
{
origin = (1,4);
target = (0,3);
type = Stem;
}
);
layerId = "10BC12B3-5274-42E3-B5BC-F74F362F0DF4";
shapes = (
{
closed = 1;
nodes = (
(704,0,ls),
(936,0,o),
(1126,170,o),
(1126,382,cs),
(1126,506,o),
(1108,721,o),
(930,765,c),
(1034,813,o),
(1060,926,o),
(1060,1014,cs),
(1060,1248,o),
(880,1400,o),
(650,1400,cs),
(120,1400,l),
(120,0,l)
);
},
{
closed = 1;
nodes = (
(420,625,l),
(672,625,ls),
(776,625,o),
(860,536,o),
(860,444,cs),
(860,334,o),
(776,254,o),
(672,254,cs),
(420,254,l)
);
},
{
closed = 1;
nodes = (
(420,1144,l),
(614,1144,ls),
(694,1144,o),
(760,1098,o),
(760,1016,cs),
(760,934,o),
(694,875,o),
(614,875,cs),
(420,875,l)
);
}
);
width = 1206;
},
{
anchors = (
{
name = bottom;
pos = (535,0);
},
{
name = top;
pos = (535,1400);
}
);
hints = (
{
horizontal = 1;
origin = (0,14);
target = (1,8);
type = Stem;
},
{
horizontal = 1;
origin = (1,0);
target = (2,8);
type = Stem;
},
{
horizontal = 1;
origin = (2,0);
target = (0,13);
type = Stem;
},
{
origin = (0,14);
target = (1,8);
type = Stem;
},
{
origin = (1,4);
target = (0,3);
type = Stem;
},
{
origin = (2,4);
target = (0,9);
type = Stem;
}
);
layerId = "9AF1F7D9-E035-453E-B2A8-46DE370997D0";
shapes = (
{
closed = 1;
nodes = (
(630,0,ls),
(828,0,o),
(990,152,o),
(990,402,cs),
(990,566,o),
(892,731,o),
(732,776,c),
(808,788,o),
(912,913,o),
(912,1061,cs),
(912,1283,o),
(756,1400,o),
(564,1400,cs),
(120,1400,l),
(120,0,l)
);
},
{
closed = 1;
nodes = (
(180,740,l),
(630,740,ls),
(796,740,o),
(930,578,o),
(930,402,cs),
(930,206,o),
(796,60,o),
(630,60,cs),
(180,60,l)
);
},
{
closed = 1;
nodes = (
(180,1340,l),
(564,1340,ls),
(722,1340,o),
(852,1251,o),
(852,1061,cs),
(852,891,o),
(722,800,o),
(564,800,cs),
(180,800,l)
);
}
);
width = 1070;
},
{
anchors = (
{
name = bottom;
pos = (338,0);
},
{
name = top;
pos = (535,1400);
}
);
hints = (
{
horizontal = 1;
origin = (0,14);
target = (1,8);
type = Stem;
},
{
horizontal = 1;
origin = (1,0);
target = (2,8);
type = Stem;
},
{
horizontal = 1;
origin = (2,0);
target = (0,13);
type = Stem;
},
{
origin = (0,14);
target = (1,8);
type = Stem;
},
{
origin = (1,4);
target = (0,3);
type = Stem;
},
{
origin = (2,4);
target = (0,9);
type = Stem;
}
);
layerId = m003;
shapes = (
{
closed = 1;
nodes = (
(433,0,ls),
(631,0,o),
(815,152,o),
(850,402,cs),
(873,566,o),
(798,731,o),
(644,776,c),
(722,788,o),
(844,913,o),
(864,1061,cs),
(896,1283,o),
(756,1400,o),
(564,1400,cs),
(120,1400,l),
(-77,0,l)
);
},
{
closed = 1;
nodes = (
(87,740,l),
(537,740,ls),
(703,740,o),
(814,578,o),
(790,402,cs),
(762,206,o),
(608,60,o),
(442,60,cs),
(-8,60,l)
);
},
{
closed = 1;
nodes = (
(172,1340,l),
(556,1340,ls),
(714,1340,o),
(831,1251,o),
(804,1061,cs),
(780,891,o),
(638,800,o),
(480,800,cs),
(96,800,l)
);
}
);
width = 1070;
},
{
anchors = (
{
name = bottom;
pos = (406,0);
},
{
name = top;
pos = (603,1400);
}
);
hints = (
{
horizontal = 1;
origin = (0,14);
target = (1,8);
type = Stem;
},
{
horizontal = 1;
origin = (1,0);
target = (2,8);
type = Stem;
},
{
horizontal = 1;
origin = (0,13);
target = (2,0);
type = Stem;
},
{
origin = (0,14);
target = (1,8);
type = Stem;
},
{
origin = (2,4);
target = (0,9);
type = Stem;
},
{
origin = (1,4);
target = (0,3);
type = Stem;
}
);
layerId = m004;
shapes = (
{
closed = 1;
nodes = (
(507,0,ls),
(739,0,o),
(953,170,o),
(983,382,cs),
(1000,506,o),
(1013,721,o),
(841,765,c),
(952,813,o),
(993,926,o),
(1006,1014,cs),
(1039,1248,o),
(880,1400,o),
(650,1400,cs),
(120,1400,l),
(-77,0,l)
);
},
{
closed = 1;
nodes = (
(311,625,l),
(563,625,ls),
(667,625,o),
(739,536,o),
(726,444,cs),
(710,334,o),
(615,254,o),
(511,254,cs),
(259,254,l)
);
},
{
closed = 1;
nodes = (
(384,1144,l),
(578,1144,ls),
(658,1144,o),
(718,1098,o),
(706,1016,cs),
(695,934,o),
(620,875,o),
(540,875,cs),
(346,875,l)
);
}
);
width = 1206;
},
{
anchors = (
{
name = bottom;
pos = (558,0);
},
{
name = top;
pos = (558,1400);
}
);
hints = (
{
horizontal = 1;
origin = (0,14);
target = (1,8);
type = Stem;
},
{
horizontal = 1;
origin = (1,0);
target = (2,8);
type = Stem;
},
{
horizontal = 1;
origin = (0,13);
target = (2,0);
type = Stem;
},
{
origin = (0,14);
target = (1,8);
type = Stem;
},
{
origin = (2,4);
target = (0,9);
type = Stem;
},
{
origin = (1,4);
target = (0,3);
type = Stem;
}
);
layerId = "024B54ED-FF00-4B3B-B916-19AEEB47CF52";
shapes = (
{
closed = 1;
nodes = (
(655,0,ls),
(864,0,o),
(1035,158,o),
(1035,395,cs),
(1035,546,o),
(964,728,o),
(798,772,c),
(883,796,o),
(961,917,o),
(961,1045,cs),
(961,1271,o),
(797,1400,o),
(593,1400,cs),
(120,1400,l),
(120,0,l)
);
},
{
closed = 1;
nodes = (
(260,702,l),
(644,702,ls),
(789,702,o),
(907,564,o),
(907,416,cs),
(907,249,o),
(789,125,o),
(644,125,cs),
(260,125,l)
);
},
{
closed = 1;
nodes = (
(260,1275,l),
(581,1275,ls),
(713,1275,o),
(821,1200,o),
(821,1046,cs),
(821,905,o),
(713,825,o),
(581,825,cs),
(260,825,l)
);
}
);
width = 1115.33333;
},
{
anchors = (
{
name = bottom;
pos = (361,0);
},
{
name = top;
pos = (558,1400);
}
);
hints = (
{
horizontal = 1;
origin = (0,14);
target = (1,8);
type = Stem;
},
{
horizontal = 1;
origin = (1,0);
target = (2,8);
type = Stem;
},
{
horizontal = 1;
origin = (0,13);
target = (2,0);
type = Stem;
},
{
origin = (0,14);
target = (1,8);
type = Stem;
},
{
origin = (2,4);
target = (0,9);
type = Stem;
},
{
origin = (1,4);
target = (0,3);
type = Stem;
}
);
layerId = "D546763A-DEF0-4334-A7AF-26D5912082F8";
shapes = (
{
closed = 1;
nodes = (
(458,0,ls),
(667,0,o),
(861,158,o),
(894,395,cs),
(915,546,o),
(870,728,o),
(710,772,c),
(799,796,o),
(894,917,o),
(911,1045,cs),
(944,1271,o),
(797,1400,o),
(593,1400,cs),
(120,1400,l),
(-77,0,l)
);
},
{
closed = 1;
nodes = (
(162,702,l),
(546,702,ls),
(691,702,o),
(789,564,o),
(769,416,cs),
(745,249,o),
(610,125,o),
(465,125,cs),
(81,125,l)
);
},
{
closed = 1;
nodes = (
(243,1275,l),
(563,1275,ls),
(695,1275,o),
(793,1200,o),
(771,1046,cs),
(752,905,o),
(632,825,o),
(500,825,cs),
(179,825,l)
);
}
);
width = 1115.33333;
}
);
unicode = 66;
},
{
glyphname = C;
kernLeft = O;
kernRight = C;
lastChange = "2021-06-04 07:15:20 +0000";
layers = (
{
anchors = (
{
name = bottom;
pos = (699,0);
},
{
name = top;
pos = (699,1400);
}
);
hints = (
{
horizontal = 1;
origin = (0,25);
target = (0,6);
type = Stem;
},
{
horizontal = 1;
origin = (0,19);
target = (0,12);
type = Stem;
},
{
origin = (0,22);
target = (0,9);
type = Stem;
}
);
layerId = "10BC12B3-5274-42E3-B5BC-F74F362F0DF4";
shapes = (
{
closed = 1;
nodes = (
(974,-26,o),
(1172,88,o),
(1298,262,c),
(1030,408,l),
(960,326,o),
(860,274,o),
(748,274,c),
(534,274,o),
(360,466,o),
(360,700,c),
(360,936,o),
(534,1126,o),
(748,1126,c),
(860,1126,o),
(960,1074,o),
(1030,994,c),
(1298,1138,l),
(1172,1312,o),
(974,1426,o),
(748,1426,c),
(368,1426,o),
(60,1102,o),
(60,700,c),
(60,300,o),
(368,-26,o),
(748,-26,c)
);
}
);
width = 1398;
},
{
anchors = (
{
name = bottom;
pos = (699,0);
},
{
name = top;
pos = (699,1400);
}
);
hints = (
{
horizontal = 1;
origin = (0,25);
target = (0,6);
type = Stem;
},
{
horizontal = 1;
origin = (0,19);
target = (0,12);
type = Stem;
},
{
origin = (0,22);
target = (0,9);
type = Stem;
}
);
layerId = "9AF1F7D9-E035-453E-B2A8-46DE370997D0";
shapes = (
{
closed = 1;
nodes = (
(974,-26,o),
(1172,86,o),
(1298,262,c),
(1246,290,l),
(1136,138,o),
(952,34,o),
(748,34,cs),
(402,34,o),
(120,332,o),
(120,700,cs),
(120,1058,o),
(396,1366,o),
(748,1366,cs),
(942,1366,o),
(1132,1266,o),
(1246,1108,c),
(1298,1136,l),
(1172,1312,o),
(974,1426,o),
(748,1426,cs),
(368,1426,o),
(60,1100,o),
(60,700,cs),
(60,298,o),
(368,-26,o),
(748,-26,cs)
);
}
);
width = 1398;
},
{
anchors = (
{
name = bottom;
pos = (502,0);
},
{
name = top;
pos = (699,1400);
}
);
hints = (
{
horizontal = 1;
origin = (0,25);
target = (0,6);
type = Stem;
},
{
horizontal = 1;
origin = (0,19);
target = (0,12);
type = Stem;
},
{
origin = (0,22);
target = (0,9);
type = Stem;
}
);
layerId = m003;
shapes = (
{
closed = 1;
nodes = (
(774,-26,o),
(987,86,o),
(1138,262,c),
(1090,290,l),
(959,138,o),
(760,34,o),
(556,34,cs),
(210,34,o),
(-30,332,o),
(22,700,cs),
(72,1058,o),
(391,1366,o),
(743,1366,cs),
(937,1366,o),
(1113,1266,o),
(1205,1108,c),
(1261,1136,l),
(1160,1312,o),
(978,1426,o),
(752,1426,cs),
(372,1426,o),
(18,1100,o),
(-38,700,cs),
(-95,298,o),
(168,-26,o),
(548,-26,cs)
);
}
);
width = 1398;
},
{
anchors = (
{
name = bottom;
pos = (502,0);
},
{
name = top;
pos = (699,1400);
}
);
hints = (
{
horizontal = 1;
origin = (0,25);
target = (0,6);
type = Stem;
},
{
horizontal = 1;
origin = (0,19);
target = (0,12);
type = Stem;
},
{
origin = (0,22);
target = (0,9);
type = Stem;
}
);
layerId = m004;
shapes = (
{
closed = 1;
nodes = (
(774,-26,o),
(988,88,o),
(1138,262,c),
(891,408,l),
(809,326,o),
(702,274,o),
(590,274,c),
(376,274,o),
(229,466,o),
(262,700,c),
(295,936,o),
(495,1126,o),
(709,1126,c),
(821,1126,o),
(914,1074,o),
(973,994,c),
(1261,1138,l),
(1160,1312,o),
(978,1426,o),
(752,1426,c),
(372,1426,o),
(18,1102,o),
(-38,700,c),
(-95,300,o),
(168,-26,o),
(548,-26,c)
);
}
);
width = 1398;
},
{
anchors = (
{
name = bottom;
pos = (699,0);
},
{
name = top;
pos = (699,1400);
}
);
hints = (
{
horizontal = 1;
origin = (0,25);
target = (0,6);
type = Stem;
},
{
horizontal = 1;
origin = (0,19);
target = (0,12);
type = Stem;
},
{
origin = (0,22);
target = (0,9);
type = Stem;
}
);
layerId = "024B54ED-FF00-4B3B-B916-19AEEB47CF52";
shapes = (
{
closed = 1;
nodes = (
(974,-26,o),
(1172,87,o),
(1298,262,c),
(1174,329,l),
(1077,201,o),
(921,114,o),
(748,114,c),
(446,114,o),
(200,377,o),
(200,700,c),
(200,1017,o),
(442,1286,o),
(748,1286,c),
(915,1286,o),
(1075,1202,o),
(1174,1070,c),
(1298,1137,l),
(1172,1312,o),
(974,1426,o),
(748,1426,c),
(368,1426,o),
(60,1101,o),
(60,700,c),
(60,299,o),
(368,-26,o),
(748,-26,c)
);
}
);
width = 1398;
},
{
anchors = (
{
name = bottom;
pos = (502,0);
},
{
name = top;
pos = (699,1400);
}
);
hints = (
{
horizontal = 1;
origin = (0,25);
target = (0,6);
type = Stem;
},
{
horizontal = 1;
origin = (0,19);
target = (0,12);
type = Stem;
},
{
origin = (0,22);
target = (0,9);
type = Stem;
}
);
layerId = "D546763A-DEF0-4334-A7AF-26D5912082F8";
shapes = (
{
closed = 1;
nodes = (
(774,-26,o),
(987,87,o),
(1138,262,c),
(1024,329,l),
(909,201,o),
(741,114,o),
(567,114,c),
(265,114,o),
(56,377,o),
(102,700,c),
(146,1017,o),
(426,1286,o),
(732,1286,c),
(898,1286,o),
(1047,1202,o),
(1128,1070,c),
(1261,1137,l),
(1160,1312,o),
(978,1426,o),
(752,1426,c),
(372,1426,o),
(18,1101,o),
(-38,700,c),
(-95,299,o),
(168,-26,o),
(548,-26,c)
);
}
);
width = 1398;
}
);
unicode = 67;
},
{
glyphname = D;
kernLeft = H;
kernRight = O;
lastChange = "2021-06-04 07:15:20 +0000";
layers = (
{
anchors = (
{
name = bottom;
pos = (672,0);
},
{
name = center;
pos = (672,700);
},
{
name = top;
pos = (672,1400);
}
);
hints = (
{
horizontal = 1;
origin = (0,8);
target = (1,8);
type = Stem;
},
{
horizontal = 1;
origin = (0,7);
target = (1,0);
type = Stem;
},
{
origin = (0,8);
target = (1,8);
type = Stem;
},
{
origin = (1,4);
target = (0,3);
type = Stem;
}
);
layerId = "10BC12B3-5274-42E3-B5BC-F74F362F0DF4";
shapes = (
{
closed = 1;
nodes = (
(584,0,ls),
(970,0,o),
(1284,314,o),
(1284,700,cs),
(1284,1086,o),
(970,1400,o),
(584,1400,cs),
(120,1400,l),
(120,0,l)
);
},
{
closed = 1;
nodes = (
(420,1100,l),
(584,1100,ls),
(802,1100,o),
(984,920,o),
(984,700,cs),
(984,478,o),
(800,300,o),
(584,300,cs),
(420,300,l)
);
}
);
width = 1344;
},
{
anchors = (
{
name = bottom;
pos = (671,0);
},
{
name = center;
pos = (671,700);
},
{
name = top;
pos = (671,1400);
}
);
hints = (
{
horizontal = 1;
origin = (0,8);
target = (1,8);
type = Stem;
},
{
horizontal = 1;
origin = (0,7);
target = (1,0);
type = Stem;
},
{
origin = (0,8);
target = (1,8);
type = Stem;
},
{
origin = (1,4);
target = (0,3);
type = Stem;
}
);
layerId = "9AF1F7D9-E035-453E-B2A8-46DE370997D0";
shapes = (
{
closed = 1;
nodes = (
(582,0,ls),
(970,0,o),
(1282,314,o),
(1282,700,cs),
(1282,1086,o),
(970,1400,o),
(582,1400,cs),
(120,1400,l),
(120,0,l)
);
},
{
closed = 1;
nodes = (
(180,1340,l),
(582,1340,ls),
(936,1340,o),
(1222,1054,o),
(1222,700,cs),
(1222,346,o),
(938,60,o),
(582,60,cs),
(180,60,l)
);
}
);
width = 1342;
},
{
anchors = (
{
name = bottom;
pos = (474,0);
},
{
name = center;
pos = (573,700);
},
{
name = top;
pos = (671,1400);
}
);
hints = (
{
horizontal = 1;
origin = (0,8);
target = (1,8);
type = Stem;
},
{
horizontal = 1;
origin = (0,7);
target = (1,0);
type = Stem;
},
{
origin = (0,8);
target = (1,8);
type = Stem;
},
{
origin = (1,4);
target = (0,3);
type = Stem;
}
);
layerId = m003;
shapes = (
{
closed = 1;
nodes = (
(385,0,ls),
(773,0,o),
(1129,314,o),
(1184,700,cs),
(1238,1086,o),
(970,1400,o),
(582,1400,cs),
(120,1400,l),
(-77,0,l)
);
},
{
closed = 1;
nodes = (
(172,1340,l),
(574,1340,ls),
(928,1340,o),
(1173,1054,o),
(1124,700,cs),
(1074,346,o),
(750,60,o),
(394,60,cs),
(-8,60,l)
);
}
);
width = 1342;
},
{
anchors = (
{
name = bottom;
pos = (475,0);
},
{
name = center;
pos = (574,700);
},
{
name = top;
pos = (672,1400);
}
);
hints = (
{
horizontal = 1;
origin = (0,8);
target = (1,8);
type = Stem;
},
{
horizontal = 1;
origin = (0,7);
target = (1,0);
type = Stem;
},
{
origin = (0,8);
target = (1,8);
type = Stem;
},
{
origin = (1,4);
target = (0,3);
type = Stem;
}
);
layerId = m004;
shapes = (
{
closed = 1;
nodes = (
(387,0,ls),
(773,0,o),
(1131,314,o),
(1186,700,cs),
(1240,1086,o),
(970,1400,o),
(584,1400,cs),
(120,1400,l),
(-77,0,l)
);
},
{
closed = 1;
nodes = (
(378,1100,l),
(542,1100,ls),
(760,1100,o),
(917,920,o),
(886,700,cs),
(854,478,o),
(645,300,o),
(429,300,cs),
(265,300,l)
);
}
);
width = 1344;
},
{
anchors = (
{
name = bottom;
pos = (671,0);
},
{
name = center;
pos = (671,700);
},
{
name = top;
pos = (671,1400);
}
);
hints = (
{
horizontal = 1;
origin = (0,8);
target = (1,8);
type = Stem;
},
{
horizontal = 1;
origin = (0,7);
target = (1,0);
type = Stem;
},
{
origin = (0,8);
target = (1,8);
type = Stem;
},
{
origin = (1,4);
target = (0,3);
type = Stem;
}
);
layerId = "024B54ED-FF00-4B3B-B916-19AEEB47CF52";
shapes = (
{
closed = 1;
nodes = (
(583,0,ls),
(970,0,o),
(1283,314,o),
(1283,700,cs),
(1283,1086,o),
(970,1400,o),
(583,1400,cs),
(120,1400,l),
(120,0,l)
);
},
{
closed = 1;
nodes = (
(260,1260,l),
(583,1260,ls),
(891,1260,o),
(1143,1009,o),
(1143,700,cs),
(1143,390,o),
(892,140,o),
(583,140,cs),
(260,140,l)
);
}
);
width = 1342.66667;
},
{
anchors = (
{
name = bottom;
pos = (474,0);
},
{
name = center;
pos = (573,700);
},
{
name = top;
pos = (671,1400);
}
);
hints = (
{
horizontal = 1;
origin = (0,8);
target = (1,8);
type = Stem;
},
{
horizontal = 1;
origin = (0,7);
target = (1,0);
type = Stem;
},
{
origin = (0,8);
target = (1,8);
type = Stem;
},
{
origin = (1,4);
target = (0,3);
type = Stem;
}
);
layerId = "D546763A-DEF0-4334-A7AF-26D5912082F8";
shapes = (
{
closed = 1;
nodes = (
(386,0,ls),
(773,0,o),
(1130,314,o),
(1185,700,cs),
(1239,1086,o),
(970,1400,o),
(583,1400,cs),
(120,1400,l),
(-77,0,l)
);
},
{
closed = 1;
nodes = (
(241,1260,l),
(563,1260,ls),
(872,1260,o),
(1088,1009,o),
(1045,700,cs),
(1001,390,o),
(715,140,o),
(406,140,cs),
(83,140,l)
);
}
);
width = 1342.66667;
}
);
unicode = 68;
},
{
glyphname = Eth;
kernLeft = H;
kernRight = O;
lastChange = "2021-06-04 07:15:20 +0000";
layers = (
{
hints = (
{
horizontal = 1;
origin = (0,12);
target = (1,12);
type = Stem;
},
{
horizontal = 1;
origin = (0,10);
target = (0,9);
type = Stem;
},
{
horizontal = 1;
origin = (0,7);
target = (1,4);
type = Stem;
},
{
origin = (0,12);
target = (1,12);
type = Stem;
},
{
origin = (1,8);
target = (0,3);
type = Stem;
}
);
layerId = "10BC12B3-5274-42E3-B5BC-F74F362F0DF4";
shapes = (
{
closed = 1;
nodes = (
(702,0,ls),
(1088,0,o),
(1402,314,o),
(1402,700,cs),
(1402,1086,o),
(1088,1400,o),
(702,1400,cs),
(240,1400,l),
(240,900,l),
(100,900,l),
(100,600,l),
(240,600,l),
(240,0,l)
);
},
{
closed = 1;
nodes = (
(540,600,l),
(778,600,l),
(778,900,l),
(540,900,l),
(540,1100,l),
(702,1100,ls),
(922,1100,o),
(1102,920,o),
(1102,700,cs),
(1102,480,o),
(922,300,o),
(702,300,cs),
(540,300,l)
);
}
);
width = 1462;
},
{
hints = (
{
horizontal = 1;
origin = (0,12);
target = (1,12);
type = Stem;
},
{
horizontal = 1;
origin = (0,10);
target = (0,9);
type = Stem;
},
{
horizontal = 1;
origin = (0,7);
target = (1,4);
type = Stem;
},
{
origin = (0,12);
target = (1,12);
type = Stem;
},
{
origin = (1,8);
target = (0,3);
type = Stem;
}
);
layerId = "9AF1F7D9-E035-453E-B2A8-46DE370997D0";
shapes = (
{
closed = 1;
nodes = (
(692,0,ls),
(1078,0,o),
(1392,314,o),
(1392,700,cs),
(1392,1086,o),
(1078,1400,o),
(692,1400,cs),
(228,1400,l),
(228,780,l),
(100,780,l),
(100,720,l),
(228,720,l),
(228,0,l)
);
},
{
closed = 1;
nodes = (
(288,720,l),
(686,720,l),
(686,780,l),
(288,780,l),
(288,1340,l),
(692,1340,ls),
(1036,1340,o),
(1332,1060,o),
(1332,700,cs),
(1332,354,o),
(1052,60,o),
(692,60,cs),
(288,60,l)
);
}
);
width = 1452;
},
{
hints = (
{
horizontal = 1;
origin = (0,12);
target = (1,12);
type = Stem;
},
{
horizontal = 1;
origin = (0,10);
target = (0,9);
type = Stem;
},
{
horizontal = 1;
origin = (0,7);
target = (1,4);
type = Stem;
},
{
origin = (0,12);
target = (1,12);
type = Stem;
},
{
origin = (1,8);
target = (0,3);
type = Stem;
}
);
layerId = m003;
shapes = (
{
closed = 1;
nodes = (
(495,0,ls),
(881,0,o),
(1239,314,o),
(1294,700,cs),
(1348,1086,o),
(1078,1400,o),
(692,1400,cs),
(228,1400,l),
(141,780,l),
(13,780,l),
(4,720,l),
(132,720,l),
(31,0,l)
);
},
{
closed = 1;
nodes = (
(192,720,l),
(590,720,l),
(599,780,l),
(201,780,l),
(280,1340,l),
(684,1340,ls),
(1028,1340,o),
(1284,1060,o),
(1234,700,cs),
(1185,354,o),
(864,60,o),
(504,60,cs),
(100,60,l)
);
}
);
width = 1452;
},
{
hints = (
{
horizontal = 1;
origin = (0,12);
target = (1,12);
type = Stem;
},
{
horizontal = 1;
origin = (0,10);
target = (0,9);
type = Stem;
},
{
horizontal = 1;
origin = (0,7);
target = (1,4);
type = Stem;
},
{
origin = (0,12);
target = (1,12);
type = Stem;
},
{
origin = (1,8);
target = (0,3);
type = Stem;
}
);
layerId = m004;
shapes = (
{
closed = 1;
nodes = (
(504,0,ls),
(890,0,o),
(1248,314,o),
(1303,700,cs),
(1357,1086,o),
(1087,1400,o),
(701,1400,cs),
(239,1400,l),
(169,900,l),
(29,900,l),
(-13,600,l),
(127,600,l),
(42,0,l)
);
},
{
closed = 1;
nodes = (
(427,600,l),
(665,600,l),
(707,900,l),
(469,900,l),
(497,1100,l),
(659,1100,ls),
(879,1100,o),
(1034,920,o),
(1003,700,cs),
(972,480,o),
(766,300,o),
(546,300,cs),
(384,300,l)
);
}
);
width = 1461;
},
{
hints = (
{
horizontal = 1;
origin = (0,12);
target = (1,12);
type = Stem;
},
{
horizontal = 1;
origin = (0,10);
target = (0,9);
type = Stem;
},
{
horizontal = 1;
origin = (0,7);
target = (1,4);
type = Stem;
},
{
origin = (0,12);
target = (1,12);
type = Stem;
},
{
origin = (1,8);
target = (0,3);
type = Stem;
}
);
layerId = "024B54ED-FF00-4B3B-B916-19AEEB47CF52";
shapes = (
{
closed = 1;
nodes = (
(695,0,ls),
(1081,0,o),
(1395,314,o),
(1395,700,cs),
(1395,1086,o),
(1081,1400,o),
(695,1400,cs),
(232,1400,l),
(232,820,l),
(100,820,l),
(100,680,l),
(232,680,l),
(232,0,l)
);
},
{
closed = 1;
nodes = (
(372,680,l),
(717,680,l),
(717,820,l),
(372,820,l),
(372,1260,l),
(695,1260,ls),
(998,1260,o),
(1255,1013,o),
(1255,700,cs),
(1255,396,o),
(1009,140,o),
(695,140,cs),
(372,140,l)
);
}
);
width = 1455.33333;
},
{
hints = (
{
horizontal = 1;
origin = (0,12);
target = (1,12);
type = Stem;
},
{
horizontal = 1;
origin = (0,10);
target = (0,9);
type = Stem;
},
{
horizontal = 1;
origin = (0,7);
target = (1,4);
type = Stem;
},
{
origin = (0,12);
target = (1,12);
type = Stem;
},
{
origin = (1,8);
target = (0,3);
type = Stem;
}
);
layerId = "D546763A-DEF0-4334-A7AF-26D5912082F8";
shapes = (
{
closed = 1;
nodes = (
(498,0,ls),
(884,0,o),
(1242,314,o),
(1297,700,cs),
(1351,1086,o),
(1081,1400,o),
(695,1400,cs),
(232,1400,l),
(150,820,l),
(18,820,l),
(-2,680,l),
(130,680,l),
(35,0,l)
);
},
{
closed = 1;
nodes = (
(270,680,l),
(615,680,l),
(635,820,l),
(290,820,l),
(352,1260,l),
(676,1260,ls),
(978,1260,o),
(1201,1013,o),
(1157,700,cs),
(1114,396,o),
(831,140,o),
(518,140,cs),
(195,140,l)
);
}
);
width = 1455;
}
);
metricLeft = "=D-20";
metricRight = D;
unicode = 208;
},
{
glyphname = E;
kernLeft = H;
kernRight = E;
lastChange = "2021-06-04 07:15:20 +0000";
layers = (
{
anchors = (
{
name = bottom;
pos = (556,0);
},
{
name = ogonek;
pos = (1001,10);
},
{
name = top;
pos = (556,1400);
},
{
name = topleft;
pos = (20,1400);
}
);
hints = (
{
horizontal = 1;
origin = (0,11);
target = (0,2);
type = Stem;
},
{
horizontal = 1;
origin = (0,3);
target = (0,6);
type = Stem;
},
{
horizontal = 1;
origin = (0,10);
target = (0,7);
type = Stem;
},
{
origin = (0,11);
target = (0,2);
type = Stem;
}
);
layerId = "10BC12B3-5274-42E3-B5BC-F74F362F0DF4";
shapes = (
{
closed = 1;
nodes = (
(1012,0,l),
(1012,300,l),
(420,300,l),
(420,600,l),
(876,600,l),
(876,900,l),
(420,900,l),
(420,1100,l),
(1012,1100,l),
(1012,1400,l),
(120,1400,l),
(120,0,l)
);
}
);
width = 1112;
},
{
anchors = (
{
name = bottom;
pos = (526,0);
},
{
name = ogonek;
pos = (947,10);
},
{
name = top;
pos = (526,1400);
},
{
name = topleft;
pos = (20,1400);
}
);
hints = (
{
horizontal = 1;
origin = (0,11);
target = (0,2);
type = Stem;
},
{
horizontal = 1;
origin = (0,3);
target = (0,6);
type = Stem;
},
{
horizontal = 1;
origin = (0,10);
target = (0,7);
type = Stem;
},
{
origin = (0,11);
target = (0,2);
type = Stem;
}
);
layerId = "9AF1F7D9-E035-453E-B2A8-46DE370997D0";
shapes = (
{
closed = 1;
nodes = (
(952,0,l),
(952,60,l),
(180,60,l),
(180,720,l),
(836,720,l),
(836,780,l),
(180,780,l),
(180,1340,l),
(952,1340,l),
(952,1400,l),
(120,1400,l),
(120,0,l)
);
}
);
width = 1052;
},
{
anchors = (
{
name = bottom;
pos = (329,0);
},
{
name = ogonek;
pos = (752,10);
},
{
name = top;
pos = (526,1400);
},
{
name = topleft;
pos = (20,1400);
}
);
hints = (
{
horizontal = 1;
origin = (0,11);
target = (0,2);
type = Stem;
},
{
horizontal = 1;
origin = (0,3);
target = (0,6);
type = Stem;
},
{
horizontal = 1;
origin = (0,10);
target = (0,7);
type = Stem;
},
{
origin = (0,11);
target = (0,2);
type = Stem;
}
);
layerId = m003;
shapes = (
{
closed = 1;
nodes = (
(755,0,l),
(764,60,l),
(-8,60,l),
(84,720,l),
(740,720,l),
(749,780,l),
(93,780,l),
(172,1340,l),
(944,1340,l),
(952,1400,l),
(120,1400,l),
(-77,0,l)
);
}
);
width = 1052;
},
{
anchors = (
{
name = bottom;
pos = (359,0);
},
{
name = ogonek;
pos = (806,10);
},
{
name = top;
pos = (556,1400);
},
{
name = topleft;
pos = (20,1400);
}
);
hints = (
{
horizontal = 1;
origin = (0,11);
target = (0,2);
type = Stem;
},
{
horizontal = 1;
origin = (0,3);
target = (0,6);
type = Stem;
},
{
horizontal = 1;
origin = (0,10);
target = (0,7);
type = Stem;
},
{
origin = (0,11);
target = (0,2);
type = Stem;
}
);
layerId = m004;
shapes = (
{
closed = 1;
nodes = (
(815,0,l),
(857,300,l),
(265,300,l),
(308,600,l),
(764,600,l),
(806,900,l),
(350,900,l),
(378,1100,l),
(970,1100,l),
(1012,1400,l),
(120,1400,l),
(-77,0,l)
);
}
);
width = 1112;
},
{
anchors = (
{
name = bottom;
pos = (536,0);
},
{
name = ogonek;
pos = (965,10);
},
{
name = top;
pos = (536,1400);
},
{
name = topleft;
pos = (20,1400);
}
);
hints = (
{
horizontal = 1;
origin = (0,11);
target = (0,2);
type = Stem;
},
{
horizontal = 1;
origin = (0,3);
target = (0,6);
type = Stem;
},
{
horizontal = 1;
origin = (0,10);
target = (0,7);
type = Stem;
},
{
origin = (0,11);
target = (0,2);
type = Stem;
}
);
layerId = "024B54ED-FF00-4B3B-B916-19AEEB47CF52";
shapes = (
{
closed = 1;
nodes = (
(972,0,l),
(972,140,l),
(260,140,l),
(260,680,l),
(849,680,l),
(849,820,l),
(260,820,l),
(260,1260,l),
(972,1260,l),
(972,1400,l),
(120,1400,l),
(120,0,l)
);
}
);
width = 1072;
},
{
anchors = (
{
name = bottom;
pos = (339,0);
},
{
name = ogonek;
pos = (770,10);
},
{
name = top;
pos = (536,1400);
},
{
name = topleft;
pos = (20,1400);
}
);
hints = (
{
horizontal = 1;
origin = (0,11);
target = (0,2);
type = Stem;
},
{
horizontal = 1;
origin = (0,3);
target = (0,6);
type = Stem;
},
{
horizontal = 1;
origin = (0,10);
target = (0,7);
type = Stem;
},
{
origin = (0,11);
target = (0,2);
type = Stem;
}
);
layerId = "D546763A-DEF0-4334-A7AF-26D5912082F8";
shapes = (
{
closed = 1;
nodes = (
(775,0,l),
(795,140,l),
(83,140,l),
(159,680,l),
(748,680,l),
(768,820,l),
(179,820,l),
(241,1260,l),
(953,1260,l),
(972,1400,l),
(120,1400,l),
(-77,0,l)
);
}
);
width = 1072;
}
);
unicode = 69;
},
{
glyphname = F;
kernLeft = H;
kernRight = F;
lastChange = "2021-06-04 07:15:20 +0000";
layers = (
{
anchors = (
{
name = bottom;
pos = (486,0);
},
{
name = top;
pos = (486,1400);
}
);
hints = (
{
horizontal = 1;
origin = (0,9);
target = up;
type = BottomGhost;
},
{
horizontal = 1;
origin = (0,1);
target = (0,4);
type = Stem;
},
{
horizontal = 1;
origin = (0,8);
target = (0,5);
type = Stem;
},
{
origin = (0,9);
target = (0,0);
type = Stem;
}
);
layerId = "10BC12B3-5274-42E3-B5BC-F74F362F0DF4";
shapes = (
{
closed = 1;
nodes = (
(420,0,l),
(420,600,l),
(856,600,l),
(856,900,l),
(420,900,l),
(420,1100,l),
(952,1100,l),
(952,1400,l),
(120,1400,l),
(120,0,l)
);
}
);
width = 972;
},
{
anchors = (
{
name = bottom;
pos = (476,0);
},
{
name = top;
pos = (476,1400);
}
);
hints = (
{
horizontal = 1;
origin = (0,9);
target = up;
type = BottomGhost;
},
{
horizontal = 1;
origin = (0,1);
target = (0,4);
type = Stem;
},
{
horizontal = 1;
origin = (0,8);
target = (0,5);
type = Stem;
},
{
origin = (0,9);
target = (0,0);
type = Stem;
}
);
layerId = "9AF1F7D9-E035-453E-B2A8-46DE370997D0";
shapes = (
{
closed = 1;
nodes = (
(180,0,l),
(180,720,l),
(836,720,l),
(836,780,l),
(180,780,l),
(180,1340,l),
(932,1340,l),
(932,1400,l),
(120,1400,l),
(120,0,l)
);
}
);
width = 952;
},
{
anchors = (
{
name = bottom;
pos = (279,0);
},
{
name = top;
pos = (476,1400);
}
);
hints = (
{
horizontal = 1;
origin = (0,9);
target = up;
type = BottomGhost;
},
{
horizontal = 1;
origin = (0,1);
target = (0,4);
type = Stem;
},
{
horizontal = 1;
origin = (0,8);
target = (0,5);
type = Stem;
},
{
origin = (0,9);
target = (0,0);
type = Stem;
}
);
layerId = m003;
shapes = (
{
closed = 1;
nodes = (
(-17,0,l),
(84,720,l),
(740,720,l),
(749,780,l),
(93,780,l),
(172,1340,l),
(924,1340,l),
(932,1400,l),
(120,1400,l),
(-77,0,l)
);
}
);
width = 952;
},
{
anchors = (
{
name = bottom;
pos = (289,0);
},
{
name = top;
pos = (486,1400);
}
);
hints = (
{
horizontal = 1;
origin = (0,9);
target = up;
type = BottomGhost;
},
{
horizontal = 1;
origin = (0,1);
target = (0,4);
type = Stem;
},
{
horizontal = 1;
origin = (0,8);
target = (0,5);
type = Stem;
},
{
origin = (0,9);
target = (0,0);
type = Stem;
}
);
layerId = m004;
shapes = (
{
closed = 1;
nodes = (
(223,0,l),
(308,600,l),
(744,600,l),
(786,900,l),
(350,900,l),
(378,1100,l),
(910,1100,l),
(952,1400,l),
(120,1400,l),
(-77,0,l)
);
}
);
width = 972;
},
{
anchors = (
{
name = bottom;
pos = (479,0);
},
{
name = top;
pos = (479,1400);
}
);
hints = (
{
horizontal = 1;
origin = (0,9);
target = up;
type = BottomGhost;
},
{
horizontal = 1;
origin = (0,1);
target = (0,4);
type = Stem;
},
{
horizontal = 1;
origin = (0,8);
target = (0,5);
type = Stem;
},
{
origin = (0,9);
target = (0,0);
type = Stem;
}
);
layerId = "024B54ED-FF00-4B3B-B916-19AEEB47CF52";
shapes = (
{
closed = 1;
nodes = (
(260,0,l),
(260,680,l),
(843,680,l),
(843,820,l),
(260,820,l),
(260,1260,l),
(939,1260,l),
(939,1400,l),
(120,1400,l),
(120,0,l)
);
}
);
width = 958.66667;
},
{
anchors = (
{
name = bottom;
pos = (282,0);
},
{
name = top;
pos = (479,1400);
}
);
hints = (
{
horizontal = 1;
origin = (0,9);
target = up;
type = BottomGhost;
},
{
horizontal = 1;
origin = (0,1);
target = (0,4);
type = Stem;
},
{
horizontal = 1;
origin = (0,8);
target = (0,5);
type = Stem;
},
{
origin = (0,9);
target = (0,0);
type = Stem;
}
);
layerId = "D546763A-DEF0-4334-A7AF-26D5912082F8";
shapes = (
{
closed = 1;
nodes = (
(63,0,l),
(159,680,l),
(741,680,l),
(761,820,l),
(179,820,l),
(241,1260,l),
(919,1260,l),
(939,1400,l),
(120,1400,l),
(-77,0,l)
);
}
);
width = 958.66667;
}
);
unicode = 70;
},
{
glyphname = G;
kernLeft = O;
kernRight = O;
lastChange = "2021-06-04 07:15:20 +0000";
layers = (
{
anchors = (
{
name = bottom;
pos = (749,0);
},
{
name = top;
pos = (749,1400);
}
);
hints = (
{
horizontal = 1;
origin = (0,27);
target = (0,8);
type = Stem;
},
{
horizontal = 1;
origin = (0,4);
target = (0,3);
type = Stem;
},
{
horizontal = 1;
origin = (0,21);
target = (0,14);
type = Stem;
},
{
origin = (0,24);
target = (0,11);
type = Stem;
}
);
layerId = "10BC12B3-5274-42E3-B5BC-F74F362F0DF4";
shapes = (
{
closed = 1;
nodes = (
(1144,-26,o),
(1456,322,o),
(1436,740,c),
(894,740,l),
(894,480,l),
(1082,480,l),
(1000,338,o),
(874,274,o),
(752,274,cs),
(536,274,o),
(360,460,o),
(360,696,cs),
(360,952,o),
(550,1126,o),
(750,1126,cs),
(848,1126,o),
(948,1084,o),
(1030,992,c),
(1298,1136,l),
(1146,1338,o),
(948,1424,o),
(754,1424,cs),
(398,1424,o),
(60,1130,o),
(60,702,cs),
(60,304,o),
(356,-26,o),
(748,-26,cs)
);
}
);
width = 1497;
},
{
anchors = (
{
name = bottom;
pos = (748,0);
},
{
name = top;
pos = (748,1400);
}
);
hints = (
{
horizontal = 1;
origin = (0,27);
target = (0,8);
type = Stem;
},
{
horizontal = 1;
origin = (0,4);
target = (0,3);
type = Stem;
},
{
horizontal = 1;
origin = (0,21);
target = (0,14);
type = Stem;
},
{
origin = (0,24);
target = (0,11);
type = Stem;
}
);
layerId = "9AF1F7D9-E035-453E-B2A8-46DE370997D0";
shapes = (
{
closed = 1;
nodes = (
(1110,-26,o),
(1412,272,o),
(1436,642,c),
(896,642,l),
(896,582,l),
(1368,582,l),
(1322,282,o),
(1064,34,o),
(750,34,cs),
(402,34,o),
(120,336,o),
(120,700,cs),
(120,1058,o),
(398,1366,o),
(750,1366,cs),
(940,1366,o),
(1126,1272,o),
(1246,1108,c),
(1300,1138,l),
(1174,1312,o),
(974,1426,o),
(750,1426,cs),
(368,1426,o),
(60,1100,o),
(60,700,cs),
(60,300,o),
(368,-26,o),
(750,-26,cs)
);
}
);
width = 1496;
},
{
anchors = (
{
name = bottom;
pos = (551,0);
},
{
name = top;
pos = (748,1400);
}
);
hints = (
{
horizontal = 1;
origin = (0,27);
target = (0,8);
type = Stem;
},
{
horizontal = 1;
origin = (0,4);
target = (0,3);
type = Stem;
},
{
horizontal = 1;
origin = (0,21);
target = (0,14);
type = Stem;
},
{
origin = (0,24);
target = (0,11);
type = Stem;
}
);
layerId = m003;
shapes = (
{
closed = 1;
nodes = (
(910,-26,o),
(1253,272,o),
(1329,642,c),
(789,642,l),
(781,582,l),
(1253,582,l),
(1165,282,o),
(872,34,o),
(558,34,cs),
(210,34,o),
(-30,336,o),
(22,700,cs),
(72,1058,o),
(393,1366,o),
(745,1366,cs),
(935,1366,o),
(1108,1272,o),
(1205,1108,c),
(1263,1138,l),
(1162,1312,o),
(978,1426,o),
(754,1426,cs),
(372,1426,o),
(18,1100,o),
(-38,700,cs),
(-95,300,o),
(168,-26,o),
(550,-26,cs)
);
}
);
width = 1496;
},
{
anchors = (
{
name = bottom;
pos = (552,0);
},
{
name = top;
pos = (749,1400);
}
);
hints = (
{
horizontal = 1;
origin = (0,27);
target = (0,8);
type = Stem;
},
{
horizontal = 1;
origin = (0,4);
target = (0,3);
type = Stem;
},
{
horizontal = 1;
origin = (0,21);
target = (0,14);
type = Stem;
},
{
origin = (0,24);
target = (0,11);
type = Stem;
}
);
layerId = m004;
shapes = (
{
closed = 1;
nodes = (
(944,-26,o),
(1304,322,o),
(1343,740,c),
(801,740,l),
(765,480,l),
(953,480,l),
(851,338,o),
(716,274,o),
(594,274,cs),
(378,274,o),
(228,460,o),
(261,696,cs),
(297,952,o),
(511,1126,o),
(711,1126,cs),
(809,1126,o),
(904,1084,o),
(973,992,c),
(1261,1136,l),
(1137,1338,o),
(951,1424,o),
(757,1424,cs),
(401,1424,o),
(22,1130,o),
(-38,702,cs),
(-94,304,o),
(156,-26,o),
(548,-26,cs)
);
}
);
width = 1497;
},
{
anchors = (
{
name = bottom;
pos = (748,0);
},
{
name = top;
pos = (748,1400);
}
);
hints = (
{
horizontal = 1;
origin = (0,27);
target = (0,8);
type = Stem;
},
{
horizontal = 1;
origin = (0,4);
target = (0,3);
type = Stem;
},
{
horizontal = 1;
origin = (0,21);
target = (0,14);
type = Stem;
},
{
origin = (0,24);
target = (0,11);
type = Stem;
}
);
layerId = "024B54ED-FF00-4B3B-B916-19AEEB47CF52";
shapes = (
{
closed = 1;
nodes = (
(1121,-26,o),
(1427,289,o),
(1436,675,c),
(895,675,l),
(895,548,l),
(1273,548,l),
(1215,301,o),
(1001,114,o),
(751,114,cs),
(447,114,o),
(200,377,o),
(200,699,cs),
(200,1023,o),
(449,1286,o),
(750,1286,cs),
(909,1286,o),
(1067,1209,o),
(1174,1069,c),
(1299,1137,l),
(1165,1321,o),
(965,1425,o),
(751,1425,cs),
(378,1425,o),
(60,1110,o),
(60,701,cs),
(60,301,o),
(364,-26,o),
(749,-26,cs)
);
}
);
width = 1496.33333;
},
{
anchors = (
{
name = bottom;
pos = (551,0);
},
{
name = top;
pos = (748,1400);
}
);
hints = (
{
horizontal = 1;
origin = (0,27);
target = (0,8);
type = Stem;
},
{
horizontal = 1;
origin = (0,4);
target = (0,3);
type = Stem;
},
{
horizontal = 1;
origin = (0,21);
target = (0,14);
type = Stem;
},
{
origin = (0,24);
target = (0,11);
type = Stem;
}
);
layerId = "D546763A-DEF0-4334-A7AF-26D5912082F8";
shapes = (
{
closed = 1;
nodes = (
(921,-26,o),
(1270,289,o),
(1334,675,c),
(793,675,l),
(776,548,l),
(1153,548,l),
(1060,301,o),
(820,114,o),
(570,114,cs),
(266,114,o),
(56,377,o),
(102,699,cs),
(147,1023,o),
(432,1286,o),
(734,1286,cs),
(893,1286,o),
(1040,1209,o),
(1128,1069,c),
(1262,1137,l),
(1154,1321,o),
(969,1425,o),
(755,1425,cs),
(382,1425,o),
(19,1110,o),
(-38,701,cs),
(-95,301,o),
(164,-26,o),
(549,-26,cs)
);
}
);
width = 1496.33333;
}
);
unicode = 71;
},
{
glyphname = H;
kernLeft = H;
kernRight = H;
lastChange = "2021-06-04 07:15:20 +0000";
layers = (
{
anchors = (
{
name = bottom;
pos = (668,0);
},
{
name = center;
pos = (668,700);
},
{
name = top;
pos = (668,1400);
},
{
name = topleft;
pos = (20,1400);
}
);
hints = (
{
horizontal = 1;
origin = (0,4);
target = up;
type = BottomGhost;
},
{
horizontal = 1;
origin = (0,6);
target = (0,1);
type = Stem;
},
{
horizontal = 1;
origin = (0,3);
target = down;
type = TopGhost;
},
{
origin = (0,4);
target = (0,5);
type = Stem;
},
{
origin = (0,8);
target = (0,9);
type = Stem;
}
);
layerId = "10BC12B3-5274-42E3-B5BC-F74F362F0DF4";
shapes = (
{
closed = 1;
nodes = (
(916,900,l),
(420,900,l),
(420,1400,l),
(120,1400,l),
(120,0,l),
(420,0,l),
(420,600,l),
(916,600,l),
(916,0,l),
(1216,0,l),
(1216,1400,l),
(916,1400,l)
);
}
);
width = 1336;
},
{
anchors = (
{
name = bottom;
pos = (607,0);
},
{
name = center;
pos = (607,700);
},
{
name = top;
pos = (607,1400);
},
{
name = topleft;
pos = (20,1400);
}
);
hints = (
{
horizontal = 1;
origin = (0,4);
target = up;
type = BottomGhost;
},
{
horizontal = 1;
origin = (0,6);
target = (0,1);
type = Stem;
},
{
horizontal = 1;
origin = (0,3);
target = down;
type = TopGhost;
},
{
origin = (0,4);
target = (0,5);
type = Stem;
},
{
origin = (0,8);
target = (0,9);
type = Stem;
}
);
layerId = "9AF1F7D9-E035-453E-B2A8-46DE370997D0";
shapes = (
{
closed = 1;
nodes = (
(1034,780,l),
(180,780,l),
(180,1400,l),
(120,1400,l),
(120,0,l),
(180,0,l),
(180,720,l),
(1034,720,l),
(1034,0,l),
(1094,0,l),
(1094,1400,l),
(1034,1400,l)
);
}
);
width = 1214;
},
{
anchors = (
{
name = bottom;
pos = (410,0);
},
{
name = center;
pos = (509,700);
},
{
name = top;
pos = (607,1400);
},
{
name = topleft;
pos = (20,1400);
}
);
hints = (
{
horizontal = 1;
origin = (0,4);
target = up;
type = BottomGhost;
},
{
horizontal = 1;
origin = (0,6);
target = (0,1);
type = Stem;
},
{
horizontal = 1;
origin = (0,3);
target = down;
type = TopGhost;
},
{
origin = (0,4);
target = (0,5);
type = Stem;
},
{
origin = (0,8);
target = (0,9);
type = Stem;
}
);
layerId = m003;
shapes = (
{
closed = 1;
nodes = (
(947,780,l),
(93,780,l),
(180,1400,l),
(120,1400,l),
(-77,0,l),
(-17,0,l),
(84,720,l),
(938,720,l),
(837,0,l),
(897,0,l),
(1094,1400,l),
(1034,1400,l)
);
}
);
width = 1214;
},
{
anchors = (
{
name = bottom;
pos = (471,0);
},
{
name = center;
pos = (570,700);
},
{
name = top;
pos = (668,1400);
},
{
name = topleft;
pos = (20,1400);
}
);
hints = (
{
horizontal = 1;
origin = (0,4);
target = up;
type = BottomGhost;
},
{
horizontal = 1;
origin = (0,6);
target = (0,1);
type = Stem;
},
{
horizontal = 1;
origin = (0,3);
target = down;
type = TopGhost;
},
{
origin = (0,4);
target = (0,5);
type = Stem;
},
{
origin = (0,8);
target = (0,9);
type = Stem;
}
);
layerId = m004;
shapes = (
{
closed = 1;
nodes = (
(846,900,l),
(350,900,l),
(420,1400,l),
(120,1400,l),
(-77,0,l),
(223,0,l),
(308,600,l),
(804,600,l),
(719,0,l),
(1019,0,l),
(1216,1400,l),
(916,1400,l)
);
}
);
width = 1336;
},
{
anchors = (
{
name = bottom;
pos = (627,0);
},
{
name = center;
pos = (627,700);
},
{
name = top;
pos = (627,1400);
},
{
name = topleft;
pos = (20,1400);
}
);
hints = (
{
horizontal = 1;
origin = (0,4);
target = up;
type = BottomGhost;
},
{
horizontal = 1;
origin = (0,6);
target = (0,1);
type = Stem;
},
{
horizontal = 1;
origin = (0,3);
target = down;
type = TopGhost;
},
{
origin = (0,4);
target = (0,5);
type = Stem;
},
{
origin = (0,8);
target = (0,9);
type = Stem;
}
);
layerId = "024B54ED-FF00-4B3B-B916-19AEEB47CF52";
shapes = (
{
closed = 1;
nodes = (
(995,820,l),
(260,820,l),
(260,1400,l),
(120,1400,l),
(120,0,l),
(260,0,l),
(260,680,l),
(995,680,l),
(995,0,l),
(1135,0,l),
(1135,1400,l),
(995,1400,l)
);
}
);
width = 1254.66667;
},
{
anchors = (
{
name = bottom;
pos = (430,0);
},
{
name = center;
pos = (529,700);
},
{
name = top;
pos = (627,1400);
},
{
name = topleft;
pos = (20,1400);
}
);
hints = (
{
horizontal = 1;
origin = (0,4);
target = up;
type = BottomGhost;
},
{
horizontal = 1;
origin = (0,6);
target = (0,1);
type = Stem;
},
{
horizontal = 1;
origin = (0,3);
target = down;
type = TopGhost;
},
{
origin = (0,4);
target = (0,5);
type = Stem;
},
{
origin = (0,8);
target = (0,9);
type = Stem;
}
);
layerId = "D546763A-DEF0-4334-A7AF-26D5912082F8";
shapes = (
{
closed = 1;
nodes = (
(913,820,l),
(179,820,l),
(260,1400,l),
(120,1400,l),
(-77,0,l),
(63,0,l),
(159,680,l),
(893,680,l),
(798,0,l),
(938,0,l),
(1135,1400,l),
(995,1400,l)
);
}
);
width = 1254.66667;
}
);
unicode = 72;
},
{
glyphname = I;
kernLeft = H;
kernRight = H;
lastChange = "2021-06-04 07:15:20 +0000";
layers = (
{
anchors = (
{
name = bottom;
pos = (300,0);
},
{
name = ogonek;
pos = (540,10);
},
{
name = top;
pos = (300,1400);
},
{
name = topleft;
pos = (20,1400);
}
);
hints = (
{
horizontal = 1;
origin = (0,3);
target = up;
type = BottomGhost;
},
{
horizontal = 1;
origin = (0,2);
target = down;
type = TopGhost;
},
{
origin = (0,3);
target = (0,0);
type = Stem;
}
);
layerId = "10BC12B3-5274-42E3-B5BC-F74F362F0DF4";
shapes = (
{
closed = 1;
nodes = (
(450,0,l),
(450,1400,l),
(150,1400,l),
(150,0,l)
);
}
);
width = 600;
},
{
anchors = (
{
name = bottom;
pos = (180,0);
},
{
name = ogonek;
pos = (324,10);
},
{
name = top;
pos = (180,1400);
},
{
name = topleft;
pos = (20,1400);
}
);
hints = (
{
horizontal = 1;
origin = (0,3);
target = up;
type = BottomGhost;
},
{
horizontal = 1;
origin = (0,2);
target = down;
type = TopGhost;
},
{
origin = (0,3);
target = (0,0);
type = Stem;
}
);
layerId = "9AF1F7D9-E035-453E-B2A8-46DE370997D0";
shapes = (
{
closed = 1;
nodes = (
(210,0,l),
(210,1400,l),
(150,1400,l),
(150,0,l)
);
}
);
width = 360;
},
{
anchors = (
{
name = bottom;
pos = (-17,0);
},
{
name = ogonek;
pos = (129,10);
},
{
name = top;
pos = (180,1400);
},
{
name = topleft;
pos = (20,1400);
}
);
hints = (
{
horizontal = 1;
origin = (0,3);
target = up;
type = BottomGhost;
},
{
horizontal = 1;
origin = (0,2);
target = down;
type = TopGhost;
},
{
origin = (0,3);
target = (0,0);
type = Stem;
}
);
layerId = m003;
shapes = (
{
closed = 1;
nodes = (
(13,0,l),
(210,1400,l),
(150,1400,l),
(-47,0,l)
);
}
);
width = 360;
},
{
anchors = (
{
name = bottom;
pos = (103,0);
},
{
name = ogonek;
pos = (345,10);
},
{
name = top;
pos = (300,1400);
},
{
name = topleft;
pos = (20,1400);
}
);
hints = (
{
horizontal = 1;
origin = (0,3);
target = up;
type = BottomGhost;
},
{
horizontal = 1;
origin = (0,2);
target = down;
type = TopGhost;
},
{
origin = (0,3);
target = (0,0);
type = Stem;
}
);
layerId = m004;
shapes = (
{
closed = 1;
nodes = (
(253,0,l),
(450,1400,l),
(150,1400,l),
(-47,0,l)
);
}
);
width = 600;
},
{
anchors = (
{
name = bottom;
pos = (220,0);
},
{
name = ogonek;
pos = (396,10);
},
{
name = top;
pos = (220,1400);
},
{
name = topleft;
pos = (20,1400);
}
);
hints = (
{
horizontal = 1;
origin = (0,3);
target = up;
type = BottomGhost;
},
{
horizontal = 1;
origin = (0,2);
target = down;
type = TopGhost;
},
{
origin = (0,3);
target = (0,0);
type = Stem;
}
);
layerId = "024B54ED-FF00-4B3B-B916-19AEEB47CF52";
shapes = (
{
closed = 1;
nodes = (
(290,0,l),
(290,1400,l),
(150,1400,l),
(150,0,l)
);
}
);
width = 440;
},
{
anchors = (
{
name = bottom;
pos = (23,0);
},
{
name = ogonek;
pos = (201,10);
},
{
name = top;
pos = (220,1400);
},
{
name = topleft;
pos = (20,1400);
}
);
hints = (
{
horizontal = 1;
origin = (0,3);
target = up;
type = BottomGhost;
},
{
horizontal = 1;
origin = (0,2);
target = down;
type = TopGhost;
},
{
origin = (0,3);
target = (0,0);
type = Stem;
}
);
layerId = "D546763A-DEF0-4334-A7AF-26D5912082F8";
shapes = (
{
closed = 1;
nodes = (
(93,0,l),
(290,1400,l),
(150,1400,l),
(-47,0,l)
);
}
);
width = 440;
}
);
unicode = 73;
},
{
glyphname = J;
kernLeft = J;
kernRight = J;
lastChange = "2021-06-04 07:15:20 +0000";
layers = (
{
anchors = (
{
name = bottom;
pos = (467,0);
},
{
name = top;
pos = (467,1400);
}
);
hints = (
{
horizontal = 1;
origin = (0,15);
target = (0,8);
type = Stem;
},
{
horizontal = 1;
origin = (0,4);
target = down;
type = TopGhost;
},
{
origin = (0,5);
target = (0,2);
type = Stem;
}
);
layerId = "10BC12B3-5274-42E3-B5BC-F74F362F0DF4";
shapes = (
{
closed = 1;
nodes = (
(602,-26,o),
(814,186,o),
(814,446,cs),
(814,1400,l),
(514,1400,l),
(514,446,ls),
(514,352,o),
(436,274,o),
(342,274,cs),
(290,274,o),
(254,296,o),
(232,314,c),
(40,84,l),
(124,12,o),
(232,-26,o),
(342,-26,cs)
);
}
);
width = 934;
},
{
anchors = (
{
name = bottom;
pos = (369,0);
},
{
name = top;
pos = (369,1400);
}
);
hints = (
{
horizontal = 1;
origin = (0,15);
target = (0,8);
type = Stem;
},
{
horizontal = 1;
origin = (0,4);
target = down;
type = TopGhost;
},
{
origin = (0,5);
target = (0,2);
type = Stem;
}
);
layerId = "9AF1F7D9-E035-453E-B2A8-46DE370997D0";
shapes = (
{
closed = 1;
nodes = (
(460,-26,o),
(618,152,o),
(618,346,cs),
(618,1400,l),
(558,1400,l),
(558,346,ls),
(558,184,o),
(426,34,o),
(264,34,cs),
(196,34,o),
(130,58,o),
(78,102,c),
(40,56,l),
(104,0,o),
(182,-26,o),
(264,-26,cs)
);
}
);
width = 738;
},
{
anchors = (
{
name = bottom;
pos = (172,0);
},
{
name = top;
pos = (369,1400);
}
);
hints = (
{
horizontal = 1;
origin = (0,15);
target = (0,8);
type = Stem;
},
{
horizontal = 1;
origin = (0,4);
target = down;
type = TopGhost;
},
{
origin = (0,5);
target = (0,2);
type = Stem;
}
);
layerId = m003;
shapes = (
{
closed = 1;
nodes = (
(260,-26,o),
(443,152,o),
(470,346,cs),
(618,1400,l),
(558,1400,l),
(410,346,ls),
(387,184,o),
(234,34,o),
(72,34,cs),
(4,34,o),
(-59,58,o),
(-104,102,c),
(-149,56,l),
(-93,0,o),
(-18,-26,o),
(64,-26,cs)
);
}
);
width = 738;
},
{
anchors = (
{
name = bottom;
pos = (270,0);
},
{
name = top;
pos = (467,1400);
}
);
hints = (
{
horizontal = 1;
origin = (0,15);
target = (0,8);
type = Stem;
},
{
horizontal = 1;
origin = (0,4);
target = down;
type = TopGhost;
},
{
origin = (0,5);
target = (0,2);
type = Stem;
}
);
layerId = m004;
shapes = (
{
closed = 1;
nodes = (
(402,-26,o),
(643,186,o),
(680,446,cs),
(814,1400,l),
(514,1400,l),
(380,446,ls),
(367,352,o),
(278,274,o),
(184,274,cs),
(132,274,o),
(99,296,o),
(79,314,c),
(-145,84,l),
(-71,12,o),
(32,-26,o),
(142,-26,cs)
);
}
);
width = 934;
},
{
anchors = (
{
name = bottom;
pos = (402,0);
},
{
name = top;
pos = (402,1400);
}
);
hints = (
{
horizontal = 1;
origin = (0,15);
target = (0,8);
type = Stem;
},
{
horizontal = 1;
origin = (0,4);
target = down;
type = TopGhost;
},
{
origin = (0,5);
target = (0,2);
type = Stem;
}
);
layerId = "024B54ED-FF00-4B3B-B916-19AEEB47CF52";
shapes = (
{
closed = 1;
nodes = (
(507,-26,o),
(683,163,o),
(683,379,cs),
(683,1400,l),
(543,1400,l),
(543,379,ls),
(543,240,o),
(429,114,o),
(290,114,cs),
(227,114,o),
(171,137,o),
(129,173,c),
(40,65,l),
(111,4,o),
(199,-26,o),
(290,-26,cs)
);
}
);
width = 803.33333;
},
{
anchors = (
{
name = bottom;
pos = (205,0);
},
{
name = top;
pos = (402,1400);
}
);
hints = (
{
horizontal = 1;
origin = (0,15);
target = (0,8);
type = Stem;
},
{
horizontal = 1;
origin = (0,4);
target = down;
type = TopGhost;
},
{
origin = (0,5);
target = (0,2);
type = Stem;
}
);
layerId = "D546763A-DEF0-4334-A7AF-26D5912082F8";
shapes = (
{
closed = 1;
nodes = (
(307,-26,o),
(510,163,o),
(540,379,cs),
(683,1400,l),
(543,1400,l),
(400,379,ls),
(380,240,o),
(249,114,o),
(109,114,cs),
(47,114,o),
(-6,137,o),
(-43,173,c),
(-148,65,l),
(-86,4,o),
(-1,-26,o),
(90,-26,cs)
);
}
);
width = 803.33333;
}
);
unicode = 74;
},
{
glyphname = K;
kernLeft = H;
kernRight = K;
lastChange = "2021-06-04 07:15:20 +0000";
layers = (
{
anchors = (
{
name = bottom;
pos = (615,0);
},
{
name = top;
pos = (615,1400);
}
);
hints = (
{
horizontal = 1;
origin = (0,6);
target = up;
type = BottomGhost;
},
{
horizontal = 1;
origin = (0,5);
target = down;
type = TopGhost;
},
{
origin = (0,6);
target = (0,7);
type = Stem;
}
);
layerId = "10BC12B3-5274-42E3-B5BC-F74F362F0DF4";
shapes = (
{
closed = 1;
nodes = (
(656,740,l),
(1210,1400,l),
(818,1400,l),
(420,924,l),
(420,1400,l),
(120,1400,l),
(120,0,l),
(420,0,l),
(420,458,l),
(460,506,l),
(818,0,l),
(1210,0,l)
);
}
);
width = 1230;
},
{
anchors = (
{
name = bottom;
pos = (492,0);
},
{
name = top;
pos = (492,1400);
}
);
hints = (
{
horizontal = 1;
origin = (0,6);
target = up;
type = BottomGhost;
},
{
horizontal = 1;
origin = (0,5);
target = down;
type = TopGhost;
},
{
origin = (0,6);
target = (0,7);
type = Stem;
}
);
layerId = "9AF1F7D9-E035-453E-B2A8-46DE370997D0";
shapes = (
{
closed = 1;
nodes = (
(378,738,l),
(934,1400,l),
(856,1400,l),
(180,594,l),
(180,1400,l),
(120,1400,l),
(120,0,l),
(180,0,l),
(180,500,l),
(338,690,l),
(848,0,l),
(924,0,l)
);
}
);
width = 984;
},
{
anchors = (
{
name = bottom;
pos = (295,0);
},
{
name = top;
pos = (492,1400);
}
);
hints = (
{
horizontal = 1;
origin = (0,6);
target = up;
type = BottomGhost;
},
{
horizontal = 1;
origin = (0,5);
target = down;
type = TopGhost;
},
{
origin = (0,6);
target = (0,7);
type = Stem;
}
);
layerId = m003;
shapes = (
{
closed = 1;
nodes = (
(285,738,l),
(934,1400,l),
(856,1400,l),
(67,594,l),
(180,1400,l),
(120,1400,l),
(-77,0,l),
(-17,0,l),
(54,500,l),
(238,690,l),
(651,0,l),
(727,0,l)
);
}
);
width = 984;
},
{
anchors = (
{
name = bottom;
pos = (418,0);
},
{
name = top;
pos = (615,1400);
}
);
hints = (
{
horizontal = 1;
origin = (0,6);
target = up;
type = BottomGhost;
},
{
horizontal = 1;
origin = (0,5);
target = down;
type = TopGhost;
},
{
origin = (0,6);
target = (0,7);
type = Stem;
}
);
layerId = m004;
shapes = (
{
closed = 1;
nodes = (
(563,740,l),
(1210,1400,l),
(818,1400,l),
(353,924,l),
(420,1400,l),
(120,1400,l),
(-77,0,l),
(223,0,l),
(288,458,l),
(334,506,l),
(621,0,l),
(1013,0,l)
);
}
);
width = 1230;
},
{
anchors = (
{
name = bottom;
pos = (533,0);
},
{
name = top;
pos = (533,1400);
}
);
hints = (
{
horizontal = 1;
origin = (0,6);
target = up;
type = BottomGhost;
},
{
horizontal = 1;
origin = (0,5);
target = down;
type = TopGhost;
},
{
origin = (0,6);
target = (0,7);
type = Stem;
}
);
layerId = "024B54ED-FF00-4B3B-B916-19AEEB47CF52";
shapes = (
{
closed = 1;
nodes = (
(471,739,l),
(1026,1400,l),
(843,1400,l),
(260,704,l),
(260,1400,l),
(120,1400,l),
(120,0,l),
(260,0,l),
(260,486,l),
(379,629,l),
(838,0,l),
(1019,0,l)
);
}
);
width = 1066;
},
{
anchors = (
{
name = bottom;
pos = (336,0);
},
{
name = top;
pos = (533,1400);
}
);
hints = (
{
horizontal = 1;
origin = (0,6);
target = up;
type = BottomGhost;
},
{
horizontal = 1;
origin = (0,5);
target = down;
type = TopGhost;
},
{
origin = (0,6);
target = (0,7);
type = Stem;
}
);
layerId = "D546763A-DEF0-4334-A7AF-26D5912082F8";
shapes = (
{
closed = 1;
nodes = (
(378,739,l),
(1026,1400,l),
(843,1400,l),
(162,704,l),
(260,1400,l),
(120,1400,l),
(-77,0,l),
(63,0,l),
(132,486,l),
(270,629,l),
(641,0,l),
(822,0,l)
);
}
);
width = 1066;
}
);
unicode = 75;
},
{
glyphname = L;
kernLeft = H;
kernRight = L;
lastChange = "2021-06-04 07:15:20 +0000";
layers = (
{
anchors = (
{
name = bottom;
pos = (535,0);
},
{
name = center;
pos = (535,700);
},
{
name = top;
pos = (535,1400);
},
{
name = topright;
pos = (1050,1400);
}
);
hints = (
{
horizontal = 1;
origin = (0,5);
target = (0,2);
type = Stem;
},
{
horizontal = 1;
origin = (0,4);
target = down;
type = TopGhost;
},
{
origin = (0,5);
target = (0,2);
type = Stem;
}
);
layerId = "10BC12B3-5274-42E3-B5BC-F74F362F0DF4";
shapes = (
{
closed = 1;
nodes = (
(970,0,l),
(970,300,l),
(420,300,l),
(420,1400,l),
(120,1400,l),
(120,0,l)
);
}
);
width = 1070;
},
{
anchors = (
{
name = bottom;
pos = (485,0);
},
{
name = center;
pos = (485,700);
},
{
name = top;
pos = (485,1400);
},
{
name = topright;
pos = (950,1400);
}
);
hints = (
{
horizontal = 1;
origin = (0,5);
target = (0,2);
type = Stem;
},
{
horizontal = 1;
origin = (0,4);
target = down;
type = TopGhost;
},
{
origin = (0,5);
target = (0,2);
type = Stem;
}
);
layerId = "9AF1F7D9-E035-453E-B2A8-46DE370997D0";
shapes = (
{
closed = 1;
nodes = (
(870,0,l),
(870,60,l),
(180,60,l),
(180,1400,l),
(120,1400,l),
(120,0,l)
);
}
);
width = 970;
},
{
anchors = (
{
name = bottom;
pos = (288,0);
},
{
name = center;
pos = (387,700);
},
{
name = top;
pos = (485,1400);
},
{
name = topright;
pos = (950,1400);
}
);
hints = (
{
horizontal = 1;
origin = (0,5);
target = (0,2);
type = Stem;
},
{
horizontal = 1;
origin = (0,4);
target = down;
type = TopGhost;
},
{
origin = (0,5);
target = (0,2);
type = Stem;
}
);
layerId = m003;
shapes = (
{
closed = 1;
nodes = (
(673,0,l),
(682,60,l),
(-8,60,l),
(180,1400,l),
(120,1400,l),
(-77,0,l)
);
}
);
width = 970;
},
{
anchors = (
{
name = bottom;
pos = (338,0);
},
{
name = center;
pos = (437,700);
},
{
name = top;
pos = (535,1400);
},
{
name = topright;
pos = (1050,1400);
}
);
hints = (
{
horizontal = 1;
origin = (0,5);
target = (0,2);
type = Stem;
},
{
horizontal = 1;
origin = (0,4);
target = down;
type = TopGhost;
},
{
origin = (0,5);
target = (0,2);
type = Stem;
}
);
layerId = m004;
shapes = (
{
closed = 1;
nodes = (
(773,0,l),
(815,300,l),
(265,300,l),
(420,1400,l),
(120,1400,l),
(-77,0,l)
);
}
);
width = 1070;
},
{
anchors = (
{
name = bottom;
pos = (502,0);
},
{
name = center;
pos = (502,700);
},
{
name = top;
pos = (502,1400);
},
{
name = topright;
pos = (983,1400);
}
);
hints = (
{
horizontal = 1;
origin = (0,5);
target = (0,2);
type = Stem;
},
{
horizontal = 1;
origin = (0,4);
target = down;
type = TopGhost;
},
{
origin = (0,5);
target = (0,2);
type = Stem;
}
);
layerId = "024B54ED-FF00-4B3B-B916-19AEEB47CF52";
shapes = (
{
closed = 1;
nodes = (
(903,0,l),
(903,140,l),
(260,140,l),
(260,1400,l),
(120,1400,l),
(120,0,l)
);
}
);
width = 1003.33333;
},
{
anchors = (
{
name = bottom;
pos = (305,0);
},
{
name = center;
pos = (404,700);
},
{
name = top;
pos = (502,1400);
},
{
name = topright;
pos = (983,1400);
}
);
hints = (
{
horizontal = 1;
origin = (0,5);
target = (0,2);
type = Stem;
},
{
horizontal = 1;
origin = (0,4);
target = down;
type = TopGhost;
},
{
origin = (0,5);
target = (0,2);
type = Stem;
}
);
layerId = "D546763A-DEF0-4334-A7AF-26D5912082F8";
shapes = (
{
closed = 1;
nodes = (
(706,0,l),
(726,140,l),
(83,140,l),
(260,1400,l),
(120,1400,l),
(-77,0,l)
);
}
);
width = 1003.33333;
}
);
metricLeft = H;
unicode = 76;
},
{
glyphname = M;
kernLeft = M;
kernRight = M;
lastChange = "2021-06-04 07:15:20 +0000";
layers = (
{
anchors = (
{
name = bottom;
pos = (962,0);
},
{
name = top;
pos = (962,1400);
}
);
hints = (
{
horizontal = 1;
origin = (0,12);
target = up;
type = BottomGhost;
},
{
horizontal = 1;
origin = (0,11);
target = down;
type = TopGhost;
}
);
layerId = "10BC12B3-5274-42E3-B5BC-F74F362F0DF4";
shapes = (
{
closed = 1;
nodes = (
(426,0,l),
(572,756,l),
(858,0,l),
(1066,0,l),
(1352,756,l),
(1498,0,l),
(1804,0,l),
(1532,1400,l),
(1276,1400,l),
(962,574,l),
(648,1400,l),
(392,1400,l),
(120,0,l)
);
}
);
width = 1924;
},
{
anchors = (
{
name = bottom;
pos = (846,0);
},
{
name = top;
pos = (846,1400);
}
);
hints = (
{
horizontal = 1;
origin = (0,12);
target = up;
type = BottomGhost;
},
{
horizontal = 1;
origin = (0,11);
target = down;
type = TopGhost;
}
);
layerId = "9AF1F7D9-E035-453E-B2A8-46DE370997D0";
shapes = (
{
closed = 1;
nodes = (
(180,0,l),
(418,1228,l),
(830,138,l),
(860,138,l),
(1272,1228,l),
(1510,0,l),
(1572,0,l),
(1300,1400,l),
(1274,1400,l),
(846,268,l),
(416,1400,l),
(390,1400,l),
(120,0,l)
);
}
);
width = 1692;
},
{
anchors = (
{
name = bottom;
pos = (649,0);
},
{
name = top;
pos = (846,1400);
}
);
hints = (
{
horizontal = 1;
origin = (0,12);
target = up;
type = BottomGhost;
},
{
horizontal = 1;
origin = (0,11);
target = down;
type = TopGhost;
}
);
layerId = m003;
shapes = (
{
closed = 1;
nodes = (
(-17,0,l),
(394,1228,l),
(653,138,l),
(683,138,l),
(1248,1228,l),
(1313,0,l),
(1375,0,l),
(1300,1400,l),
(1274,1400,l),
(687,268,l),
(416,1400,l),
(390,1400,l),
(-77,0,l)
);
}
);
width = 1692;
},
{
anchors = (
{
name = bottom;
pos = (765,0);
},
{
name = top;
pos = (962,1400);
}
);
hints = (
{
horizontal = 1;
origin = (0,12);
target = up;
type = BottomGhost;
},
{
horizontal = 1;
origin = (0,11);
target = down;
type = TopGhost;
}
);
layerId = m004;
shapes = (
{
closed = 1;
nodes = (
(229,0,l),
(481,756,l),
(661,0,l),
(869,0,l),
(1261,756,l),
(1301,0,l),
(1607,0,l),
(1532,1400,l),
(1276,1400,l),
(846,574,l),
(648,1400,l),
(392,1400,l),
(-77,0,l)
);
}
);
width = 1924;
},
{
anchors = (
{
name = bottom;
pos = (885,0);
},
{
name = top;
pos = (885,1400);
}
);
hints = (
{
horizontal = 1;
origin = (0,12);
target = up;
type = BottomGhost;
},
{
horizontal = 1;
origin = (0,11);
target = down;
type = TopGhost;
}
);
layerId = "024B54ED-FF00-4B3B-B916-19AEEB47CF52";
shapes = (
{
closed = 1;
nodes = (
(262,0,l),
(469,1071,l),
(839,92,l),
(929,92,l),
(1299,1071,l),
(1506,0,l),
(1649,0,l),
(1377,1400,l),
(1275,1400,l),
(885,370,l),
(493,1400,l),
(391,1400,l),
(120,0,l)
);
}
);
width = 1769.33333;
},
{
anchors = (
{
name = bottom;
pos = (688,0);
},
{
name = top;
pos = (885,1400);
}
);
hints = (
{
horizontal = 1;
origin = (0,12);
target = up;
type = BottomGhost;
},
{
horizontal = 1;
origin = (0,11);
target = down;
type = TopGhost;
}
);
layerId = "D546763A-DEF0-4334-A7AF-26D5912082F8";
shapes = (
{
closed = 1;
nodes = (
(65,0,l),
(423,1071,l),
(656,92,l),
(745,92,l),
(1252,1071,l),
(1309,0,l),
(1452,0,l),
(1377,1400,l),
(1275,1400,l),
(740,370,l),
(493,1400,l),
(391,1400,l),
(-77,0,l)
);
}
);
width = 1769.33333;
}
);
unicode = 77;
},
{
glyphname = N;
kernLeft = H;
kernRight = H;
lastChange = "2021-06-04 07:15:20 +0000";
layers = (
{
anchors = (
{
name = bottom;
pos = (688,0);
},
{
name = top;
pos = (688,1400);
}
);
hints = (
{
horizontal = 1;
origin = (0,9);
target = up;
type = BottomGhost;
},
{
horizontal = 1;
origin = (0,8);
target = down;
type = TopGhost;
},
{
origin = (0,9);
target = (0,0);
type = Stem;
},
{
origin = (0,6);
target = (0,3);
type = Stem;
}
);
layerId = "10BC12B3-5274-42E3-B5BC-F74F362F0DF4";
shapes = (
{
closed = 1;
nodes = (
(420,0,l),
(420,858,l),
(932,0,l),
(1256,0,l),
(1256,1400,l),
(956,1400,l),
(956,542,l),
(444,1400,l),
(120,1400,l),
(120,0,l)
);
}
);
width = 1376;
},
{
anchors = (
{
name = bottom;
pos = (639,0);
},
{
name = top;
pos = (639,1400);
}
);
hints = (
{
horizontal = 1;
origin = (0,9);
target = up;
type = BottomGhost;
},
{
horizontal = 1;
origin = (0,8);
target = down;
type = TopGhost;
},
{
origin = (0,9);
target = (0,0);
type = Stem;
},
{
origin = (0,6);
target = (0,3);
type = Stem;
}
);
layerId = "9AF1F7D9-E035-453E-B2A8-46DE370997D0";
shapes = (
{
closed = 1;
nodes = (
(210,0,l),
(210,1292,l),
(1064,0,l),
(1128,0,l),
(1128,1400,l),
(1068,1400,l),
(1068,108,l),
(216,1400,l),
(150,1400,l),
(150,0,l)
);
}
);
width = 1278;
},
{
anchors = (
{
name = bottom;
pos = (442,0);
},
{
name = top;
pos = (639,1400);
}
);
hints = (
{
horizontal = 1;
origin = (0,9);
target = up;
type = BottomGhost;
},
{
horizontal = 1;
origin = (0,8);
target = down;
type = TopGhost;
},
{
origin = (0,9);
target = (0,0);
type = Stem;
},
{
origin = (0,6);
target = (0,3);
type = Stem;
}
);
layerId = m003;
shapes = (
{
closed = 1;
nodes = (
(13,0,l),
(195,1292,l),
(867,0,l),
(931,0,l),
(1128,1400,l),
(1068,1400,l),
(886,108,l),
(216,1400,l),
(150,1400,l),
(-47,0,l)
);
}
);
width = 1278;
},
{
anchors = (
{
name = bottom;
pos = (491,0);
},
{
name = top;
pos = (688,1400);
}
);
hints = (
{
horizontal = 1;
origin = (0,9);
target = up;
type = BottomGhost;
},
{
horizontal = 1;
origin = (0,8);
target = down;
type = TopGhost;
},
{
origin = (0,9);
target = (0,0);
type = Stem;
},
{
origin = (0,6);
target = (0,3);
type = Stem;
}
);
layerId = m004;
shapes = (
{
closed = 1;
nodes = (
(223,0,l),
(344,858,l),
(735,0,l),
(1059,0,l),
(1256,1400,l),
(956,1400,l),
(835,542,l),
(444,1400,l),
(120,1400,l),
(-77,0,l)
);
}
);
width = 1376;
},
{
anchors = (
{
name = bottom;
pos = (655,0);
},
{
name = top;
pos = (655,1400);
}
);
hints = (
{
horizontal = 1;
origin = (0,9);
target = up;
type = BottomGhost;
},
{
horizontal = 1;
origin = (0,8);
target = down;
type = TopGhost;
},
{
origin = (0,9);
target = (0,0);
type = Stem;
},
{
origin = (0,6);
target = (0,3);
type = Stem;
}
);
layerId = "024B54ED-FF00-4B3B-B916-19AEEB47CF52";
shapes = (
{
closed = 1;
nodes = (
(280,0,l),
(280,1147,l),
(1020,0,l),
(1171,0,l),
(1171,1400,l),
(1031,1400,l),
(1031,253,l),
(292,1400,l),
(140,1400,l),
(140,0,l)
);
}
);
width = 1310.66667;
},
{
anchors = (
{
name = bottom;
pos = (458,0);
},
{
name = top;
pos = (655,1400);
}
);
hints = (
{
horizontal = 1;
origin = (0,9);
target = up;
type = BottomGhost;
},
{
horizontal = 1;
origin = (0,8);
target = down;
type = TopGhost;
},
{
origin = (0,9);
target = (0,0);
type = Stem;
},
{
origin = (0,6);
target = (0,3);
type = Stem;
}
);
layerId = "D546763A-DEF0-4334-A7AF-26D5912082F8";
shapes = (
{
closed = 1;
nodes = (
(83,0,l),
(245,1147,l),
(823,0,l),
(974,0,l),
(1171,1400,l),
(1031,1400,l),
(869,253,l),
(292,1400,l),
(140,1400,l),
(-57,0,l)
);
}
);
width = 1310.66667;
}
);
unicode = 78;
},
{
glyphname = O;
kernLeft = O;
kernRight = O;
lastChange = "2021-06-04 07:15:20 +0000";
layers = (
{
anchors = (
{
name = bottom;
pos = (770,0);
},
{
name = center;
pos = (770,700);
},
{
name = ogonek;
pos = (1386,10);
},
{
name = top;
pos = (770,1400);
},
{
name = topleft;
pos = (20,1400);
},
{
name = topright;
pos = (1520,1400);
}
);
hints = (
{
horizontal = 1;
origin = (0,11);
target = (1,11);
type = Stem;
},
{
horizontal = 1;
origin = (0,5);
target = (1,5);
type = Stem;
},
{
origin = (0,8);
target = (1,2);
type = Stem;
},
{
origin = (1,8);
target = (0,2);
type = Stem;
}
);
layerId = "10BC12B3-5274-42E3-B5BC-F74F362F0DF4";
shapes = (
{
closed = 1;
nodes = (
(1150,-26,o),
(1460,300,o),
(1460,700,cs),
(1460,1100,o),
(1150,1426,o),
(770,1426,cs),
(390,1426,o),
(80,1100,o),
(80,700,cs),
(80,300,o),
(390,-26,o),
(770,-26,cs)
);
},
{
closed = 1;
nodes = (
(556,274,o),
(380,466,o),
(380,700,cs),
(380,934,o),
(556,1126,o),
(770,1126,cs),
(984,1126,o),
(1160,934,o),
(1160,700,cs),
(1160,466,o),
(984,274,o),
(770,274,cs)
);
}
);
width = 1540;
},
{
anchors = (
{
name = bottom;
pos = (770,0);
},
{
name = center;
pos = (770,700);
},
{
name = ogonek;
pos = (1386,10);
},
{
name = top;
pos = (770,1400);
},
{
name = topleft;
pos = (20,1400);
},
{
name = topright;
pos = (1520,1400);
}
);
hints = (
{
horizontal = 1;
origin = (0,11);
target = (1,11);
type = Stem;
},
{
horizontal = 1;
origin = (0,5);
target = (1,5);
type = Stem;
},
{
origin = (0,8);
target = (1,2);
type = Stem;
},
{
origin = (1,8);
target = (0,2);
type = Stem;
}
);
layerId = "9AF1F7D9-E035-453E-B2A8-46DE370997D0";
shapes = (
{
closed = 1;
nodes = (
(1150,-26,o),
(1460,300,o),
(1460,700,cs),
(1460,1100,o),
(1150,1426,o),
(770,1426,cs),
(390,1426,o),
(80,1100,o),
(80,700,cs),
(80,300,o),
(390,-26,o),
(770,-26,cs)
);
},
{
closed = 1;
nodes = (
(422,34,o),
(140,334,o),
(140,700,cs),
(140,1060,o),
(418,1366,o),
(770,1366,cs),
(1118,1366,o),
(1400,1064,o),
(1400,700,cs),
(1400,340,o),
(1122,34,o),
(770,34,cs)
);
}
);
width = 1540;
},
{
anchors = (
{
name = bottom;
pos = (573,0);
},
{
name = center;
pos = (672,700);
},
{
name = ogonek;
pos = (1191,10);
},
{
name = top;
pos = (770,1400);
},
{
name = topleft;
pos = (20,1400);
},
{
name = topright;
pos = (1520,1400);
}
);
hints = (
{
horizontal = 1;
origin = (0,11);
target = (1,11);
type = Stem;
},
{
horizontal = 1;
origin = (0,5);
target = (1,5);
type = Stem;
},
{
origin = (0,8);
target = (1,2);
type = Stem;
},
{
origin = (1,8);
target = (0,2);
type = Stem;
}
);
layerId = m003;
shapes = (
{
closed = 1;
nodes = (
(950,-26,o),
(1305,300,o),
(1362,700,cs),
(1418,1100,o),
(1154,1426,o),
(774,1426,cs),
(394,1426,o),
(38,1100,o),
(-18,700,cs),
(-75,300,o),
(190,-26,o),
(570,-26,cs)
);
},
{
closed = 1;
nodes = (
(230,34,o),
(-10,334,o),
(42,700,cs),
(92,1060,o),
(413,1366,o),
(765,1366,cs),
(1113,1366,o),
(1353,1064,o),
(1302,700,cs),
(1251,340,o),
(930,34,o),
(578,34,cs)
);
}
);
width = 1540;
},
{
anchors = (
{
name = bottom;
pos = (573,0);
},
{
name = center;
pos = (672,700);
},
{
name = ogonek;
pos = (1191,10);
},
{
name = top;
pos = (770,1400);
},
{
name = topleft;
pos = (20,1400);
},
{
name = topright;
pos = (1520,1400);
}
);
hints = (
{
horizontal = 1;
origin = (0,11);
target = (1,11);
type = Stem;
},
{
horizontal = 1;
origin = (0,5);
target = (1,5);
type = Stem;
},
{
origin = (0,8);
target = (1,2);
type = Stem;
},
{
origin = (1,8);
target = (0,2);
type = Stem;
}
);
layerId = m004;
shapes = (
{
closed = 1;
nodes = (
(950,-26,o),
(1305,300,o),
(1362,700,cs),
(1418,1100,o),
(1154,1426,o),
(774,1426,cs),
(394,1426,o),
(38,1100,o),
(-18,700,cs),
(-75,300,o),
(190,-26,o),
(570,-26,cs)
);
},
{
closed = 1;
nodes = (
(398,274,o),
(249,466,o),
(282,700,cs),
(315,934,o),
(517,1126,o),
(731,1126,cs),
(945,1126,o),
(1095,934,o),
(1062,700,cs),
(1029,466,o),
(826,274,o),
(612,274,cs)
);
}
);
width = 1540;
},
{
anchors = (
{
name = bottom;
pos = (770,0);
},
{
name = center;
pos = (770,700);
},
{
name = ogonek;
pos = (1386,10);
},
{
name = top;
pos = (770,1400);
},
{
name = topleft;
pos = (20,1400);
},
{
name = topright;
pos = (1520,1400);
}
);
hints = (
{
horizontal = 1;
origin = (0,11);
target = (1,11);
type = Stem;
},
{
horizontal = 1;
origin = (0,5);
target = (1,5);
type = Stem;
},
{
origin = (0,8);
target = (1,2);
type = Stem;
},
{
origin = (1,8);
target = (0,2);
type = Stem;
}
);
layerId = "024B54ED-FF00-4B3B-B916-19AEEB47CF52";
shapes = (
{
closed = 1;
nodes = (
(1150,-26,o),
(1460,300,o),
(1460,700,cs),
(1460,1100,o),
(1150,1426,o),
(770,1426,cs),
(390,1426,o),
(80,1100,o),
(80,700,cs),
(80,300,o),
(390,-26,o),
(770,-26,cs)
);
},
{
closed = 1;
nodes = (
(467,114,o),
(220,378,o),
(220,700,cs),
(220,1018,o),
(464,1286,o),
(770,1286,cs),
(1073,1286,o),
(1320,1021,o),
(1320,700,cs),
(1320,382,o),
(1076,114,o),
(770,114,cs)
);
}
);
width = 1540;
},
{
anchors = (
{
name = bottom;
pos = (573,0);
},
{
name = center;
pos = (672,700);
},
{
name = ogonek;
pos = (1191,10);
},
{
name = top;
pos = (770,1400);
},
{
name = topleft;
pos = (20,1400);
},
{
name = topright;
pos = (1520,1400);
}
);
hints = (
{
horizontal = 1;
origin = (0,11);
target = (1,11);
type = Stem;
},
{
horizontal = 1;
origin = (0,5);
target = (1,5);
type = Stem;
},
{
origin = (0,8);
target = (1,2);
type = Stem;
},
{
origin = (1,8);
target = (0,2);
type = Stem;
}
);
layerId = "D546763A-DEF0-4334-A7AF-26D5912082F8";
shapes = (
{
closed = 1;
nodes = (
(950,-26,o),
(1305,300,o),
(1362,700,cs),
(1418,1100,o),
(1154,1426,o),
(774,1426,cs),
(394,1426,o),
(38,1100,o),
(-18,700,cs),
(-75,300,o),
(190,-26,o),
(570,-26,cs)
);
},
{
closed = 1;
nodes = (
(286,114,o),
(76,378,o),
(122,700,cs),
(166,1018,o),
(448,1286,o),
(754,1286,cs),
(1057,1286,o),
(1267,1021,o),
(1222,700,cs),
(1177,382,o),
(895,114,o),
(589,114,cs)
);
}
);
width = 1540;
}
);
unicode = 79;
},
{
glyphname = Oslash;
kernLeft = O;
kernRight = O;
lastChange = "2021-06-04 07:15:20 +0000";
layers = (
{
anchors = (
{
name = bottom;
pos = (770,0);
},
{
name = top;
pos = (770,1400);
}
);
hints = (
{
horizontal = 1;
origin = (0,3);
target = (2,9);
type = Stem;
},
{
horizontal = 1;
origin = (0,15);
target = (1,5);
type = Stem;
},
{
origin = (0,18);
target = (1,2);
type = Stem;
},
{
origin = (2,6);
target = (0,6);
type = Stem;
}
);
layerId = "10BC12B3-5274-42E3-B5BC-F74F362F0DF4";
shapes = (
{
closed = 1;
nodes = (
(548,14,l),
(618,-12,o),
(692,-26,o),
(770,-26,cs),
(1150,-26,o),
(1460,300,o),
(1460,700,cs),
(1460,906,o),
(1378,1092,o),
(1246,1226,c),
(1332,1372,l),
(1072,1522,l),
(994,1388,l),
(924,1412,o),
(850,1426,o),
(770,1426,cs),
(390,1426,o),
(80,1100,o),
(80,700,cs),
(80,494,o),
(164,308,o),
(294,176,c),
(210,28,l),
(470,-122,l)
);
},
{
closed = 1;
nodes = (
(408,522,o),
(380,608,o),
(380,700,cs),
(380,934,o),
(556,1126,o),
(770,1126,cs),
(794,1126,o),
(818,1124,o),
(840,1120,c),
(454,452,l)
);
},
{
closed = 1;
nodes = (
(748,274,o),
(724,276,o),
(702,282,c),
(1088,948,l),
(1134,878,o),
(1160,792,o),
(1160,700,cs),
(1160,466,o),
(984,274,o),
(770,274,cs)
);
}
);
width = 1540;
},
{
anchors = (
{
name = bottom;
pos = (770,0);
},
{
name = top;
pos = (770,1400);
}
);
hints = (
{
horizontal = 1;
origin = (0,3);
target = (2,9);
type = Stem;
},
{
horizontal = 1;
origin = (0,15);
target = (1,5);
type = Stem;
},
{
origin = (0,18);
target = (1,2);
type = Stem;
},
{
origin = (2,6);
target = (0,6);
type = Stem;
}
);
layerId = "9AF1F7D9-E035-453E-B2A8-46DE370997D0";
shapes = (
{
closed = 1;
nodes = (
(438,64,l),
(538,8,o),
(650,-26,o),
(770,-26,cs),
(1150,-26,o),
(1460,300,o),
(1460,700,cs),
(1460,952,o),
(1338,1174,o),
(1154,1304,c),
(1228,1432,l),
(1176,1462,l),
(1104,1336,l),
(1004,1394,o),
(892,1426,o),
(770,1426,cs),
(390,1426,o),
(80,1100,o),
(80,700,cs),
(80,450,o),
(204,228,o),
(388,96,c),
(314,-32,l),
(366,-62,l)
);
},
{
closed = 1;
nodes = (
(250,270,o),
(140,472,o),
(140,700,cs),
(140,1060,o),
(418,1366,o),
(770,1366,cs),
(880,1366,o),
(984,1336,o),
(1074,1284,c),
(418,150,l)
);
},
{
closed = 1;
nodes = (
(662,34,o),
(558,64,o),
(468,116,c),
(1124,1252,l),
(1290,1130,o),
(1400,928,o),
(1400,700,cs),
(1400,340,o),
(1122,34,o),
(770,34,cs)
);
}
);
width = 1540;
},
{
anchors = (
{
name = bottom;
pos = (573,0);
},
{
name = top;
pos = (770,1400);
}
);
hints = (
{
horizontal = 1;
origin = (0,3);
target = (2,9);
type = Stem;
},
{
horizontal = 1;
origin = (0,15);
target = (1,5);
type = Stem;
},
{
origin = (0,18);
target = (1,2);
type = Stem;
},
{
origin = (2,6);
target = (0,6);
type = Stem;
}
);
layerId = m003;
shapes = (
{
closed = 1;
nodes = (
(250,64,l),
(342,8,o),
(450,-26,o),
(570,-26,cs),
(950,-26,o),
(1305,300,o),
(1362,700,cs),
(1397,952,o),
(1306,1174,o),
(1141,1304,c),
(1232,1432,l),
(1185,1462,l),
(1095,1336,l),
(1003,1394,o),
(896,1426,o),
(774,1426,cs),
(394,1426,o),
(38,1100,o),
(-18,700,cs),
(-54,450,o),
(39,228,o),
(205,96,c),
(113,-32,l),
(161,-62,l)
);
},
{
closed = 1;
nodes = (
(91,270,o),
(10,472,o),
(42,700,cs),
(92,1060,o),
(413,1366,o),
(765,1366,cs),
(875,1366,o),
(975,1336,o),
(1058,1284,c),
(242,150,l)
);
},
{
closed = 1;
nodes = (
(470,34,o),
(370,64,o),
(288,116,c),
(1103,1252,l),
(1252,1130,o),
(1334,928,o),
(1302,700,cs),
(1251,340,o),
(930,34,o),
(578,34,cs)
);
}
);
width = 1540;
},
{
anchors = (
{
name = bottom;
pos = (573,0);
},
{
name = top;
pos = (770,1400);
}
);
hints = (
{
horizontal = 1;
origin = (0,3);
target = (2,9);
type = Stem;
},
{
horizontal = 1;
origin = (0,15);
target = (1,5);
type = Stem;
},
{
origin = (0,18);
target = (1,2);
type = Stem;
},
{
origin = (2,6);
target = (0,6);
type = Stem;
}
);
layerId = m004;
shapes = (
{
closed = 1;
nodes = (
(353,14,l),
(420,-12,o),
(492,-26,o),
(570,-26,cs),
(950,-26,o),
(1305,300,o),
(1362,700,cs),
(1391,906,o),
(1335,1092,o),
(1222,1226,c),
(1328,1372,l),
(1089,1522,l),
(992,1388,l),
(926,1412,o),
(854,1426,o),
(774,1426,cs),
(394,1426,o),
(38,1100,o),
(-18,700,cs),
(-47,494,o),
(11,308,o),
(122,176,c),
(17,28,l),
(256,-122,l)
);
},
{
closed = 1;
nodes = (
(285,522,o),
(269,608,o),
(282,700,cs),
(315,934,o),
(517,1126,o),
(731,1126,cs),
(755,1126,o),
(779,1124,o),
(801,1120,c),
(321,452,l)
);
},
{
closed = 1;
nodes = (
(590,274,o),
(566,276,o),
(545,282,c),
(1024,948,l),
(1061,878,o),
(1075,792,o),
(1062,700,cs),
(1029,466,o),
(826,274,o),
(612,274,cs)
);
}
);
width = 1540;
},
{
anchors = (
{
name = bottom;
pos = (770,0);
},
{
name = top;
pos = (770,1400);
}
);
hints = (
{
horizontal = 1;
origin = (0,3);
target = (2,9);
type = Stem;
},
{
horizontal = 1;
origin = (0,15);
target = (1,5);
type = Stem;
},
{
origin = (0,18);
target = (1,2);
type = Stem;
},
{
origin = (2,6);
target = (0,6);
type = Stem;
}
);
layerId = "024B54ED-FF00-4B3B-B916-19AEEB47CF52";
shapes = (
{
closed = 1;
nodes = (
(475,47,l),
(565,1,o),
(664,-26,o),
(770,-26,cs),
(1150,-26,o),
(1460,300,o),
(1460,700,cs),
(1460,937,o),
(1351,1147,o),
(1185,1278,c),
(1263,1412,l),
(1141,1482,l),
(1067,1353,l),
(977,1400,o),
(878,1426,o),
(770,1426,cs),
(390,1426,o),
(80,1100,o),
(80,700,cs),
(80,465,o),
(191,255,o),
(357,123,c),
(279,-12,l),
(401,-82,l)
);
},
{
closed = 1;
nodes = (
(303,354,o),
(220,517,o),
(220,700,cs),
(220,1018,o),
(464,1286,o),
(770,1286,cs),
(851,1286,o),
(929,1265,o),
(996,1229,c),
(430,251,l)
);
},
{
closed = 1;
nodes = (
(691,114,o),
(613,135,o),
(546,171,c),
(1112,1151,l),
(1238,1046,o),
(1320,883,o),
(1320,700,cs),
(1320,382,o),
(1076,114,o),
(770,114,cs)
);
}
);
width = 1540;
},
{
anchors = (
{
name = bottom;
pos = (573,0);
},
{
name = top;
pos = (770,1400);
}
);
hints = (
{
horizontal = 1;
origin = (0,3);
target = (2,9);
type = Stem;
},
{
horizontal = 1;
origin = (0,15);
target = (1,5);
type = Stem;
},
{
origin = (0,18);
target = (1,2);
type = Stem;
},
{
origin = (2,6);
target = (0,6);
type = Stem;
}
);
layerId = "D546763A-DEF0-4334-A7AF-26D5912082F8";
shapes = (
{
closed = 1;
nodes = (
(284,47,l),
(368,1,o),
(464,-26,o),
(570,-26,cs),
(950,-26,o),
(1305,300,o),
(1362,700,cs),
(1395,937,o),
(1316,1147,o),
(1168,1278,c),
(1264,1412,l),
(1153,1482,l),
(1061,1353,l),
(977,1400,o),
(882,1426,o),
(774,1426,cs),
(394,1426,o),
(38,1100,o),
(-18,700,cs),
(-52,465,o),
(30,255,o),
(177,123,c),
(81,-12,l),
(193,-82,l)
);
},
{
closed = 1;
nodes = (
(156,354,o),
(96,517,o),
(122,700,cs),
(166,1018,o),
(448,1286,o),
(754,1286,cs),
(835,1286,o),
(910,1265,o),
(972,1229,c),
(268,251,l)
);
},
{
closed = 1;
nodes = (
(510,114,o),
(435,135,o),
(374,171,c),
(1077,1151,l),
(1188,1046,o),
(1248,883,o),
(1222,700,cs),
(1177,382,o),
(895,114,o),
(589,114,cs)
);
}
);
width = 1540;
}
);
metricLeft = O;
metricRight = O;
unicode = 216;
},
{
glyphname = OE;
kernLeft = O;
kernRight = E;
lastChange = "2021-06-04 07:15:20 +0000";
layers = (
{
anchors = (
{
name = bottom;
pos = (1048,0);
},
{
name = top;
pos = (1048,1400);
}
);
hints = (
{
horizontal = 1;
origin = (0,24);
target = (1,11);
type = Stem;
},
{
horizontal = 1;
origin = (0,7);
target = (0,10);
type = Stem;
},
{
horizontal = 1;
origin = (0,14);
target = (0,11);
type = Stem;
},
{
horizontal = 1;
origin = (0,3);
target = (0,6);
type = Stem;
},
{
horizontal = 1;
origin = (0,18);
target = (1,5);
type = Stem;
},
{
origin = (0,21);
target = (1,2);
type = Stem;
},
{
origin = (1,8);
target = (0,6);
type = Stem;
}
);
layerId = "10BC12B3-5274-42E3-B5BC-F74F362F0DF4";
shapes = (
{
closed = 1;
nodes = (
(916,-26,o),
(1052,22,o),
(1164,104,c),
(1164,0,l),
(1996,0,l),
(1996,300,l),
(1464,300,l),
(1464,550,l),
(1900,550,l),
(1900,850,l),
(1464,850,l),
(1464,1100,l),
(1996,1100,l),
(1996,1400,l),
(1164,1400,l),
(1164,1296,l),
(1052,1378,o),
(916,1426,o),
(770,1426,cs),
(390,1426,o),
(80,1100,o),
(80,700,cs),
(80,300,o),
(390,-26,o),
(770,-26,cs)
);
},
{
closed = 1;
nodes = (
(556,274,o),
(380,466,o),
(380,700,cs),
(380,934,o),
(556,1126,o),
(770,1126,cs),
(984,1126,o),
(1160,934,o),
(1160,700,cs),
(1160,466,o),
(984,274,o),
(770,274,cs)
);
}
);
width = 2096;
},
{
anchors = (
{
name = bottom;
pos = (1103,0);
},
{
name = top;
pos = (1103,1400);
}
);
hints = (
{
horizontal = 1;
origin = (0,24);
target = (1,11);
type = Stem;
},
{
horizontal = 1;
origin = (0,7);
target = (0,10);
type = Stem;
},
{
horizontal = 1;
origin = (0,14);
target = (0,11);
type = Stem;
},
{
horizontal = 1;
origin = (0,3);
target = (0,6);
type = Stem;
},
{
horizontal = 1;
origin = (0,18);
target = (1,5);
type = Stem;
},
{
origin = (0,21);
target = (1,2);
type = Stem;
},
{
origin = (0,3);
target = (0,6);
type = Stem;
}
);
layerId = "9AF1F7D9-E035-453E-B2A8-46DE370997D0";
shapes = (
{
closed = 1;
nodes = (
(1050,-26,o),
(1292,152,o),
(1400,404,c),
(1400,0,l),
(2106,0,l),
(2106,60,l),
(1460,60,l),
(1460,670,l),
(2010,670,l),
(2010,730,l),
(1460,730,l),
(1460,1340,l),
(2106,1340,l),
(2106,1400,l),
(1400,1400,l),
(1400,996,l),
(1292,1248,o),
(1050,1426,o),
(770,1426,cs),
(390,1426,o),
(80,1100,o),
(80,700,cs),
(80,300,o),
(390,-26,o),
(770,-26,cs)
);
},
{
closed = 1;
nodes = (
(422,34,o),
(140,334,o),
(140,700,cs),
(140,1060,o),
(418,1366,o),
(770,1366,cs),
(1118,1366,o),
(1400,1064,o),
(1400,700,cs),
(1400,340,o),
(1122,34,o),
(770,34,cs)
);
}
);
width = 2206;
},
{
anchors = (
{
name = bottom;
pos = (906,0);
},
{
name = top;
pos = (1103,1400);
}
);
hints = (
{
horizontal = 1;
origin = (0,24);
target = (1,11);
type = Stem;
},
{
horizontal = 1;
origin = (0,7);
target = (0,10);
type = Stem;
},
{
horizontal = 1;
origin = (0,14);
target = (0,11);
type = Stem;
},
{
horizontal = 1;
origin = (0,3);
target = (0,6);
type = Stem;
},
{
horizontal = 1;
origin = (0,18);
target = (1,5);
type = Stem;
},
{
origin = (0,21);
target = (1,2);
type = Stem;
},
{
origin = (0,3);
target = (0,6);
type = Stem;
}
);
layerId = m003;
shapes = (
{
closed = 1;
nodes = (
(850,-26,o),
(1117,152,o),
(1260,404,c),
(1203,0,l),
(1909,0,l),
(1918,60,l),
(1272,60,l),
(1357,670,l),
(1907,670,l),
(1916,730,l),
(1366,730,l),
(1452,1340,l),
(2098,1340,l),
(2106,1400,l),
(1400,1400,l),
(1343,996,l),
(1271,1248,o),
(1054,1426,o),
(774,1426,cs),
(394,1426,o),
(38,1100,o),
(-18,700,cs),
(-75,300,o),
(190,-26,o),
(570,-26,cs)
);
},
{
closed = 1;
nodes = (
(230,34,o),
(-10,334,o),
(42,700,cs),
(92,1060,o),
(413,1366,o),
(765,1366,cs),
(1113,1366,o),
(1353,1064,o),
(1302,700,cs),
(1251,340,o),
(930,34,o),
(578,34,cs)
);
}
);
width = 2206;
},
{
anchors = (
{
name = bottom;
pos = (851,0);
},
{
name = top;
pos = (1048,1400);
}
);
hints = (
{
horizontal = 1;
origin = (0,24);
target = (1,11);
type = Stem;
},
{
horizontal = 1;
origin = (0,7);
target = (0,10);
type = Stem;
},
{
horizontal = 1;
origin = (0,14);
target = (0,11);
type = Stem;
},
{
horizontal = 1;
origin = (0,3);
target = (0,6);
type = Stem;
},
{
horizontal = 1;
origin = (0,18);
target = (1,5);
type = Stem;
},
{
origin = (0,21);
target = (1,2);
type = Stem;
},
{
origin = (1,8);
target = (0,6);
type = Stem;
}
);
layerId = m004;
shapes = (
{
closed = 1;
nodes = (
(716,-26,o),
(858,22,o),
(982,104,c),
(967,0,l),
(1799,0,l),
(1841,300,l),
(1309,300,l),
(1345,550,l),
(1781,550,l),
(1823,850,l),
(1387,850,l),
(1422,1100,l),
(1954,1100,l),
(1996,1400,l),
(1164,1400,l),
(1149,1296,l),
(1049,1378,o),
(920,1426,o),
(774,1426,cs),
(394,1426,o),
(38,1100,o),
(-18,700,cs),
(-75,300,o),
(190,-26,o),
(570,-26,cs)
);
},
{
closed = 1;
nodes = (
(398,274,o),
(249,466,o),
(282,700,cs),
(315,934,o),
(517,1126,o),
(731,1126,cs),
(945,1126,o),
(1095,934,o),
(1062,700,cs),
(1029,466,o),
(826,274,o),
(612,274,cs)
);
}
);
width = 2096;
},
{
anchors = (
{
name = bottom;
pos = (1085,0);
},
{
name = top;
pos = (1085,1400);
}
);
hints = (
{
horizontal = 1;
origin = (0,24);
target = (1,11);
type = Stem;
},
{
horizontal = 1;
origin = (0,7);
target = (0,10);
type = Stem;
},
{
horizontal = 1;
origin = (0,14);
target = (0,11);
type = Stem;
},
{
horizontal = 1;
origin = (0,3);
target = (0,6);
type = Stem;
},
{
horizontal = 1;
origin = (0,18);
target = (1,5);
type = Stem;
},
{
origin = (0,21);
target = (1,2);
type = Stem;
},
{
origin = (1,8);
target = (0,6);
type = Stem;
}
);
layerId = "024B54ED-FF00-4B3B-B916-19AEEB47CF52";
shapes = (
{
closed = 1;
nodes = (
(1005,-26,o),
(1212,109,o),
(1321,304,c),
(1321,0,l),
(2069,0,l),
(2069,140,l),
(1461,140,l),
(1461,630,l),
(1973,630,l),
(1973,770,l),
(1461,770,l),
(1461,1260,l),
(2069,1260,l),
(2069,1400,l),
(1321,1400,l),
(1321,1096,l),
(1212,1291,o),
(1005,1426,o),
(770,1426,cs),
(390,1426,o),
(80,1100,o),
(80,700,cs),
(80,300,o),
(390,-26,o),
(770,-26,cs)
);
},
{
closed = 1;
nodes = (
(467,114,o),
(220,378,o),
(220,700,cs),
(220,1018,o),
(464,1286,o),
(770,1286,cs),
(1073,1286,o),
(1320,1021,o),
(1320,700,cs),
(1320,382,o),
(1076,114,o),
(770,114,cs)
);
}
);
width = 2169.33333;
},
{
anchors = (
{
name = bottom;
pos = (888,0);
},
{
name = top;
pos = (1085,1400);
}
);
hints = (
{
horizontal = 1;
origin = (0,24);
target = (1,11);
type = Stem;
},
{
horizontal = 1;
origin = (0,7);
target = (0,10);
type = Stem;
},
{
horizontal = 1;
origin = (0,14);
target = (0,11);
type = Stem;
},
{
horizontal = 1;
origin = (0,3);
target = (0,6);
type = Stem;
},
{
horizontal = 1;
origin = (0,18);
target = (1,5);
type = Stem;
},
{
origin = (0,21);
target = (1,2);
type = Stem;
},
{
origin = (1,8);
target = (0,6);
type = Stem;
}
);
layerId = "D546763A-DEF0-4334-A7AF-26D5912082F8";
shapes = (
{
closed = 1;
nodes = (
(805,-26,o),
(1031,109,o),
(1167,304,c),
(1124,0,l),
(1872,0,l),
(1892,140,l),
(1284,140,l),
(1353,630,l),
(1865,630,l),
(1885,770,l),
(1373,770,l),
(1442,1260,l),
(2050,1260,l),
(2069,1400,l),
(1321,1400,l),
(1278,1096,l),
(1197,1291,o),
(1009,1426,o),
(774,1426,cs),
(394,1426,o),
(38,1100,o),
(-18,700,cs),
(-75,300,o),
(190,-26,o),
(570,-26,cs)
);
},
{
closed = 1;
nodes = (
(286,114,o),
(76,378,o),
(122,700,cs),
(166,1018,o),
(448,1286,o),
(754,1286,cs),
(1057,1286,o),
(1267,1021,o),
(1222,700,cs),
(1177,382,o),
(895,114,o),
(589,114,cs)
);
}
);
width = 2169.33333;
}
);
metricLeft = O;
metricRight = E;
unicode = 338;
},
{
glyphname = P;
kernLeft = H;
kernRight = P;
lastChange = "2021-06-04 07:15:20 +0000";
layers = (
{
anchors = (
{
name = bottom;
pos = (570,0);
},
{
name = top;
pos = (570,1400);
}
);
hints = (
{
horizontal = 1;
origin = (0,10);
target = up;
type = BottomGhost;
},
{
horizontal = 1;
origin = (0,1);
target = (1,8);
type = Stem;
},
{
horizontal = 1;
origin = (0,9);
target = (1,0);
type = Stem;
},
{
origin = (0,10);
target = (0,0);
type = Stem;
},
{
origin = (1,4);
target = (0,5);
type = Stem;
}
);
layerId = "10BC12B3-5274-42E3-B5BC-F74F362F0DF4";
shapes = (
{
closed = 1;
nodes = (
(420,0,l),
(420,544,l),
(648,544,ls),
(870,544,o),
(1060,736,o),
(1060,972,cs),
(1060,1204,o),
(878,1400,o),
(648,1400,cs),
(120,1400,l),
(120,0,l)
);
},
{
closed = 1;
nodes = (
(420,1144,l),
(614,1144,ls),
(694,1144,o),
(760,1076,o),
(760,994,cs),
(760,912,o),
(694,844,o),
(614,844,cs),
(420,844,l)
);
}
);
width = 1140;
},
{
anchors = (
{
name = bottom;
pos = (500,0);
},
{
name = top;
pos = (500,1400);
}
);
hints = (
{
horizontal = 1;
origin = (0,10);
target = up;
type = BottomGhost;
},
{
horizontal = 1;
origin = (0,1);
target = (1,8);
type = Stem;
},
{
horizontal = 1;
origin = (0,9);
target = (1,0);
type = Stem;
},
{
origin = (0,10);
target = (0,0);
type = Stem;
},
{
origin = (1,4);
target = (0,5);
type = Stem;
}
);
layerId = "9AF1F7D9-E035-453E-B2A8-46DE370997D0";
shapes = (
{
closed = 1;
nodes = (
(180,0,l),
(180,600,l),
(528,600,ls),
(742,600,o),
(920,770,o),
(920,1000,cs),
(920,1228,o),
(748,1400,o),
(528,1400,cs),
(120,1400,l),
(120,0,l)
);
},
{
closed = 1;
nodes = (
(180,1340,l),
(528,1340,ls),
(710,1340,o),
(860,1196,o),
(860,1000,cs),
(860,804,o),
(710,660,o),
(528,660,cs),
(180,660,l)
);
}
);
width = 1000;
},
{
anchors = (
{
name = bottom;
pos = (303,0);
},
{
name = top;
pos = (500,1400);
}
);
hints = (
{
horizontal = 1;
origin = (0,10);
target = up;
type = BottomGhost;
},
{
horizontal = 1;
origin = (0,1);
target = (1,8);
type = Stem;
},
{
horizontal = 1;
origin = (0,9);
target = (1,0);
type = Stem;
},
{
origin = (0,10);
target = (0,0);
type = Stem;
},
{
origin = (1,4);
target = (0,5);
type = Stem;
}
);
layerId = m003;
shapes = (
{
closed = 1;
nodes = (
(-17,0,l),
(68,600,l),
(416,600,ls),
(630,600,o),
(831,770,o),
(864,1000,cs),
(896,1228,o),
(748,1400,o),
(528,1400,cs),
(120,1400,l),
(-77,0,l)
);
},
{
closed = 1;
nodes = (
(172,1340,l),
(520,1340,ls),
(702,1340,o),
(831,1196,o),
(804,1000,cs),
(776,804,o),
(606,660,o),
(424,660,cs),
(76,660,l)
);
}
);
width = 1000;
},
{
anchors = (
{
name = bottom;
pos = (373,0);
},
{
name = top;
pos = (570,1400);
}
);
hints = (
{
horizontal = 1;
origin = (0,10);
target = up;
type = BottomGhost;
},
{
horizontal = 1;
origin = (0,1);
target = (1,8);
type = Stem;
},
{
horizontal = 1;
origin = (0,9);
target = (1,0);
type = Stem;
},
{
origin = (0,10);
target = (0,0);
type = Stem;
},
{
origin = (1,4);
target = (0,5);
type = Stem;
}
);
layerId = m004;
shapes = (
{
closed = 1;
nodes = (
(223,0,l),
(300,544,l),
(528,544,ls),
(750,544,o),
(967,736,o),
(1000,972,cs),
(1032,1204,o),
(878,1400,o),
(648,1400,cs),
(120,1400,l),
(-77,0,l)
);
},
{
closed = 1;
nodes = (
(384,1144,l),
(578,1144,ls),
(658,1144,o),
(714,1076,o),
(703,994,cs),
(691,912,o),
(616,844,o),
(536,844,cs),
(342,844,l)
);
}
);
width = 1140;
},
{
anchors = (
{
name = bottom;
pos = (523,0);
},
{
name = top;
pos = (523,1400);
}
);
hints = (
{
horizontal = 1;
origin = (0,10);
target = up;
type = BottomGhost;
},
{
horizontal = 1;
origin = (0,1);
target = (1,8);
type = Stem;
},
{
horizontal = 1;
origin = (0,9);
target = (1,0);
type = Stem;
},
{
origin = (0,10);
target = (0,0);
type = Stem;
},
{
origin = (1,4);
target = (0,5);
type = Stem;
}
);
layerId = "024B54ED-FF00-4B3B-B916-19AEEB47CF52";
shapes = (
{
closed = 1;
nodes = (
(260,0,l),
(260,581,l),
(568,581,ls),
(785,581,o),
(967,759,o),
(967,991,cs),
(967,1220,o),
(791,1400,o),
(568,1400,cs),
(120,1400,l),
(120,0,l)
);
},
{
closed = 1;
nodes = (
(260,1275,l),
(557,1275,ls),
(705,1275,o),
(827,1156,o),
(827,998,cs),
(827,840,o),
(705,721,o),
(557,721,cs),
(260,721,l)
);
}
);
width = 1046.66667;
},
{
anchors = (
{
name = bottom;
pos = (326,0);
},
{
name = top;
pos = (523,1400);
}
);
hints = (
{
horizontal = 1;
origin = (0,10);
target = up;
type = BottomGhost;
},
{
horizontal = 1;
origin = (0,1);
target = (1,8);
type = Stem;
},
{
horizontal = 1;
origin = (0,9);
target = (1,0);
type = Stem;
},
{
origin = (0,10);
target = (0,0);
type = Stem;
},
{
origin = (1,4);
target = (0,5);
type = Stem;
}
);
layerId = "D546763A-DEF0-4334-A7AF-26D5912082F8";
shapes = (
{
closed = 1;
nodes = (
(63,0,l),
(145,581,l),
(453,581,ls),
(670,581,o),
(876,759,o),
(909,991,cs),
(941,1220,o),
(791,1400,o),
(568,1400,cs),
(120,1400,l),
(-77,0,l)
);
},
{
closed = 1;
nodes = (
(243,1275,l),
(539,1275,ls),
(687,1275,o),
(792,1156,o),
(770,998,cs),
(748,840,o),
(609,721,o),
(461,721,cs),
(165,721,l)
);
}
);
width = 1046.66667;
}
);
metricLeft = H;
unicode = 80;
},
{
glyphname = Thorn;
kernLeft = H;
kernRight = o;
lastChange = "2021-06-04 07:15:20 +0000";
layers = (
{
anchors = (
{
name = bottom;
pos = (570,0);
},
{
name = top;
pos = (570,1400);
}
);
hints = (
{
horizontal = 1;
origin = (0,12);
target = up;
type = BottomGhost;
},
{
horizontal = 1;
origin = (0,1);
target = (1,8);
type = Stem;
},
{
horizontal = 1;
origin = (1,0);
target = (0,9);
type = Stem;
},
{
horizontal = 1;
origin = (0,11);
target = down;
type = TopGhost;
},
{
origin = (0,12);
target = (0,0);
type = Stem;
},
{
origin = (1,4);
target = (0,5);
type = Stem;
}
);
layerId = "10BC12B3-5274-42E3-B5BC-F74F362F0DF4";
shapes = (
{
closed = 1;
nodes = (
(420,0,l),
(420,272,l),
(648,272,ls),
(870,272,o),
(1060,464,o),
(1060,700,cs),
(1060,932,o),
(878,1128,o),
(648,1128,cs),
(420,1128,l),
(420,1400,l),
(120,1400,l),
(120,0,l)
);
},
{
closed = 1;
nodes = (
(420,872,l),
(614,872,ls),
(694,872,o),
(760,804,o),
(760,722,cs),
(760,640,o),
(694,572,o),
(614,572,cs),
(420,572,l)
);
}
);
width = 1140;
},
{
anchors = (
{
name = bottom;
pos = (500,0);
},
{
name = top;
pos = (500,1400);
}
);
hints = (
{
horizontal = 1;
origin = (0,12);
target = up;
type = BottomGhost;
},
{
horizontal = 1;
origin = (0,1);
target = (1,8);
type = Stem;
},
{
horizontal = 1;
origin = (1,0);
target = (0,9);
type = Stem;
},
{
horizontal = 1;
origin = (0,11);
target = down;
type = TopGhost;
},
{
origin = (0,12);
target = (0,0);
type = Stem;
},
{
origin = (1,4);
target = (0,5);
type = Stem;
}
);
layerId = "9AF1F7D9-E035-453E-B2A8-46DE370997D0";
shapes = (
{
closed = 1;
nodes = (
(180,0,l),
(180,300,l),
(528,300,ls),
(742,300,o),
(920,470,o),
(920,700,cs),
(920,928,o),
(748,1100,o),
(528,1100,cs),
(180,1100,l),
(180,1400,l),
(120,1400,l),
(120,0,l)
);
},
{
closed = 1;
nodes = (
(180,1040,l),
(528,1040,ls),
(710,1040,o),
(860,896,o),
(860,700,cs),
(860,504,o),
(710,360,o),
(528,360,cs),
(180,360,l)
);
}
);
width = 1000;
},
{
anchors = (
{
name = bottom;
pos = (303,0);
},
{
name = top;
pos = (500,1400);
}
);
hints = (
{
horizontal = 1;
origin = (0,12);
target = up;
type = BottomGhost;
},
{
horizontal = 1;
origin = (0,1);
target = (1,8);
type = Stem;
},
{
horizontal = 1;
origin = (1,0);
target = (0,9);
type = Stem;
},
{
horizontal = 1;
origin = (0,11);
target = down;
type = TopGhost;
},
{
origin = (0,12);
target = (0,0);
type = Stem;
},
{
origin = (1,4);
target = (0,5);
type = Stem;
}
);
layerId = m003;
shapes = (
{
closed = 1;
nodes = (
(-17,0,l),
(25,300,l),
(373,300,ls),
(587,300,o),
(789,470,o),
(822,700,cs),
(854,928,o),
(706,1100,o),
(486,1100,cs),
(138,1100,l),
(180,1400,l),
(120,1400,l),
(-77,0,l)
);
},
{
closed = 1;
nodes = (
(129,1040,l),
(477,1040,ls),
(659,1040,o),
(789,896,o),
(762,700,cs),
(734,504,o),
(564,360,o),
(382,360,cs),
(34,360,l)
);
}
);
width = 1000;
},
{
anchors = (
{
name = bottom;
pos = (373,0);
},
{
name = top;
pos = (570,1400);
}
);
hints = (
{
horizontal = 1;
origin = (0,12);
target = up;
type = BottomGhost;
},
{
horizontal = 1;
origin = (0,1);
target = (1,8);
type = Stem;
},
{
horizontal = 1;
origin = (1,0);
target = (0,9);
type = Stem;
},
{
horizontal = 1;
origin = (0,11);
target = down;
type = TopGhost;
},
{
origin = (0,12);
target = (0,0);
type = Stem;
},
{
origin = (1,4);
target = (0,5);
type = Stem;
}
);
layerId = m004;
shapes = (
{
closed = 1;
nodes = (
(223,0,l),
(261,272,l),
(489,272,ls),
(711,272,o),
(928,464,o),
(962,700,cs),
(994,932,o),
(840,1128,o),
(610,1128,cs),
(382,1128,l),
(420,1400,l),
(120,1400,l),
(-77,0,l)
);
},
{
closed = 1;
nodes = (
(346,872,l),
(540,872,ls),
(620,872,o),
(676,804,o),
(665,722,cs),
(653,640,o),
(578,572,o),
(498,572,cs),
(304,572,l)
);
}
);
width = 1140;
},
{
anchors = (
{
name = bottom;
pos = (523,0);
},
{
name = top;
pos = (523,1400);
}
);
hints = (
{
horizontal = 1;
origin = (0,12);
target = up;
type = BottomGhost;
},
{
horizontal = 1;
origin = (0,1);
target = (1,8);
type = Stem;
},
{
horizontal = 1;
origin = (1,0);
target = (0,9);
type = Stem;
},
{
horizontal = 1;
origin = (0,11);
target = down;
type = TopGhost;
},
{
origin = (0,12);
target = (0,0);
type = Stem;
},
{
origin = (1,4);
target = (0,5);
type = Stem;
}
);
layerId = "024B54ED-FF00-4B3B-B916-19AEEB47CF52";
shapes = (
{
closed = 1;
nodes = (
(260,0,l),
(260,291,l),
(568,291,ls),
(785,291,o),
(967,468,o),
(967,700,cs),
(967,929,o),
(791,1109,o),
(568,1109,cs),
(260,1109,l),
(260,1400,l),
(120,1400,l),
(120,0,l)
);
},
{
closed = 1;
nodes = (
(260,984,l),
(557,984,ls),
(705,984,o),
(827,865,o),
(827,707,cs),
(827,549,o),
(705,431,o),
(557,431,cs),
(260,431,l)
);
}
);
width = 1046.66667;
},
{
anchors = (
{
name = bottom;
pos = (326,0);
},
{
name = top;
pos = (523,1400);
}
);
hints = (
{
horizontal = 1;
origin = (0,12);
target = up;
type = BottomGhost;
},
{
horizontal = 1;
origin = (0,1);
target = (1,8);
type = Stem;
},
{
horizontal = 1;
origin = (1,0);
target = (0,9);
type = Stem;
},
{
horizontal = 1;
origin = (0,11);
target = down;
type = TopGhost;
},
{
origin = (0,12);
target = (0,0);
type = Stem;
},
{
origin = (1,4);
target = (0,5);
type = Stem;
}
);
layerId = "D546763A-DEF0-4334-A7AF-26D5912082F8";
shapes = (
{
closed = 1;
nodes = (
(63,0,l),
(104,291,l),
(412,291,ls),
(628,291,o),
(835,468,o),
(869,700,cs),
(901,929,o),
(751,1109,o),
(527,1109,cs),
(219,1109,l),
(260,1400,l),
(120,1400,l),
(-77,0,l)
);
},
{
closed = 1;
nodes = (
(201,984,l),
(498,984,ls),
(646,984,o),
(751,865,o),
(730,707,cs),
(707,549,o),
(569,431,o),
(421,431,cs),
(124,431,l)
);
}
);
width = 1046.66667;
}
);
metricRight = p;
unicode = 222;
},
{
glyphname = Q;
kernLeft = O;
kernRight = O;
lastChange = "2021-06-04 07:15:20 +0000";
layers = (
{
anchors = (
{
name = bottom;
pos = (792,0);
},
{
name = top;
pos = (792,1400);
}
);
hints = (
{
horizontal = 1;
origin = (0,13);
target = (1,17);
type = Stem;
},
{
horizontal = 1;
origin = (1,5);
target = (0,7);
type = Stem;
},
{
origin = (0,10);
target = (1,2);
type = Stem;
},
{
origin = (1,8);
target = (0,4);
type = Stem;
}
);
layerId = "10BC12B3-5274-42E3-B5BC-F74F362F0DF4";
shapes = (
{
closed = 1;
nodes = (
(1504,160,l),
(1350,314,l),
(1418,428,o),
(1460,562,o),
(1460,708,cs),
(1460,1108,o),
(1150,1434,o),
(770,1434,cs),
(390,1434,o),
(80,1108,o),
(80,708,cs),
(80,306,o),
(390,-18,o),
(770,-18,cs),
(908,-18,o),
(1036,24,o),
(1142,96,c),
(1292,-52,l)
);
},
{
closed = 1;
nodes = (
(556,282,o),
(380,472,o),
(380,708,cs),
(380,942,o),
(556,1134,o),
(770,1134,cs),
(984,1134,o),
(1160,942,o),
(1160,708,cs),
(1160,648,o),
(1148,590,o),
(1126,538,c),
(1052,612,l),
(840,400,l),
(924,316,l),
(876,294,o),
(824,282,o),
(770,282,cs)
);
}
);
width = 1584;
},
{
anchors = (
{
name = bottom;
pos = (769,0);
},
{
name = top;
pos = (769,1400);
}
);
hints = (
{
horizontal = 1;
origin = (0,17);
target = up;
type = BottomGhost;
},
{
horizontal = 1;
origin = (0,7);
target = (1,5);
type = Stem;
},
{
horizontal = 1;
origin = (0,13);
target = (1,17);
type = Stem;
},
{
origin = (0,10);
target = (1,2);
type = Stem;
},
{
origin = (1,8);
target = (0,4);
type = Stem;
}
);
layerId = "9AF1F7D9-E035-453E-B2A8-46DE370997D0";
shapes = (
{
closed = 1;
nodes = (
(1454,32,l),
(1276,208,l),
(1390,338,o),
(1458,510,o),
(1458,700,cs),
(1458,1100,o),
(1150,1426,o),
(770,1426,cs),
(388,1426,o),
(80,1100,o),
(80,700,cs),
(80,300,o),
(388,-26,o),
(770,-26,cs),
(948,-26,o),
(1112,46,o),
(1236,166,c),
(1412,-10,l)
);
},
{
closed = 1;
nodes = (
(424,34,o),
(140,334,o),
(140,700,cs),
(140,1058,o),
(418,1366,o),
(770,1366,cs),
(1114,1366,o),
(1398,1066,o),
(1398,700,cs),
(1398,536,o),
(1340,376,o),
(1234,252,c),
(966,520,l),
(924,476,l),
(1192,208,l),
(1082,98,o),
(924,34,o),
(770,34,cs)
);
}
);
width = 1538;
},
{
anchors = (
{
name = bottom;
pos = (572,0);
},
{
name = top;
pos = (769,1400);
}
);
hints = (
{
horizontal = 1;
origin = (0,17);
target = up;
type = BottomGhost;
},
{
horizontal = 1;
origin = (0,7);
target = (1,5);
type = Stem;
},
{
horizontal = 1;
origin = (0,13);
target = (1,17);
type = Stem;
},
{
origin = (0,10);
target = (1,2);
type = Stem;
},
{
origin = (1,8);
target = (0,4);
type = Stem;
}
);
layerId = m003;
shapes = (
{
closed = 1;
nodes = (
(1262,32,l),
(1108,208,l),
(1241,338,o),
(1333,510,o),
(1360,700,cs),
(1416,1100,o),
(1154,1426,o),
(774,1426,cs),
(392,1426,o),
(38,1100,o),
(-18,700,cs),
(-75,300,o),
(188,-26,o),
(570,-26,cs),
(748,-26,o),
(922,46,o),
(1063,166,c),
(1214,-10,l)
);
},
{
closed = 1;
nodes = (
(232,34,o),
(-10,334,o),
(42,700,cs),
(92,1058,o),
(413,1366,o),
(765,1366,cs),
(1109,1366,o),
(1351,1066,o),
(1300,700,cs),
(1277,536,o),
(1196,376,o),
(1073,252,c),
(842,520,l),
(794,476,l),
(1024,208,l),
(899,98,o),
(732,34,o),
(578,34,cs)
);
}
);
width = 1538;
},
{
anchors = (
{
name = bottom;
pos = (595,0);
},
{
name = top;
pos = (792,1400);
}
);
hints = (
{
horizontal = 1;
origin = (0,13);
target = (1,17);
type = Stem;
},
{
horizontal = 1;
origin = (1,5);
target = (0,7);
type = Stem;
},
{
origin = (0,10);
target = (1,2);
type = Stem;
},
{
origin = (1,8);
target = (0,4);
type = Stem;
}
);
layerId = m004;
shapes = (
{
closed = 1;
nodes = (
(1330,160,l),
(1197,314,l),
(1281,428,o),
(1342,562,o),
(1363,708,cs),
(1419,1108,o),
(1155,1434,o),
(775,1434,cs),
(395,1434,o),
(39,1108,o),
(-17,708,cs),
(-74,306,o),
(191,-18,o),
(571,-18,cs),
(709,-18,o),
(843,24,o),
(959,96,c),
(1088,-52,l)
);
},
{
closed = 1;
nodes = (
(399,282,o),
(250,472,o),
(283,708,cs),
(316,942,o),
(519,1134,o),
(733,1134,cs),
(947,1134,o),
(1096,942,o),
(1063,708,cs),
(1054,648,o),
(1034,590,o),
(1005,538,c),
(941,612,l),
(699,400,l),
(772,316,l),
(721,294,o),
(667,282,o),
(613,282,cs)
);
}
);
width = 1584;
},
{
anchors = (
{
name = bottom;
pos = (777,0);
},
{
name = top;
pos = (777,1400);
}
);
hints = (
{
horizontal = 1;
origin = (0,13);
target = (1,17);
type = Stem;
},
{
horizontal = 1;
origin = (1,5);
target = (0,7);
type = Stem;
},
{
origin = (0,10);
target = (1,2);
type = Stem;
},
{
origin = (1,8);
target = (0,4);
type = Stem;
}
);
layerId = "024B54ED-FF00-4B3B-B916-19AEEB47CF52";
shapes = (
{
closed = 1;
nodes = (
(1471,75,l),
(1301,243,l),
(1399,368,o),
(1459,527,o),
(1459,703,cs),
(1459,1103,o),
(1150,1429,o),
(770,1429,cs),
(389,1429,o),
(80,1103,o),
(80,703,cs),
(80,302,o),
(389,-23,o),
(770,-23,cs),
(935,-23,o),
(1087,39,o),
(1205,143,c),
(1372,-24,l)
);
},
{
closed = 1;
nodes = (
(468,117,o),
(220,380,o),
(220,703,cs),
(220,1019,o),
(464,1289,o),
(770,1289,cs),
(1071,1289,o),
(1319,1025,o),
(1319,703,cs),
(1319,573,o),
(1276,447,o),
(1198,347,c),
(995,551,l),
(896,451,l),
(1103,244,l),
(1013,163,o),
(891,117,o),
(770,117,cs)
);
}
);
width = 1553.33333;
},
{
anchors = (
{
name = bottom;
pos = (580,0);
},
{
name = top;
pos = (777,1400);
}
);
hints = (
{
horizontal = 1;
origin = (0,13);
target = (1,17);
type = Stem;
},
{
horizontal = 1;
origin = (1,5);
target = (0,7);
type = Stem;
},
{
origin = (0,10);
target = (1,2);
type = Stem;
},
{
origin = (1,8);
target = (0,4);
type = Stem;
}
);
layerId = "D546763A-DEF0-4334-A7AF-26D5912082F8";
shapes = (
{
closed = 1;
nodes = (
(1285,75,l),
(1138,243,l),
(1254,368,o),
(1336,527,o),
(1361,703,cs),
(1417,1103,o),
(1154,1429,o),
(774,1429,cs),
(393,1429,o),
(38,1103,o),
(-18,703,cs),
(-75,302,o),
(189,-23,o),
(570,-23,cs),
(735,-23,o),
(896,39,o),
(1028,143,c),
(1172,-24,l)
);
},
{
closed = 1;
nodes = (
(288,117,o),
(77,380,o),
(122,703,cs),
(167,1019,o),
(448,1289,o),
(754,1289,cs),
(1055,1289,o),
(1266,1025,o),
(1221,703,cs),
(1203,573,o),
(1142,447,o),
(1050,347,c),
(875,551,l),
(762,451,l),
(940,244,l),
(840,163,o),
(710,117,o),
(590,117,cs)
);
}
);
width = 1553.33333;
}
);
unicode = 81;
},
{
glyphname = R;
kernLeft = H;
kernRight = R;
lastChange = "2021-06-04 07:15:20 +0000";
layers = (
{
anchors = (
{
name = bottom;
pos = (633,0);
},
{
name = top;
pos = (633,1400);
}
);
hints = (
{
horizontal = 1;
origin = (0,13);
target = up;
type = BottomGhost;
},
{
horizontal = 1;
origin = (0,1);
target = (1,8);
type = Stem;
},
{
horizontal = 1;
origin = (0,12);
target = (1,0);
type = Stem;
},
{
origin = (0,13);
target = (0,0);
type = Stem;
},
{
origin = (1,4);
target = (0,8);
type = Stem;
}
);
layerId = "10BC12B3-5274-42E3-B5BC-F74F362F0DF4";
shapes = (
{
closed = 1;
nodes = (
(420,0,l),
(420,544,l),
(524,544,l),
(840,0,l),
(1186,0,l),
(854,572,l),
(1004,644,o),
(1100,792,o),
(1100,972,cs),
(1100,1206,o),
(920,1400,o),
(690,1400,cs),
(120,1400,l),
(120,0,l)
);
},
{
closed = 1;
nodes = (
(420,1144,l),
(654,1144,ls),
(734,1144,o),
(800,1076,o),
(800,994,cs),
(800,912,o),
(734,844,o),
(654,844,cs),
(420,844,l)
);
}
);
width = 1266;
},
{
anchors = (
{
name = bottom;
pos = (535,0);
},
{
name = top;
pos = (535,1400);
}
);
hints = (
{
horizontal = 1;
origin = (0,13);
target = up;
type = BottomGhost;
},
{
horizontal = 1;
origin = (0,1);
target = (1,8);
type = Stem;
},
{
horizontal = 1;
origin = (0,12);
target = (1,0);
type = Stem;
},
{
horizontal = 1;
origin = (0,5);
target = (1,8);
type = Stem;
},
{
origin = (0,13);
target = (0,0);
type = Stem;
},
{
origin = (1,4);
target = (0,8);
type = Stem;
}
);
layerId = "9AF1F7D9-E035-453E-B2A8-46DE370997D0";
shapes = (
{
closed = 1;
nodes = (
(210,0,l),
(210,600,l),
(542,600,l),
(890,0,l),
(960,0,l),
(612,602,l),
(810,618,o),
(970,782,o),
(970,1000,cs),
(970,1228,o),
(798,1400,o),
(578,1400,cs),
(150,1400,l),
(150,0,l)
);
},
{
closed = 1;
nodes = (
(210,1340,l),
(578,1340,ls),
(760,1340,o),
(910,1196,o),
(910,1000,cs),
(910,804,o),
(760,660,o),
(578,660,cs),
(210,660,l)
);
}
);
width = 1070;
},
{
anchors = (
{
name = bottom;
pos = (338,0);
},
{
name = top;
pos = (535,1400);
}
);
hints = (
{
horizontal = 1;
origin = (0,13);
target = up;
type = BottomGhost;
},
{
horizontal = 1;
origin = (0,1);
target = (1,8);
type = Stem;
},
{
horizontal = 1;
origin = (0,12);
target = (1,0);
type = Stem;
},
{
horizontal = 1;
origin = (0,5);
target = (1,8);
type = Stem;
},
{
origin = (0,13);
target = (0,0);
type = Stem;
},
{
origin = (1,4);
target = (0,8);
type = Stem;
}
);
layerId = m003;
shapes = (
{
closed = 1;
nodes = (
(13,0,l),
(98,600,l),
(430,600,l),
(693,0,l),
(763,0,l),
(500,602,l),
(700,618,o),
(883,782,o),
(914,1000,cs),
(946,1228,o),
(798,1400,o),
(578,1400,cs),
(150,1400,l),
(-47,0,l)
);
},
{
closed = 1;
nodes = (
(202,1340,l),
(570,1340,ls),
(752,1340,o),
(881,1196,o),
(854,1000,cs),
(826,804,o),
(656,660,o),
(474,660,cs),
(106,660,l)
);
}
);
width = 1070;
},
{
anchors = (
{
name = bottom;
pos = (436,0);
},
{
name = top;
pos = (633,1400);
}
);
hints = (
{
horizontal = 1;
origin = (0,13);
target = up;
type = BottomGhost;
},
{
horizontal = 1;
origin = (0,1);
target = (1,8);
type = Stem;
},
{
horizontal = 1;
origin = (0,12);
target = (1,0);
type = Stem;
},
{
origin = (0,13);
target = (0,0);
type = Stem;
},
{
origin = (1,4);
target = (0,8);
type = Stem;
}
);
layerId = m004;
shapes = (
{
closed = 1;
nodes = (
(223,0,l),
(300,544,l),
(404,544,l),
(643,0,l),
(989,0,l),
(738,572,l),
(898,644,o),
(1015,792,o),
(1040,972,cs),
(1073,1206,o),
(920,1400,o),
(690,1400,cs),
(120,1400,l),
(-77,0,l)
);
},
{
closed = 1;
nodes = (
(384,1144,l),
(618,1144,ls),
(698,1144,o),
(754,1076,o),
(743,994,cs),
(731,912,o),
(656,844,o),
(576,844,cs),
(342,844,l)
);
}
);
width = 1266;
},
{
anchors = (
{
name = bottom;
pos = (568,0);
},
{
name = top;
pos = (568,1400);
}
);
hints = (
{
horizontal = 1;
origin = (0,13);
target = up;
type = BottomGhost;
},
{
horizontal = 1;
origin = (0,1);
target = (1,8);
type = Stem;
},
{
horizontal = 1;
origin = (0,12);
target = (1,0);
type = Stem;
},
{
origin = (0,13);
target = (0,0);
type = Stem;
},
{
origin = (1,4);
target = (0,8);
type = Stem;
}
);
layerId = "024B54ED-FF00-4B3B-B916-19AEEB47CF52";
shapes = (
{
closed = 1;
nodes = (
(280,0,l),
(280,581,l),
(536,581,l),
(873,0,l),
(1035,0,l),
(693,592,l),
(875,627,o),
(1013,785,o),
(1013,991,cs),
(1013,1221,o),
(839,1400,o),
(615,1400,cs),
(140,1400,l),
(140,0,l)
);
},
{
closed = 1;
nodes = (
(280,1275,l),
(603,1275,ls),
(751,1275,o),
(873,1156,o),
(873,998,cs),
(873,840,o),
(751,721,o),
(603,721,cs),
(280,721,l)
);
}
);
width = 1135.33333;
},
{
anchors = (
{
name = bottom;
pos = (371,0);
},
{
name = top;
pos = (568,1400);
}
);
hints = (
{
horizontal = 1;
origin = (0,13);
target = up;
type = BottomGhost;
},
{
horizontal = 1;
origin = (0,1);
target = (1,8);
type = Stem;
},
{
horizontal = 1;
origin = (0,12);
target = (1,0);
type = Stem;
},
{
origin = (0,13);
target = (0,0);
type = Stem;
},
{
origin = (1,4);
target = (0,8);
type = Stem;
}
);
layerId = "D546763A-DEF0-4334-A7AF-26D5912082F8";
shapes = (
{
closed = 1;
nodes = (
(83,0,l),
(165,581,l),
(421,581,l),
(676,0,l),
(838,0,l),
(579,592,l),
(766,627,o),
(927,785,o),
(956,991,cs),
(988,1221,o),
(839,1400,o),
(615,1400,cs),
(140,1400,l),
(-57,0,l)
);
},
{
closed = 1;
nodes = (
(263,1275,l),
(586,1275,ls),
(734,1275,o),
(839,1156,o),
(817,998,cs),
(794,840,o),
(656,721,o),
(508,721,cs),
(185,721,l)
);
}
);
width = 1135.33333;
}
);
unicode = 82;
},
{
glyphname = S;
kernLeft = S;
kernRight = S;
lastChange = "2021-06-04 07:15:20 +0000";
layers = (
{
anchors = (
{
name = bottom;
pos = (632,0);
},
{
name = top;
pos = (632,1400);
}
);
hints = (
{
horizontal = 1;
origin = (0,37);
target = (0,30);
type = Stem;
},
{
horizontal = 1;
origin = (0,18);
target = (0,11);
type = Stem;
},
{
origin = (0,34);
target = (0,8);
type = Stem;
},
{
origin = (0,27);
target = (0,2);
type = Stem;
}
);
layerId = "10BC12B3-5274-42E3-B5BC-F74F362F0DF4";
shapes = (
{
closed = 1;
nodes = (
(918,-26,o),
(1164,150,o),
(1164,412,cs),
(1164,670,o),
(920,808,o),
(632,850,cs),
(506,868,o),
(400,880,o),
(400,988,cs),
(400,1066,o),
(516,1126,o),
(632,1124,cs),
(762,1124,o),
(862,1066,o),
(882,1008,c),
(1164,1110,l),
(1094,1308,o),
(868,1426,o),
(632,1426,cs),
(350,1426,o),
(100,1250,o),
(100,988,cs),
(100,714,o),
(328,594,o),
(632,550,cs),
(744,534,o),
(864,496,o),
(864,412,cs),
(864,330,o),
(752,274,o),
(632,274,cs),
(502,274,o),
(402,334,o),
(382,392,c),
(100,288,l),
(172,92,o),
(396,-26,o),
(632,-26,cs)
);
}
);
width = 1264;
},
{
anchors = (
{
name = bottom;
pos = (599,0);
},
{
name = top;
pos = (599,1400);
}
);
hints = (
{
horizontal = 1;
origin = (0,37);
target = (0,30);
type = Stem;
},
{
horizontal = 1;
origin = (0,18);
target = (0,11);
type = Stem;
},
{
origin = (0,21);
target = (0,8);
type = Stem;
},
{
origin = (0,27);
target = (0,2);
type = Stem;
}
);
layerId = "9AF1F7D9-E035-453E-B2A8-46DE370997D0";
shapes = (
{
closed = 1;
nodes = (
(858,-26,o),
(1088,120,o),
(1088,350,cs),
(1088,576,o),
(856,682,o),
(598,730,cs),
(352,776,o),
(170,826,o),
(170,1042,cs),
(170,1232,o),
(370,1358,o),
(598,1358,cs),
(780,1358,o),
(984,1276,o),
(1040,1118,c),
(1098,1138,l),
(1028,1320,o),
(806,1418,o),
(598,1418,cs),
(340,1418,o),
(110,1272,o),
(110,1042,cs),
(110,790,o),
(320,718,o),
(598,666,cs),
(814,626,o),
(1028,546,o),
(1028,350,cs),
(1028,158,o),
(824,34,o),
(598,34,cs),
(416,34,o),
(212,116,o),
(156,274,c),
(100,252,l),
(160,78,o),
(380,-26,o),
(598,-26,cs)
);
}
);
width = 1198;
},
{
anchors = (
{
name = bottom;
pos = (402,0);
},
{
name = top;
pos = (599,1400);
}
);
hints = (
{
horizontal = 1;
origin = (0,37);
target = (0,30);
type = Stem;
},
{
horizontal = 1;
origin = (0,18);
target = (0,11);
type = Stem;
},
{
origin = (0,21);
target = (0,8);
type = Stem;
},
{
origin = (0,27);
target = (0,2);
type = Stem;
}
);
layerId = m003;
shapes = (
{
closed = 1;
nodes = (
(658,-26,o),
(908,120,o),
(940,350,cs),
(972,576,o),
(755,682,o),
(504,730,cs),
(264,776,o),
(89,826,o),
(120,1042,cs),
(146,1232,o),
(364,1358,o),
(592,1358,cs),
(774,1358,o),
(967,1276,o),
(1000,1118,c),
(1061,1138,l),
(1017,1320,o),
(809,1418,o),
(601,1418,cs),
(343,1418,o),
(92,1272,o),
(60,1042,cs),
(24,790,o),
(224,718,o),
(495,666,cs),
(705,626,o),
(908,546,o),
(880,350,cs),
(853,158,o),
(632,34,o),
(406,34,cs),
(224,34,o),
(32,116,o),
(-2,274,c),
(-61,252,l),
(-26,78,o),
(180,-26,o),
(398,-26,cs)
);
}
);
width = 1198;
},
{
anchors = (
{
name = bottom;
pos = (435,0);
},
{
name = top;
pos = (632,1400);
}
);
hints = (
{
horizontal = 1;
origin = (0,37);
target = (0,30);
type = Stem;
},
{
horizontal = 1;
origin = (0,18);
target = (0,11);
type = Stem;
},
{
origin = (0,34);
target = (0,8);
type = Stem;
},
{
origin = (0,27);
target = (0,2);
type = Stem;
}
);
layerId = m004;
shapes = (
{
closed = 1;
nodes = (
(718,-26,o),
(988,150,o),
(1025,412,cs),
(1061,670,o),
(837,808,o),
(555,850,cs),
(431,868,o),
(327,880,o),
(342,988,cs),
(353,1066,o),
(477,1126,o),
(593,1124,cs),
(723,1124,o),
(815,1066,o),
(827,1008,c),
(1123,1110,l),
(1081,1308,o),
(872,1426,o),
(636,1426,cs),
(354,1426,o),
(79,1250,o),
(42,988,cs),
(4,714,o),
(215,594,o),
(513,550,cs),
(622,534,o),
(737,496,o),
(725,412,cs),
(714,330,o),
(594,274,o),
(474,274,cs),
(344,274,o),
(252,334,o),
(240,392,c),
(-56,288,l),
(-12,92,o),
(196,-26,o),
(432,-26,cs)
);
}
);
width = 1264;
},
{
anchors = (
{
name = bottom;
pos = (610,0);
},
{
name = top;
pos = (610,1400);
}
);
hints = (
{
horizontal = 1;
origin = (0,37);
target = (0,30);
type = Stem;
},
{
horizontal = 1;
origin = (0,18);
target = (0,11);
type = Stem;
},
{
origin = (0,34);
target = (0,8);
type = Stem;
},
{
origin = (0,27);
target = (0,2);
type = Stem;
}
);
layerId = "024B54ED-FF00-4B3B-B916-19AEEB47CF52";
shapes = (
{
closed = 1;
nodes = (
(878,-26,o),
(1113,130,o),
(1113,371,cs),
(1113,607,o),
(877,724,o),
(609,770,cs),
(403,807,o),
(247,844,o),
(247,1024,cs),
(247,1177,o),
(419,1281,o),
(609,1280,cs),
(774,1280,o),
(943,1206,o),
(987,1081,c),
(1120,1129,l),
(1050,1316,o),
(827,1421,o),
(609,1421,cs),
(343,1421,o),
(107,1265,o),
(107,1024,cs),
(107,765,o),
(323,677,o),
(609,627,cs),
(791,595,o),
(973,529,o),
(973,371,cs),
(973,215,o),
(800,114,o),
(609,114,cs),
(445,114,o),
(275,189,o),
(231,313,c),
(100,264,l),
(164,83,o),
(385,-26,o),
(609,-26,cs)
);
}
);
width = 1220;
},
{
anchors = (
{
name = bottom;
pos = (413,0);
},
{
name = top;
pos = (610,1400);
}
);
hints = (
{
horizontal = 1;
origin = (0,37);
target = (0,30);
type = Stem;
},
{
horizontal = 1;
origin = (0,18);
target = (0,11);
type = Stem;
},
{
origin = (0,34);
target = (0,8);
type = Stem;
},
{
origin = (0,27);
target = (0,2);
type = Stem;
}
);
layerId = "D546763A-DEF0-4334-A7AF-26D5912082F8";
shapes = (
{
closed = 1;
nodes = (
(678,-26,o),
(935,130,o),
(968,371,cs),
(1002,607,o),
(782,724,o),
(521,770,cs),
(320,807,o),
(168,844,o),
(194,1024,cs),
(215,1177,o),
(402,1281,o),
(592,1280,cs),
(757,1280,o),
(916,1206,o),
(942,1081,c),
(1082,1129,l),
(1038,1316,o),
(830,1421,o),
(613,1421,cs),
(347,1421,o),
(88,1265,o),
(54,1024,cs),
(17,765,o),
(221,677,o),
(501,627,cs),
(677,595,o),
(851,529,o),
(828,371,cs),
(807,215,o),
(619,114,o),
(429,114,cs),
(264,114,o),
(105,189,o),
(79,313,c),
(-59,264,l),
(-21,83,o),
(185,-26,o),
(409,-26,cs)
);
}
);
width = 1220;
}
);
unicode = 83;
},
{
glyphname = Germandbls;
kernLeft = Germandbls;
kernRight = Germandbls;
lastChange = "2021-06-04 07:15:20 +0000";
layers = (
{
anchors = (
{
name = bottom;
pos = (623,0);
},
{
name = top;
pos = (623,1400);
}
);
hints = (
{
horizontal = 1;
origin = (0,37);
target = (0,19);
type = Stem;
},
{
horizontal = 1;
place = (594, 144);
place = (594, 144);
type = Stem;
},
{
horizontal = 1;
origin = (0,33);
target = (0,4);
type = Stem;
},
{
origin = (0,37);
target = (0,0);
type = Stem;
},
{
origin = (0,7);
target = (0,30);
type = Stem;
},
{
origin = (0,15);
target = (0,24);
type = Stem;
}
);
layerId = "10BC12B3-5274-42E3-B5BC-F74F362F0DF4";
shapes = (
{
closed = 1;
nodes = (
(420,0,l),
(420,950,ls),
(420,1058,o),
(508,1144,o),
(594,1144,cs),
(680,1144,o),
(758,1148,o),
(758,1074,cs),
(758,1040,o),
(590,858,o),
(590,704,cs),
(590,594,l),
(672,594,ls),
(776,594,o),
(920,556,o),
(920,424,cs),
(920,292,o),
(776,254,o),
(672,254,cs),
(590,254,l),
(650,0,l),
(704,0,ls),
(936,0,o),
(1186,150,o),
(1186,422,cs),
(1186,586,o),
(1010,770,o),
(832,734,c),
(974,906,o),
(1058,972,o),
(1058,1068,cs),
(1058,1248,o),
(858,1400,o),
(650,1400,cs),
(358,1400,o),
(120,1162,o),
(120,870,cs),
(120,0,l)
);
}
);
width = 1246;
},
{
anchors = (
{
name = bottom;
pos = (535,0);
},
{
name = top;
pos = (535,1400);
}
);
hints = (
{
horizontal = 1;
origin = (0,37);
target = (0,19);
type = Stem;
},
{
horizontal = 1;
origin = (0,11);
target = (0,27);
type = Stem;
},
{
horizontal = 1;
origin = (0,4);
target = (0,33);
type = Stem;
},
{
origin = (0,37);
target = (0,0);
type = Stem;
},
{
origin = (0,7);
target = (0,30);
type = Stem;
},
{
origin = (0,15);
target = (0,24);
type = Stem;
}
);
layerId = "9AF1F7D9-E035-453E-B2A8-46DE370997D0";
shapes = (
{
closed = 1;
nodes = (
(180,0,l),
(180,994,ls),
(180,1184,o),
(332,1338,o),
(522,1338,cs),
(672,1338,o),
(804,1282,o),
(806,1152,cs),
(808,1032,o),
(510,754,o),
(518,694,cs),
(522,662,l),
(588,662,ls),
(754,662,o),
(950,568,o),
(950,364,cs),
(950,156,o),
(756,60,o),
(590,60,cs),
(496,60,l),
(516,0,l),
(590,0,ls),
(788,0,o),
(1010,122,o),
(1010,362,cs),
(1010,588,o),
(802,740,o),
(602,720,c),
(800,992,o),
(876,1070,o),
(876,1152,cs),
(876,1320,o),
(716,1398,o),
(526,1398,cs),
(302,1398,o),
(120,1216,o),
(120,992,cs),
(120,0,l)
);
}
);
width = 1070;
},
{
anchors = (
{
name = bottom;
pos = (338,0);
},
{
name = top;
pos = (535,1400);
}
);
hints = (
{
horizontal = 1;
origin = (0,37);
target = (0,19);
type = Stem;
},
{
horizontal = 1;
origin = (0,11);
target = (0,27);
type = Stem;
},
{
horizontal = 1;
origin = (0,4);
target = (0,33);
type = Stem;
},
{
origin = (0,37);
target = (0,0);
type = Stem;
},
{
origin = (0,7);
target = (0,30);
type = Stem;
},
{
origin = (0,15);
target = (0,24);
type = Stem;
}
);
layerId = m003;
shapes = (
{
closed = 1;
nodes = (
(-17,0,l),
(123,994,ls),
(150,1184,o),
(323,1338,o),
(513,1338,cs),
(663,1338,o),
(787,1282,o),
(771,1152,cs),
(756,1032,o),
(419,754,o),
(419,694,cs),
(418,662,l),
(484,662,ls),
(650,662,o),
(833,568,o),
(804,364,cs),
(775,156,o),
(568,60,o),
(402,60,cs),
(308,60,l),
(319,0,l),
(393,0,ls),
(591,0,o),
(830,122,o),
(864,362,cs),
(896,588,o),
(709,740,o),
(506,720,c),
(743,992,o),
(830,1070,o),
(841,1152,cs),
(865,1320,o),
(716,1398,o),
(526,1398,cs),
(302,1398,o),
(94,1216,o),
(63,992,cs),
(-77,0,l)
);
}
);
width = 1070;
},
{
anchors = (
{
name = bottom;
pos = (426,0);
},
{
name = top;
pos = (623,1400);
}
);
hints = (
{
horizontal = 1;
origin = (0,37);
target = (0,19);
type = Stem;
},
{
horizontal = 1;
place = (397, -53);
place = (397, -53);
type = Stem;
},
{
horizontal = 1;
origin = (0,33);
target = (0,4);
type = Stem;
},
{
origin = (0,37);
target = (0,0);
type = Stem;
},
{
origin = (0,7);
target = (0,30);
type = Stem;
},
{
origin = (0,15);
target = (0,24);
type = Stem;
}
);
layerId = m004;
shapes = (
{
closed = 1;
nodes = (
(223,0,l),
(357,950,ls),
(372,1058,o),
(472,1144,o),
(558,1144,cs),
(644,1144,o),
(723,1148,o),
(712,1074,cs),
(707,1040,o),
(514,858,o),
(492,704,cs),
(477,594,l),
(559,594,ls),
(663,594,o),
(801,556,o),
(783,424,cs),
(764,292,o),
(615,254,o),
(511,254,cs),
(429,254,l),
(453,0,l),
(507,0,ls),
(739,0,o),
(1010,150,o),
(1049,422,cs),
(1072,586,o),
(921,770,o),
(738,734,c),
(905,906,o),
(998,972,o),
(1011,1068,cs),
(1037,1248,o),
(858,1400,o),
(650,1400,cs),
(358,1400,o),
(87,1162,o),
(46,870,cs),
(-77,0,l)
);
}
);
width = 1246;
},
{
anchors = (
{
name = bottom;
pos = (564,0);
},
{
name = top;
pos = (564,1400);
}
);
hints = (
{
horizontal = 1;
origin = (0,37);
target = (0,19);
type = Stem;
},
{
horizontal = 1;
place = (639, 2000);
place = (639, 2000);
type = Stem;
},
{
horizontal = 1;
origin = (0,33);
target = (0,4);
type = Stem;
},
{
origin = (0,37);
target = (0,0);
type = Stem;
},
{
origin = (0,7);
target = (0,30);
type = Stem;
},
{
origin = (0,15);
target = (0,24);
type = Stem;
}
);
layerId = "024B54ED-FF00-4B3B-B916-19AEEB47CF52";
shapes = (
{
closed = 1;
nodes = (
(260,0,l),
(260,979,ls),
(260,1142,o),
(391,1273,o),
(546,1273,cs),
(675,1273,o),
(789,1237,o),
(790,1126,cs),
(791,1035,o),
(537,789,o),
(542,697,cs),
(545,639,l),
(616,639,ls),
(761,639,o),
(940,564,o),
(940,384,cs),
(940,201,o),
(763,125,o),
(617,125,cs),
(527,125,l),
(561,0,l),
(628,0,ls),
(837,0,o),
(1069,131,o),
(1069,382,cs),
(1069,587,o),
(871,750,o),
(679,725,c),
(858,963,o),
(937,1037,o),
(937,1124,cs),
(937,1296,o),
(763,1399,o),
(567,1399,cs),
(321,1399,o),
(120,1198,o),
(120,951,cs),
(120,0,l)
);
}
);
width = 1128.66667;
},
{
anchors = (
{
name = bottom;
pos = (367,0);
},
{
name = top;
pos = (564,1400);
}
);
hints = (
{
horizontal = 1;
origin = (0,37);
target = (0,19);
type = Stem;
},
{
horizontal = 1;
place = (574, 21);
place = (574, 21);
type = Stem;
},
{
horizontal = 1;
origin = (0,33);
target = (0,4);
type = Stem;
},
{
origin = (0,37);
target = (0,0);
type = Stem;
},
{
origin = (0,7);
target = (0,30);
type = Stem;
},
{
origin = (0,15);
target = (0,24);
type = Stem;
}
);
layerId = "D546763A-DEF0-4334-A7AF-26D5912082F8";
shapes = (
{
closed = 1;
nodes = (
(63,0,l),
(201,979,ls),
(224,1142,o),
(373,1273,o),
(528,1273,cs),
(657,1273,o),
(766,1237,o),
(751,1126,cs),
(740,1035,o),
(451,789,o),
(443,697,cs),
(438,639,l),
(509,639,ls),
(654,639,o),
(822,564,o),
(797,384,cs),
(771,201,o),
(584,125,o),
(438,125,cs),
(348,125,l),
(364,0,l),
(431,0,ls),
(640,0,o),
(890,131,o),
(926,382,cs),
(955,587,o),
(780,750,o),
(583,725,c),
(797,963,o),
(886,1037,o),
(898,1124,cs),
(922,1296,o),
(763,1399,o),
(567,1399,cs),
(321,1399,o),
(92,1198,o),
(57,951,cs),
(-77,0,l)
);
}
);
width = 1128.66667;
}
);
unicode = 7838;
},
{
glyphname = T;
kernLeft = T;
kernRight = T;
lastChange = "2021-06-04 07:15:20 +0000";
layers = (
{
anchors = (
{
name = bottom;
pos = (630,0);
},
{
name = center;
pos = (630,700);
},
{
name = top;
pos = (630,1400);
}
);
hints = (
{
horizontal = 1;
origin = (0,3);
target = up;
type = BottomGhost;
},
{
horizontal = 1;
origin = (0,0);
target = (0,1);
type = Stem;
},
{
origin = (0,3);
target = (0,4);
type = Stem;
}
);
layerId = "10BC12B3-5274-42E3-B5BC-F74F362F0DF4";
shapes = (
{
closed = 1;
nodes = (
(80,1400,l),
(80,1100,l),
(480,1100,l),
(480,0,l),
(780,0,l),
(780,1100,l),
(1180,1100,l),
(1180,1400,l)
);
}
);
width = 1260;
},
{
anchors = (
{
name = bottom;
pos = (629,0);
},
{
name = center;
pos = (629,700);
},
{
name = top;
pos = (629,1400);
}
);
hints = (
{
horizontal = 1;
origin = (0,3);
target = up;
type = BottomGhost;
},
{
horizontal = 1;
origin = (0,0);
target = (0,1);
type = Stem;
},
{
origin = (0,3);
target = (0,4);
type = Stem;
}
);
layerId = "9AF1F7D9-E035-453E-B2A8-46DE370997D0";
shapes = (
{
closed = 1;
nodes = (
(80,1400,l),
(80,1340,l),
(598,1340,l),
(598,0,l),
(658,0,l),
(658,1340,l),
(1178,1340,l),
(1178,1400,l)
);
}
);
width = 1258;
},
{
anchors = (
{
name = bottom;
pos = (432,0);
},
{
name = center;
pos = (531,700);
},
{
name = top;
pos = (629,1400);
}
);
hints = (
{
horizontal = 1;
origin = (0,3);
target = up;
type = BottomGhost;
},
{
horizontal = 1;
origin = (0,0);
target = (0,1);
type = Stem;
},
{
origin = (0,3);
target = (0,4);
type = Stem;
}
);
layerId = m003;
shapes = (
{
closed = 1;
nodes = (
(80,1400,l),
(72,1340,l),
(590,1340,l),
(401,0,l),
(461,0,l),
(650,1340,l),
(1170,1340,l),
(1178,1400,l)
);
}
);
width = 1258;
},
{
anchors = (
{
name = bottom;
pos = (433,0);
},
{
name = center;
pos = (532,700);
},
{
name = top;
pos = (630,1400);
}
);
hints = (
{
horizontal = 1;
origin = (0,3);
target = up;
type = BottomGhost;
},
{
horizontal = 1;
origin = (0,0);
target = (0,1);
type = Stem;
},
{
origin = (0,3);
target = (0,4);
type = Stem;
}
);
layerId = m004;
shapes = (
{
closed = 1;
nodes = (
(80,1400,l),
(38,1100,l),
(438,1100,l),
(283,0,l),
(583,0,l),
(738,1100,l),
(1138,1100,l),
(1180,1400,l)
);
}
);
width = 1260;
},
{
anchors = (
{
name = bottom;
pos = (629,0);
},
{
name = center;
pos = (629,700);
},
{
name = top;
pos = (629,1400);
}
);
hints = (
{
horizontal = 1;
origin = (0,3);
target = up;
type = BottomGhost;
},
{
horizontal = 1;
origin = (0,0);
target = (0,1);
type = Stem;
},
{
origin = (0,3);
target = (0,4);
type = Stem;
}
);
layerId = "024B54ED-FF00-4B3B-B916-19AEEB47CF52";
shapes = (
{
closed = 1;
nodes = (
(80,1400,l),
(80,1260,l),
(559,1260,l),
(559,0,l),
(699,0,l),
(699,1260,l),
(1179,1260,l),
(1179,1400,l)
);
}
);
width = 1258.66667;
},
{
anchors = (
{
name = bottom;
pos = (432,0);
},
{
name = center;
pos = (531,700);
},
{
name = top;
pos = (629,1400);
}
);
hints = (
{
horizontal = 1;
origin = (0,3);
target = up;
type = BottomGhost;
},
{
horizontal = 1;
origin = (0,0);
target = (0,1);
type = Stem;
},
{
origin = (0,3);
target = (0,4);
type = Stem;
}
);
layerId = "D546763A-DEF0-4334-A7AF-26D5912082F8";
shapes = (
{
closed = 1;
nodes = (
(80,1400,l),
(61,1260,l),
(539,1260,l),
(362,0,l),
(502,0,l),
(679,1260,l),
(1159,1260,l),
(1179,1400,l)
);
}
);
width = 1258.66667;
}
);
unicode = 84;
},
{
glyphname = U;
kernLeft = U;
kernRight = U;
lastChange = "2021-06-04 07:15:20 +0000";
layers = (
{
anchors = (
{
name = bottom;
pos = (689,0);
},
{
name = ogonek;
pos = (1240,10);
},
{
name = top;
pos = (689,1400);
},
{
name = topright;
pos = (1358,1400);
}
);
hints = (
{
horizontal = 1;
origin = (0,17);
target = (0,8);
type = Stem;
},
{
horizontal = 1;
origin = (0,13);
target = down;
type = TopGhost;
},
{
origin = (0,14);
target = (0,11);
type = Stem;
},
{
origin = (0,5);
target = (0,2);
type = Stem;
}
);
layerId = "10BC12B3-5274-42E3-B5BC-F74F362F0DF4";
shapes = (
{
closed = 1;
nodes = (
(1026,-26,o),
(1258,246,o),
(1258,584,cs),
(1258,1400,l),
(958,1400,l),
(958,584,ls),
(958,412,o),
(862,274,o),
(690,274,cs),
(520,274,o),
(420,414,o),
(420,584,cs),
(420,1400,l),
(120,1400,l),
(120,584,ls),
(120,246,o),
(354,-26,o),
(690,-26,cs)
);
}
);
width = 1378;
},
{
anchors = (
{
name = bottom;
pos = (650,0);
},
{
name = ogonek;
pos = (1170,10);
},
{
name = top;
pos = (650,1400);
},
{
name = topright;
pos = (1280,1400);
}
);
hints = (
{
horizontal = 1;
origin = (0,17);
target = (0,8);
type = Stem;
},
{
horizontal = 1;
origin = (0,13);
target = down;
type = TopGhost;
},
{
origin = (0,14);
target = (0,11);
type = Stem;
},
{
origin = (0,5);
target = (0,2);
type = Stem;
}
);
layerId = "9AF1F7D9-E035-453E-B2A8-46DE370997D0";
shapes = (
{
closed = 1;
nodes = (
(986,-26,o),
(1180,246,o),
(1180,584,cs),
(1180,1400,l),
(1120,1400,l),
(1120,584,ls),
(1120,288,o),
(958,34,o),
(650,34,cs),
(346,34,o),
(180,284,o),
(180,584,cs),
(180,1400,l),
(120,1400,l),
(120,584,ls),
(120,246,o),
(314,-26,o),
(650,-26,cs)
);
}
);
width = 1300;
},
{
anchors = (
{
name = bottom;
pos = (453,0);
},
{
name = ogonek;
pos = (975,10);
},
{
name = top;
pos = (650,1400);
},
{
name = topright;
pos = (1280,1400);
}
);
hints = (
{
horizontal = 1;
origin = (0,17);
target = (0,8);
type = Stem;
},
{
horizontal = 1;
origin = (0,13);
target = down;
type = TopGhost;
},
{
origin = (0,14);
target = (0,11);
type = Stem;
},
{
origin = (0,5);
target = (0,2);
type = Stem;
}
);
layerId = m003;
shapes = (
{
closed = 1;
nodes = (
(786,-26,o),
(1018,246,o),
(1065,584,cs),
(1180,1400,l),
(1120,1400,l),
(1005,584,ls),
(964,288,o),
(766,34,o),
(458,34,cs),
(154,34,o),
(23,284,o),
(65,584,cs),
(180,1400,l),
(120,1400,l),
(5,584,ls),
(-42,246,o),
(114,-26,o),
(450,-26,cs)
);
}
);
width = 1300;
},
{
anchors = (
{
name = bottom;
pos = (492,0);
},
{
name = ogonek;
pos = (1045,10);
},
{
name = top;
pos = (689,1400);
},
{
name = topright;
pos = (1358,1400);
}
);
hints = (
{
horizontal = 1;
origin = (0,17);
target = (0,8);
type = Stem;
},
{
horizontal = 1;
origin = (0,13);
target = down;
type = TopGhost;
},
{
origin = (0,14);
target = (0,11);
type = Stem;
},
{
origin = (0,5);
target = (0,2);
type = Stem;
}
);
layerId = m004;
shapes = (
{
closed = 1;
nodes = (
(826,-26,o),
(1096,246,o),
(1143,584,cs),
(1258,1400,l),
(958,1400,l),
(843,584,ls),
(819,412,o),
(704,274,o),
(532,274,cs),
(362,274,o),
(281,414,o),
(305,584,cs),
(420,1400,l),
(120,1400,l),
(5,584,ls),
(-42,246,o),
(154,-26,o),
(490,-26,cs)
);
}
);
width = 1378;
},
{
anchors = (
{
name = bottom;
pos = (663,0);
},
{
name = ogonek;
pos = (1193,10);
},
{
name = top;
pos = (663,1400);
},
{
name = topright;
pos = (1306,1400);
}
);
hints = (
{
horizontal = 1;
origin = (0,17);
target = (0,8);
type = Stem;
},
{
horizontal = 1;
origin = (0,13);
target = down;
type = TopGhost;
},
{
origin = (0,14);
target = (0,11);
type = Stem;
},
{
origin = (0,5);
target = (0,2);
type = Stem;
}
);
layerId = "024B54ED-FF00-4B3B-B916-19AEEB47CF52";
shapes = (
{
closed = 1;
nodes = (
(999,-26,o),
(1206,246,o),
(1206,584,cs),
(1206,1400,l),
(1066,1400,l),
(1066,584,ls),
(1066,329,o),
(926,114,o),
(663,114,cs),
(404,114,o),
(260,327,o),
(260,584,cs),
(260,1400,l),
(120,1400,l),
(120,584,ls),
(120,246,o),
(327,-26,o),
(663,-26,cs)
);
}
);
width = 1326;
},
{
anchors = (
{
name = bottom;
pos = (466,0);
},
{
name = ogonek;
pos = (998,10);
},
{
name = top;
pos = (663,1400);
},
{
name = topright;
pos = (1306,1400);
}
);
hints = (
{
horizontal = 1;
origin = (0,17);
target = (0,8);
type = Stem;
},
{
horizontal = 1;
origin = (0,13);
target = down;
type = TopGhost;
},
{
origin = (0,14);
target = (0,11);
type = Stem;
},
{
origin = (0,5);
target = (0,2);
type = Stem;
}
);
layerId = "D546763A-DEF0-4334-A7AF-26D5912082F8";
shapes = (
{
closed = 1;
nodes = (
(799,-26,o),
(1044,246,o),
(1091,584,cs),
(1206,1400,l),
(1066,1400,l),
(951,584,ls),
(916,329,o),
(745,114,o),
(483,114,cs),
(223,114,o),
(109,327,o),
(145,584,cs),
(260,1400,l),
(120,1400,l),
(5,584,ls),
(-42,246,o),
(127,-26,o),
(463,-26,cs)
);
}
);
width = 1326;
}
);
unicode = 85;
},
{
glyphname = V;
kernLeft = W;
kernRight = W;
lastChange = "2021-06-04 07:15:20 +0000";
layers = (
{
anchors = (
{
name = bottom;
pos = (722,0);
},
{
name = top;
pos = (722,1400);
}
);
hints = (
{
horizontal = 1;
origin = (0,6);
target = up;
type = BottomGhost;
},
{
horizontal = 1;
origin = (0,5);
target = down;
type = TopGhost;
}
);
layerId = "10BC12B3-5274-42E3-B5BC-F74F362F0DF4";
shapes = (
{
closed = 1;
nodes = (
(916,0,l),
(1424,1400,l),
(1106,1400,l),
(722,344,l),
(338,1400,l),
(20,1400,l),
(528,0,l)
);
}
);
width = 1444;
},
{
anchors = (
{
name = bottom;
pos = (559,0);
},
{
name = top;
pos = (559,1400);
}
);
hints = (
{
horizontal = 1;
origin = (0,6);
target = up;
type = BottomGhost;
},
{
horizontal = 1;
origin = (0,5);
target = down;
type = TopGhost;
}
);
layerId = "9AF1F7D9-E035-453E-B2A8-46DE370997D0";
shapes = (
{
closed = 1;
nodes = (
(588,0,l),
(1098,1400,l),
(1034,1400,l),
(558,92,l),
(84,1400,l),
(20,1400,l),
(528,0,l)
);
}
);
width = 1118;
},
{
anchors = (
{
name = bottom;
pos = (362,0);
},
{
name = top;
pos = (559,1400);
}
);
hints = (
{
horizontal = 1;
origin = (0,6);
target = up;
type = BottomGhost;
},
{
horizontal = 1;
origin = (0,5);
target = down;
type = TopGhost;
}
);
layerId = m003;
shapes = (
{
closed = 1;
nodes = (
(391,0,l),
(1098,1400,l),
(1034,1400,l),
(374,92,l),
(84,1400,l),
(20,1400,l),
(331,0,l)
);
}
);
width = 1118;
},
{
anchors = (
{
name = bottom;
pos = (525,0);
},
{
name = top;
pos = (722,1400);
}
);
hints = (
{
horizontal = 1;
origin = (0,6);
target = up;
type = BottomGhost;
},
{
horizontal = 1;
origin = (0,5);
target = down;
type = TopGhost;
}
);
layerId = m004;
shapes = (
{
closed = 1;
nodes = (
(719,0,l),
(1424,1400,l),
(1106,1400,l),
(574,344,l),
(338,1400,l),
(20,1400,l),
(331,0,l)
);
}
);
width = 1444;
},
{
anchors = (
{
name = bottom;
pos = (613,0);
},
{
name = top;
pos = (613,1400);
}
);
hints = (
{
horizontal = 1;
origin = (0,6);
target = up;
type = BottomGhost;
},
{
horizontal = 1;
origin = (0,5);
target = down;
type = TopGhost;
}
);
layerId = "024B54ED-FF00-4B3B-B916-19AEEB47CF52";
shapes = (
{
closed = 1;
nodes = (
(697,0,l),
(1207,1400,l),
(1058,1400,l),
(613,176,l),
(169,1400,l),
(20,1400,l),
(528,0,l)
);
}
);
width = 1226.66667;
},
{
anchors = (
{
name = bottom;
pos = (416,0);
},
{
name = top;
pos = (613,1400);
}
);
hints = (
{
horizontal = 1;
origin = (0,6);
target = up;
type = BottomGhost;
},
{
horizontal = 1;
origin = (0,5);
target = down;
type = TopGhost;
}
);
layerId = "D546763A-DEF0-4334-A7AF-26D5912082F8";
shapes = (
{
closed = 1;
nodes = (
(500,0,l),
(1207,1400,l),
(1058,1400,l),
(441,176,l),
(169,1400,l),
(20,1400,l),
(331,0,l)
);
}
);
width = 1226.66667;
}
);
unicode = 86;
},
{
glyphname = W;
kernLeft = W;
kernRight = W;
lastChange = "2021-06-04 07:15:20 +0000";
layers = (
{
anchors = (
{
name = bottom;
pos = (980,0);
},
{
name = top;
pos = (980,1400);
}
);
hints = (
{
horizontal = 1;
origin = (0,12);
target = up;
type = BottomGhost;
},
{
horizontal = 1;
origin = (0,11);
target = down;
type = TopGhost;
}
);
layerId = "10BC12B3-5274-42E3-B5BC-F74F362F0DF4";
shapes = (
{
closed = 1;
nodes = (
(796,0,l),
(980,726,l),
(1166,0,l),
(1504,0,l),
(1860,1400,l),
(1550,1400,l),
(1334,552,l),
(1118,1400,l),
(842,1400,l),
(626,552,l),
(410,1400,l),
(100,1400,l),
(458,0,l)
);
}
);
width = 1960;
},
{
anchors = (
{
name = bottom;
pos = (856,0);
},
{
name = top;
pos = (856,1400);
}
);
hints = (
{
horizontal = 1;
origin = (0,12);
target = (0,9);
type = Stem;
},
{
horizontal = 1;
origin = (0,11);
target = down;
type = TopGhost;
}
);
layerId = "9AF1F7D9-E035-453E-B2A8-46DE370997D0";
shapes = (
{
closed = 1;
nodes = (
(536,0,l),
(856,1250,l),
(1176,0,l),
(1256,0,l),
(1612,1400,l),
(1550,1400,l),
(1216,86,l),
(880,1400,l),
(832,1400,l),
(498,86,l),
(162,1400,l),
(100,1400,l),
(458,0,l)
);
}
);
width = 1712;
},
{
anchors = (
{
name = bottom;
pos = (659,0);
},
{
name = top;
pos = (856,1400);
}
);
hints = (
{
horizontal = 1;
origin = (0,12);
target = (0,9);
type = Stem;
},
{
horizontal = 1;
origin = (0,11);
target = down;
type = TopGhost;
}
);
layerId = m003;
shapes = (
{
closed = 1;
nodes = (
(339,0,l),
(835,1250,l),
(979,0,l),
(1059,0,l),
(1612,1400,l),
(1550,1400,l),
(1031,86,l),
(880,1400,l),
(832,1400,l),
(313,86,l),
(162,1400,l),
(100,1400,l),
(261,0,l)
);
}
);
width = 1712;
},
{
anchors = (
{
name = bottom;
pos = (783,0);
},
{
name = top;
pos = (980,1400);
}
);
hints = (
{
horizontal = 1;
origin = (0,12);
target = up;
type = BottomGhost;
},
{
horizontal = 1;
origin = (0,11);
target = down;
type = TopGhost;
}
);
layerId = m004;
shapes = (
{
closed = 1;
nodes = (
(599,0,l),
(885,726,l),
(969,0,l),
(1307,0,l),
(1860,1400,l),
(1550,1400,l),
(1215,552,l),
(1118,1400,l),
(842,1400,l),
(507,552,l),
(410,1400,l),
(100,1400,l),
(261,0,l)
);
}
);
width = 1960;
},
{
anchors = (
{
name = bottom;
pos = (897,0);
},
{
name = top;
pos = (897,1400);
}
);
hints = (
{
horizontal = 1;
origin = (0,12);
target = up;
type = BottomGhost;
},
{
horizontal = 1;
origin = (0,11);
target = down;
type = TopGhost;
}
);
layerId = "024B54ED-FF00-4B3B-B916-19AEEB47CF52";
shapes = (
{
closed = 1;
nodes = (
(623,0,l),
(897,1075,l),
(1173,0,l),
(1339,0,l),
(1695,1400,l),
(1550,1400,l),
(1255,241,l),
(959,1400,l),
(835,1400,l),
(541,241,l),
(245,1400,l),
(100,1400,l),
(458,0,l)
);
}
);
width = 1794.66667;
},
{
anchors = (
{
name = bottom;
pos = (700,0);
},
{
name = top;
pos = (897,1400);
}
);
hints = (
{
horizontal = 1;
origin = (0,12);
target = up;
type = BottomGhost;
},
{
horizontal = 1;
origin = (0,11);
target = down;
type = TopGhost;
}
);
layerId = "D546763A-DEF0-4334-A7AF-26D5912082F8";
shapes = (
{
closed = 1;
nodes = (
(426,0,l),
(852,1075,l),
(976,0,l),
(1142,0,l),
(1695,1400,l),
(1550,1400,l),
(1092,241,l),
(959,1400,l),
(835,1400,l),
(378,241,l),
(245,1400,l),
(100,1400,l),
(261,0,l)
);
}
);
width = 1794.66667;
}
);
unicode = 87;
},
{
glyphname = X;
kernLeft = X;
kernRight = X;
lastChange = "2021-06-04 07:15:20 +0000";
layers = (
{
anchors = (
{
name = bottom;
pos = (758,0);
},
{
name = top;
pos = (758,1400);
}
);
hints = (
{
horizontal = 1;
origin = (0,11);
target = up;
type = BottomGhost;
},
{
horizontal = 1;
origin = (0,9);
target = down;
type = TopGhost;
}
);
layerId = "10BC12B3-5274-42E3-B5BC-F74F362F0DF4";
shapes = (
{
closed = 1;
nodes = (
(432,0,l),
(758,448,l),
(1084,0,l),
(1456,0,l),
(944,704,l),
(1450,1400,l),
(1080,1400,l),
(758,958,l),
(436,1400,l),
(66,1400,l),
(572,704,l),
(60,0,l)
);
}
);
width = 1516;
},
{
anchors = (
{
name = bottom;
pos = (610,0);
},
{
name = top;
pos = (610,1400);
}
);
hints = (
{
horizontal = 1;
origin = (0,11);
target = up;
type = BottomGhost;
},
{
horizontal = 1;
origin = (0,9);
target = down;
type = TopGhost;
}
);
layerId = "9AF1F7D9-E035-453E-B2A8-46DE370997D0";
shapes = (
{
closed = 1;
nodes = (
(136,0,l),
(610,652,l),
(1086,0,l),
(1160,0,l),
(648,704,l),
(1154,1400,l),
(1080,1400,l),
(610,754,l),
(140,1400,l),
(66,1400,l),
(574,704,l),
(60,0,l)
);
}
);
width = 1220;
},
{
anchors = (
{
name = bottom;
pos = (413,0);
},
{
name = top;
pos = (610,1400);
}
);
hints = (
{
horizontal = 1;
origin = (0,11);
target = up;
type = BottomGhost;
},
{
horizontal = 1;
origin = (0,9);
target = down;
type = TopGhost;
}
);
layerId = m003;
shapes = (
{
closed = 1;
nodes = (
(-61,0,l),
(505,652,l),
(889,0,l),
(963,0,l),
(550,704,l),
(1154,1400,l),
(1080,1400,l),
(519,754,l),
(140,1400,l),
(66,1400,l),
(476,704,l),
(-137,0,l)
);
}
);
width = 1220;
},
{
anchors = (
{
name = bottom;
pos = (561,0);
},
{
name = top;
pos = (758,1400);
}
);
hints = (
{
horizontal = 1;
origin = (0,11);
target = up;
type = BottomGhost;
},
{
horizontal = 1;
origin = (0,9);
target = down;
type = TopGhost;
}
);
layerId = m004;
shapes = (
{
closed = 1;
nodes = (
(235,0,l),
(624,448,l),
(887,0,l),
(1259,0,l),
(846,704,l),
(1450,1400,l),
(1080,1400,l),
(696,958,l),
(436,1400,l),
(66,1400,l),
(474,704,l),
(-137,0,l)
);
}
);
width = 1516;
},
{
anchors = (
{
name = bottom;
pos = (659,0);
},
{
name = top;
pos = (659,1400);
}
);
hints = (
{
horizontal = 1;
origin = (0,11);
target = up;
type = BottomGhost;
},
{
horizontal = 1;
origin = (0,9);
target = down;
type = TopGhost;
}
);
layerId = "024B54ED-FF00-4B3B-B916-19AEEB47CF52";
shapes = (
{
closed = 1;
nodes = (
(235,0,l),
(659,584,l),
(1085,0,l),
(1259,0,l),
(747,704,l),
(1253,1400,l),
(1080,1400,l),
(659,822,l),
(239,1400,l),
(66,1400,l),
(573,704,l),
(60,0,l)
);
}
);
width = 1318.66667;
},
{
anchors = (
{
name = bottom;
pos = (462,0);
},
{
name = top;
pos = (659,1400);
}
);
hints = (
{
horizontal = 1;
origin = (0,11);
target = up;
type = BottomGhost;
},
{
horizontal = 1;
origin = (0,9);
target = down;
type = TopGhost;
}
);
layerId = "D546763A-DEF0-4334-A7AF-26D5912082F8";
shapes = (
{
closed = 1;
nodes = (
(38,0,l),
(545,584,l),
(888,0,l),
(1062,0,l),
(649,704,l),
(1253,1400,l),
(1080,1400,l),
(578,822,l),
(239,1400,l),
(66,1400,l),
(475,704,l),
(-137,0,l)
);
}
);
width = 1318.66667;
}
);
unicode = 88;
},
{
glyphname = Y;
kernLeft = Y;
kernRight = Y;
lastChange = "2021-06-04 07:15:20 +0000";
layers = (
{
anchors = (
{
name = bottom;
pos = (696,0);
},
{
name = top;
pos = (696,1400);
},
{
name = topleft;
pos = (20,1400);
}
);
hints = (
{
horizontal = 1;
origin = (0,4);
target = up;
type = BottomGhost;
},
{
horizontal = 1;
origin = (0,2);
target = down;
type = TopGhost;
},
{
origin = (0,4);
target = (0,5);
type = Stem;
}
);
layerId = "10BC12B3-5274-42E3-B5BC-F74F362F0DF4";
shapes = (
{
closed = 1;
nodes = (
(696,956,l),
(414,1400,l),
(60,1400,l),
(546,630,l),
(546,0,l),
(846,0,l),
(846,630,l),
(1332,1400,l),
(978,1400,l)
);
}
);
width = 1392;
},
{
anchors = (
{
name = bottom;
pos = (554,0);
},
{
name = top;
pos = (554,1400);
},
{
name = topleft;
pos = (20,1400);
}
);
hints = (
{
horizontal = 1;
origin = (0,4);
target = up;
type = BottomGhost;
},
{
horizontal = 1;
origin = (0,2);
target = down;
type = TopGhost;
},
{
origin = (0,4);
target = (0,5);
type = Stem;
}
);
layerId = "9AF1F7D9-E035-453E-B2A8-46DE370997D0";
shapes = (
{
closed = 1;
nodes = (
(554,702,l),
(130,1400,l),
(60,1400,l),
(524,636,l),
(524,0,l),
(584,0,l),
(584,636,l),
(1048,1400,l),
(978,1400,l)
);
}
);
width = 1108;
},
{
anchors = (
{
name = bottom;
pos = (357,0);
},
{
name = top;
pos = (554,1400);
},
{
name = topleft;
pos = (20,1400);
}
);
hints = (
{
horizontal = 1;
origin = (0,4);
target = up;
type = BottomGhost;
},
{
horizontal = 1;
origin = (0,2);
target = down;
type = TopGhost;
},
{
origin = (0,4);
target = (0,5);
type = Stem;
}
);
layerId = m003;
shapes = (
{
closed = 1;
nodes = (
(456,702,l),
(130,1400,l),
(60,1400,l),
(417,636,l),
(327,0,l),
(387,0,l),
(477,636,l),
(1048,1400,l),
(978,1400,l)
);
}
);
width = 1108;
},
{
anchors = (
{
name = bottom;
pos = (499,0);
},
{
name = top;
pos = (696,1400);
},
{
name = topleft;
pos = (20,1400);
}
);
hints = (
{
horizontal = 1;
origin = (0,4);
target = up;
type = BottomGhost;
},
{
horizontal = 1;
origin = (0,2);
target = down;
type = TopGhost;
},
{
origin = (0,4);
target = (0,5);
type = Stem;
}
);
layerId = m004;
shapes = (
{
closed = 1;
nodes = (
(634,956,l),
(414,1400,l),
(60,1400,l),
(438,630,l),
(349,0,l),
(649,0,l),
(738,630,l),
(1332,1400,l),
(978,1400,l)
);
}
);
width = 1392;
},
{
anchors = (
{
name = bottom;
pos = (601,0);
},
{
name = top;
pos = (601,1400);
},
{
name = topleft;
pos = (20,1400);
}
);
hints = (
{
horizontal = 1;
origin = (0,4);
target = up;
type = BottomGhost;
},
{
horizontal = 1;
origin = (0,2);
target = down;
type = TopGhost;
},
{
origin = (0,4);
target = (0,5);
type = Stem;
}
);
layerId = "024B54ED-FF00-4B3B-B916-19AEEB47CF52";
shapes = (
{
closed = 1;
nodes = (
(601,787,l),
(225,1400,l),
(60,1400,l),
(531,634,l),
(531,0,l),
(671,0,l),
(671,634,l),
(1143,1400,l),
(978,1400,l)
);
}
);
width = 1202.66667;
},
{
anchors = (
{
name = bottom;
pos = (404,0);
},
{
name = top;
pos = (601,1400);
},
{
name = topleft;
pos = (20,1400);
}
);
hints = (
{
horizontal = 1;
origin = (0,4);
target = up;
type = BottomGhost;
},
{
horizontal = 1;
origin = (0,2);
target = down;
type = TopGhost;
},
{
origin = (0,4);
target = (0,5);
type = Stem;
}
);
layerId = "D546763A-DEF0-4334-A7AF-26D5912082F8";
shapes = (
{
closed = 1;
nodes = (
(515,787,l),
(225,1400,l),
(60,1400,l),
(424,634,l),
(334,0,l),
(474,0,l),
(564,634,l),
(1143,1400,l),
(978,1400,l)
);
}
);
width = 1202.66667;
}
);
unicode = 89;
},
{
glyphname = Z;
kernLeft = Z;
kernRight = Z;
lastChange = "2021-06-04 07:15:20 +0000";
layers = (
{
anchors = (
{
name = bottom;
pos = (686,0);
},
{
name = center;
pos = (686,700);
},
{
name = top;
pos = (686,1400);
}
);
hints = (
{
horizontal = 1;
origin = (0,9);
target = (0,8);
type = Stem;
},
{
horizontal = 1;
origin = (0,5);
target = (0,6);
type = Stem;
}
);
layerId = "10BC12B3-5274-42E3-B5BC-F74F362F0DF4";
shapes = (
{
closed = 1;
nodes = (
(1252,0,l),
(1252,300,l),
(526,300,l),
(1252,1100,l),
(1252,1400,l),
(120,1400,l),
(120,1100,l),
(846,1100,l),
(120,300,l),
(120,0,l)
);
}
);
width = 1372;
},
{
anchors = (
{
name = bottom;
pos = (686,0);
},
{
name = center;
pos = (686,700);
},
{
name = top;
pos = (686,1400);
}
);
hints = (
{
horizontal = 1;
origin = (0,9);
target = (0,8);
type = Stem;
},
{
horizontal = 1;
origin = (0,5);
target = (0,6);
type = Stem;
}
);
layerId = "9AF1F7D9-E035-453E-B2A8-46DE370997D0";
shapes = (
{
closed = 1;
nodes = (
(1252,0,l),
(1252,60,l),
(198,60,l),
(1252,1340,l),
(1252,1400,l),
(120,1400,l),
(120,1340,l),
(1174,1340,l),
(120,60,l),
(120,0,l)
);
}
);
width = 1372;
},
{
anchors = (
{
name = bottom;
pos = (489,0);
},
{
name = center;
pos = (588,700);
},
{
name = top;
pos = (686,1400);
}
);
hints = (
{
horizontal = 1;
origin = (0,9);
target = (0,8);
type = Stem;
},
{
horizontal = 1;
origin = (0,5);
target = (0,6);
type = Stem;
}
);
layerId = m003;
shapes = (
{
closed = 1;
nodes = (
(1055,0,l),
(1064,60,l),
(10,60,l),
(1244,1340,l),
(1252,1400,l),
(120,1400,l),
(112,1340,l),
(1166,1340,l),
(-68,60,l),
(-77,0,l)
);
}
);
width = 1372;
},
{
anchors = (
{
name = bottom;
pos = (489,0);
},
{
name = center;
pos = (588,700);
},
{
name = top;
pos = (686,1400);
}
);
hints = (
{
horizontal = 1;
origin = (0,9);
target = (0,8);
type = Stem;
},
{
horizontal = 1;
origin = (0,5);
target = (0,6);
type = Stem;
}
);
layerId = m004;
shapes = (
{
closed = 1;
nodes = (
(1055,0,l),
(1097,300,l),
(371,300,l),
(1210,1100,l),
(1252,1400,l),
(120,1400,l),
(78,1100,l),
(804,1100,l),
(-35,300,l),
(-77,0,l)
);
}
);
width = 1372;
},
{
anchors = (
{
name = bottom;
pos = (686,0);
},
{
name = center;
pos = (686,700);
},
{
name = top;
pos = (686,1400);
}
);
hints = (
{
horizontal = 1;
origin = (0,9);
target = (0,8);
type = Stem;
},
{
horizontal = 1;
origin = (0,5);
target = (0,6);
type = Stem;
}
);
layerId = "024B54ED-FF00-4B3B-B916-19AEEB47CF52";
shapes = (
{
closed = 1;
nodes = (
(1252,0,l),
(1252,140,l),
(307,140,l),
(1252,1260,l),
(1252,1400,l),
(120,1400,l),
(120,1260,l),
(1065,1260,l),
(120,140,l),
(120,0,l)
);
}
);
width = 1372;
},
{
anchors = (
{
name = bottom;
pos = (489,0);
},
{
name = center;
pos = (588,700);
},
{
name = top;
pos = (686,1400);
}
);
hints = (
{
horizontal = 1;
origin = (0,9);
target = (0,8);
type = Stem;
},
{
horizontal = 1;
origin = (0,5);
target = (0,6);
type = Stem;
}
);
layerId = "D546763A-DEF0-4334-A7AF-26D5912082F8";
shapes = (
{
closed = 1;
nodes = (
(1055,0,l),
(1075,140,l),
(130,140,l),
(1233,1260,l),
(1252,1400,l),
(120,1400,l),
(101,1260,l),
(1045,1260,l),
(-57,140,l),
(-77,0,l)
);
}
);
width = 1372;
}
);
unicode = 90;
},
{
glyphname = a;
kernLeft = o;
kernRight = n;
lastChange = "2021-06-04 07:15:20 +0000";
layers = (
{
anchors = (
{
name = bottom;
pos = (635,0);
},
{
name = ogonek;
pos = (1143,10);
},
{
name = top;
pos = (635,1000);
}
);
hints = (
{
horizontal = 1;
origin = (0,9);
target = (1,11);
type = Stem;
},
{
horizontal = 1;
origin = (0,16);
target = down;
type = TopGhost;
},
{
horizontal = 1;
origin = (0,3);
target = (1,5);
type = Stem;
},
{
horizontal = 1;
origin = (0,13);
target = up;
type = BottomGhost;
},
{
origin = (0,16);
target = (0,14);
type = Stem;
}
);
layerId = "10BC12B3-5274-42E3-B5BC-F74F362F0DF4";
shapes = (
{
closed = 1;
nodes = (
(864,904,l),
(790,974,o),
(697,1028,o),
(582,1028,c),
(299,1028,o),
(71,798,o),
(72,514,c),
(71,216,o),
(312,-26,o),
(610,-26,c),
(710,-26,o),
(785,20,o),
(835,90,c),
(849,0,l),
(1150,0,l),
(1150,1000,l),
(850,1000,l)
);
},
{
closed = 1;
nodes = (
(503,262,o),
(396,364,o),
(376,486,c),
(359,626,o),
(453,738,o),
(581,738,c),
(699,738,o),
(807,638,o),
(826,514,c),
(843,376,o),
(749,262,o),
(619,262,c)
);
}
);
width = 1270;
},
{
anchors = (
{
name = bottom;
pos = (592,0);
},
{
name = ogonek;
pos = (1066,10);
},
{
name = top;
pos = (592,1000);
}
);
hints = (
{
horizontal = 1;
origin = (0,9);
target = (1,11);
type = Stem;
},
{
horizontal = 1;
origin = (0,16);
target = down;
type = TopGhost;
},
{
horizontal = 1;
origin = (0,3);
target = (1,5);
type = Stem;
},
{
horizontal = 1;
origin = (0,13);
target = up;
type = BottomGhost;
},
{
origin = (0,6);
target = (1,2);
type = Stem;
},
{
origin = (0,13);
target = (0,14);
type = Stem;
},
{
origin = (1,8);
target = (0,14);
type = Stem;
}
);
layerId = "9AF1F7D9-E035-453E-B2A8-46DE370997D0";
shapes = (
{
closed = 1;
nodes = (
(1004,768,l),
(932,924,o),
(790,1028,o),
(596,1028,c),
(306,1028,o),
(70,792,o),
(70,500,c),
(70,210,o),
(306,-26,o),
(596,-26,c),
(790,-26,o),
(932,78,o),
(1004,234,c),
(1004,0,l),
(1064,0,l),
(1064,1000,l),
(1004,1000,l)
);
},
{
closed = 1;
nodes = (
(346,34,o),
(130,238,o),
(130,500,c),
(130,758,o),
(338,968,o),
(596,968,c),
(850,968,o),
(1000,762,o),
(1000,500,c),
(1000,244,o),
(854,34,o),
(596,34,c)
);
}
);
width = 1184;
},
{
anchors = (
{
name = bottom;
pos = (395,0);
},
{
name = ogonek;
pos = (871,10);
},
{
name = top;
pos = (536,1000);
}
);
hints = (
{
horizontal = 1;
origin = (0,9);
target = (1,11);
type = Stem;
},
{
horizontal = 1;
origin = (0,16);
target = down;
type = TopGhost;
},
{
horizontal = 1;
origin = (0,3);
target = (1,5);
type = Stem;
},
{
horizontal = 1;
origin = (0,13);
target = up;
type = BottomGhost;
},
{
origin = (0,6);
target = (1,2);
type = Stem;
},
{
origin = (0,13);
target = (0,14);
type = Stem;
},
{
origin = (1,8);
target = (0,14);
type = Stem;
}
);
layerId = m003;
shapes = (
{
closed = 1;
nodes = (
(915,768,l),
(865,924,o),
(738,1028,o),
(544,1028,c),
(254,1028,o),
(-15,792,o),
(-56,500,c),
(-97,210,o),
(106,-26,o),
(396,-26,c),
(590,-26,o),
(746,78,o),
(840,234,c),
(807,0,l),
(867,0,l),
(1008,1000,l),
(948,1000,l)
);
},
{
closed = 1;
nodes = (
(154,34,o),
(-33,238,o),
(4,500,c),
(40,758,o),
(277,968,o),
(535,968,c),
(789,968,o),
(910,762,o),
(874,500,c),
(838,244,o),
(662,34,o),
(404,34,c)
);
}
);
width = 1184;
},
{
anchors = (
{
name = bottom;
pos = (438,0);
},
{
name = ogonek;
pos = (948,10);
},
{
name = top;
pos = (579,1000);
}
);
hints = (
{
horizontal = 1;
origin = (0,9);
target = (1,11);
type = Stem;
},
{
horizontal = 1;
origin = (0,16);
target = down;
type = TopGhost;
},
{
horizontal = 1;
origin = (0,3);
target = (1,5);
type = Stem;
},
{
horizontal = 1;
origin = (0,13);
target = up;
type = BottomGhost;
},
{
origin = (0,16);
target = (0,14);
type = Stem;
}
);
layerId = m004;
shapes = (
{
closed = 1;
nodes = (
(794,904,l),
(730,974,o),
(645,1028,o),
(530,1028,c),
(247,1028,o),
(-14,798,o),
(-53,514,c),
(-95,216,o),
(112,-26,o),
(410,-26,c),
(510,-26,o),
(591,20,o),
(651,90,c),
(652,0,l),
(953,0,l),
(1094,1000,l),
(794,1000,l)
);
},
{
closed = 1;
nodes = (
(343,262,o),
(250,364,o),
(248,486,c),
(250,626,o),
(360,738,o),
(488,738,c),
(606,738,o),
(700,638,o),
(701,514,c),
(699,376,o),
(589,262,o),
(459,262,c)
);
}
);
width = 1270;
},
{
anchors = (
{
name = bottom;
pos = (606,0);
},
{
name = ogonek;
pos = (1092,10);
},
{
name = top;
pos = (606,1000);
}
);
hints = (
{
horizontal = 1;
origin = (0,9);
target = (1,11);
type = Stem;
},
{
horizontal = 1;
origin = (0,16);
target = down;
type = TopGhost;
},
{
horizontal = 1;
origin = (0,3);
target = (1,5);
type = Stem;
},
{
horizontal = 1;
origin = (0,13);
target = up;
type = BottomGhost;
},
{
origin = (0,16);
target = (0,14);
type = Stem;
}
);
layerId = "024B54ED-FF00-4B3B-B916-19AEEB47CF52";
shapes = (
{
closed = 1;
nodes = (
(957,813,l),
(885,941,o),
(759,1028,o),
(591,1028,c),
(304,1028,o),
(70,794,o),
(71,505,c),
(70,212,o),
(308,-26,o),
(601,-26,c),
(763,-26,o),
(883,59,o),
(948,186,c),
(952,0,l),
(1093,0,l),
(1093,1000,l),
(953,1000,l)
);
},
{
closed = 1;
nodes = (
(398,110,o),
(219,280,o),
(212,495,c),
(206,714,o),
(376,891,o),
(591,891,c),
(800,891,o),
(936,721,o),
(942,505,c),
(948,288,o),
(819,110,o),
(604,110,c)
);
}
);
width = 1212.66667;
},
{
anchors = (
{
name = bottom;
pos = (409,0);
},
{
name = ogonek;
pos = (897,10);
},
{
name = top;
pos = (550,1000);
}
);
hints = (
{
horizontal = 1;
origin = (0,9);
target = (1,11);
type = Stem;
},
{
horizontal = 1;
origin = (0,16);
target = down;
type = TopGhost;
},
{
horizontal = 1;
origin = (0,3);
target = (1,5);
type = Stem;
},
{
horizontal = 1;
origin = (0,13);
target = up;
type = BottomGhost;
},
{
origin = (0,16);
target = (0,14);
type = Stem;
}
);
layerId = "D546763A-DEF0-4334-A7AF-26D5912082F8";
shapes = (
{
closed = 1;
nodes = (
(875,813,l),
(820,941,o),
(707,1028,o),
(539,1028,c),
(252,1028,o),
(-15,794,o),
(-55,505,c),
(-96,212,o),
(108,-26,o),
(401,-26,c),
(563,-26,o),
(694,59,o),
(777,186,c),
(755,0,l),
(896,0,l),
(1037,1000,l),
(897,1000,l)
);
},
{
closed = 1;
nodes = (
(217,110,o),
(61,280,o),
(85,495,c),
(110,714,o),
(305,891,o),
(519,891,c),
(728,891,o),
(840,721,o),
(816,505,c),
(792,288,o),
(638,110,o),
(422,110,c)
);
}
);
width = 1212.66667;
}
);
unicode = 97;
},
{
glyphname = ae;
kernLeft = o;
kernRight = e;
lastChange = "2021-06-04 07:15:20 +0000";
layers = (
{
anchors = (
{
name = bottom;
pos = (909,0);
},
{
name = top;
pos = (909,1000);
}
);
hints = (
{
horizontal = 1;
origin = (0,43);
target = (1,10);
type = Stem;
},
{
horizontal = 1;
origin = (1,5);
target = (0,37);
type = Stem;
},
{
horizontal = 1;
origin = (0,26);
target = (0,33);
type = Stem;
},
{
horizontal = 1;
origin = (0,26);
target = (2,2);
type = Stem;
},
{
origin = (0,40);
target = (1,2);
type = Stem;
}
);
layerId = "10BC12B3-5274-42E3-B5BC-F74F362F0DF4";
shapes = (
{
closed = 1;
nodes = (
(630,-26,ls),
(764,-26,o),
(844,14,o),
(930,102,c),
(1018,22,o),
(1132,-26,o),
(1258,-26,cs),
(1458,-26,o),
(1630,98,o),
(1710,276,c),
(1404,348,l),
(1368,302,o),
(1316,274,o),
(1258,274,cs),
(1164,276,o),
(1110,330,o),
(1082,402,c),
(1748,402,l),
(1808,722,o),
(1576,1028,o),
(1258,1028,cs),
(1134,1028,o),
(1022,982,o),
(934,904,c),
(846,990,o),
(714,1028,o),
(552,1028,cs),
(356,1028,o),
(214,1004,o),
(118,838,c),
(376,686,l),
(394,716,o),
(416,756,o),
(552,756,cs),
(664,756,o),
(746,708,o),
(762,622,c),
(358,622,ls),
(198,622,o),
(80,502,o),
(80,344,cs),
(80,118,o),
(220,-26,o),
(504,-26,cs)
);
},
{
closed = 1;
nodes = (
(438,154,o),
(370,214,o),
(370,310,cs),
(370,392,o),
(442,402,o),
(530,402,cs),
(752,402,l),
(752,344,ls),
(752,246,o),
(662,154,o),
(550,154,cs)
);
},
{
closed = 1;
nodes = (
(1098,708,o),
(1172,768,o),
(1258,768,cs),
(1344,768,o),
(1416,708,o),
(1444,622,c),
(1070,622,l)
);
}
);
width = 1818;
},
{
anchors = (
{
name = bottom;
pos = (954,0);
},
{
name = top;
pos = (954,1000);
}
);
hints = (
{
horizontal = 1;
origin = (0,43);
target = (1,10);
type = Stem;
},
{
horizontal = 1;
origin = (1,5);
target = (0,37);
type = Stem;
},
{
horizontal = 1;
origin = (0,33);
target = (0,26);
type = Stem;
},
{
origin = (0,40);
target = (1,2);
type = Stem;
},
{
origin = (1,7);
target = (0,16);
type = Stem;
},
{
origin = (2,5);
target = (0,17);
type = Stem;
},
{
origin = (0,36);
target = (0,16);
type = Stem;
}
);
layerId = "9AF1F7D9-E035-453E-B2A8-46DE370997D0";
shapes = (
{
closed = 1;
nodes = (
(572,0,ls),
(740,0,o),
(880,122,o),
(904,284,c),
(988,116,o),
(1154,0,o),
(1348,0,cs),
(1548,0,o),
(1720,124,o),
(1800,302,c),
(1740,316,l),
(1660,156,o),
(1518,60,o),
(1348,60,cs),
(1118,60,o),
(928,246,o),
(908,496,c),
(1846,496,l),
(1840,830,o),
(1634,1054,o),
(1348,1054,cs),
(1142,1054,o),
(964,922,o),
(888,734,c),
(858,914,o),
(778,1054,o),
(530,1054,cs),
(398,1054,o),
(234,1014,o),
(160,888,c),
(212,858,l),
(276,964,o),
(420,994,o),
(530,994,cs),
(826,994,o),
(830,796,o),
(846,556,c),
(426,556,ls),
(246,556,o),
(80,516,o),
(70,318,c),
(74,92,o),
(280,0,o),
(460,0,cs)
);
},
{
closed = 1;
nodes = (
(312,60,o),
(134,112,o),
(130,318,c),
(136,458,o),
(250,496,o),
(426,496,cs),
(848,496,l),
(848,384,l),
(848,330,o),
(858,60,o),
(518,60,c)
);
},
{
closed = 1;
nodes = (
(924,798,o),
(1110,994,o),
(1348,994,cs),
(1584,994,o),
(1778,790,o),
(1786,556,c),
(908,556,l)
);
}
);
width = 1907;
},
{
anchors = (
{
name = bottom;
pos = (757,0);
},
{
name = top;
pos = (898,1000);
}
);
hints = (
{
horizontal = 1;
origin = (0,43);
target = (1,10);
type = Stem;
},
{
horizontal = 1;
origin = (1,5);
target = (0,37);
type = Stem;
},
{
horizontal = 1;
origin = (0,33);
target = (0,26);
type = Stem;
},
{
origin = (0,40);
target = (1,2);
type = Stem;
},
{
origin = (1,7);
target = (0,16);
type = Stem;
},
{
origin = (2,5);
target = (0,17);
type = Stem;
},
{
origin = (0,36);
target = (0,16);
type = Stem;
}
);
layerId = m003;
shapes = (
{
closed = 1;
nodes = (
(375,0,ls),
(543,0,o),
(700,122,o),
(747,284,c),
(808,116,o),
(957,0,o),
(1151,0,cs),
(1351,0,o),
(1541,124,o),
(1646,302,c),
(1588,316,l),
(1485,156,o),
(1330,60,o),
(1160,60,cs),
(930,60,o),
(766,246,o),
(781,496,c),
(1719,496,l),
(1760,830,o),
(1585,1054,o),
(1299,1054,cs),
(1093,1054,o),
(897,922,o),
(794,734,c),
(790,914,o),
(729,1054,o),
(481,1054,cs),
(349,1054,o),
(180,1014,o),
(88,888,c),
(136,858,l),
(215,964,o),
(363,994,o),
(473,994,cs),
(769,994,o),
(745,796,o),
(727,556,c),
(307,556,ls),
(127,556,o),
(-44,516,o),
(-82,318,c),
(-110,92,o),
(83,0,o),
(263,0,cs)
);
},
{
closed = 1;
nodes = (
(124,60,o),
(-47,112,o),
(-22,318,c),
(4,458,o),
(123,496,o),
(299,496,cs),
(721,496,l),
(705,384,l),
(698,330,o),
(670,60,o),
(330,60,c)
);
},
{
closed = 1;
nodes = (
(839,798,o),
(1053,994,o),
(1291,994,cs),
(1527,994,o),
(1692,790,o),
(1667,556,c),
(789,556,l)
);
}
);
width = 1907;
},
{
anchors = (
{
name = bottom;
pos = (712,0);
},
{
name = top;
pos = (853,1000);
}
);
hints = (
{
horizontal = 1;
origin = (0,43);
target = (1,10);
type = Stem;
},
{
horizontal = 1;
origin = (1,5);
target = (0,37);
type = Stem;
},
{
horizontal = 1;
origin = (0,26);
target = (0,33);
type = Stem;
},
{
horizontal = 1;
origin = (0,26);
target = (2,2);
type = Stem;
},
{
origin = (0,40);
target = (1,2);
type = Stem;
}
);
layerId = m004;
shapes = (
{
closed = 1;
nodes = (
(430,-26,ls),
(564,-26,o),
(649,14,o),
(748,102,c),
(824,22,o),
(932,-26,o),
(1058,-26,cs),
(1258,-26,o),
(1447,98,o),
(1552,276,c),
(1256,348,l),
(1214,302,o),
(1158,274,o),
(1100,274,cs),
(1006,276,o),
(960,330,o),
(942,402,c),
(1608,402,l),
(1713,722,o),
(1524,1028,o),
(1206,1028,cs),
(1082,1028,o),
(963,982,o),
(864,904,c),
(788,990,o),
(662,1028,o),
(500,1028,cs),
(304,1028,o),
(158,1004,o),
(39,838,c),
(276,686,l),
(298,716,o),
(325,756,o),
(461,756,cs),
(573,756,o),
(649,708,o),
(653,622,c),
(249,622,ls),
(89,622,o),
(-46,502,o),
(-68,344,cs),
(-100,118,o),
(20,-26,o),
(304,-26,cs)
);
},
{
closed = 1;
nodes = (
(263,154,o),
(203,214,o),
(217,310,cs),
(228,392,o),
(302,402,o),
(390,402,cs),
(612,402,l),
(604,344,ls),
(590,246,o),
(487,154,o),
(375,154,cs)
);
},
{
closed = 1;
nodes = (
(1001,708,o),
(1083,768,o),
(1169,768,cs),
(1255,768,o),
(1319,708,o),
(1335,622,c),
(961,622,l)
);
}
);
width = 1818;
},
{
anchors = (
{
name = bottom;
pos = (939,0);
},
{
name = top;
pos = (939,1000);
}
);
hints = (
{
horizontal = 1;
origin = (0,43);
target = (1,10);
type = Stem;
},
{
horizontal = 1;
origin = (1,5);
target = (0,37);
type = Stem;
},
{
horizontal = 1;
origin = (0,26);
target = (0,33);
type = Stem;
},
{
horizontal = 1;
origin = (0,26);
target = (2,2);
type = Stem;
},
{
origin = (0,40);
target = (1,2);
type = Stem;
}
);
layerId = "024B54ED-FF00-4B3B-B916-19AEEB47CF52";
shapes = (
{
closed = 1;
nodes = (
(591,-9,ls),
(748,-9,o),
(868,86,o),
(913,223,c),
(998,85,o),
(1147,-9,o),
(1318,-9,cs),
(1518,-9,o),
(1690,115,o),
(1770,293,c),
(1628,327,l),
(1563,205,o),
(1451,131,o),
(1318,131,cs),
(1133,132,o),
(989,274,o),
(966,465,c),
(1813,465,l),
(1829,794,o),
(1615,1045,o),
(1318,1045,cs),
(1139,1045,o),
(983,942,o),
(903,791,c),
(854,939,o),
(757,1045,o),
(537,1045,cs),
(384,1045,o),
(227,1011,o),
(146,871,c),
(267,801,l),
(315,881,o),
(419,915,o),
(537,915,cs),
(772,915,o),
(802,767,o),
(818,578,c),
(403,578,ls),
(230,578,o),
(80,511,o),
(73,327,cs),
(76,101,o),
(260,-9,o),
(475,-9,cs)
);
},
{
closed = 1;
nodes = (
(354,91,o),
(213,146,o),
(210,315,cs),
(214,436,o),
(314,465,o),
(461,465,cs),
(816,465,l),
(816,371,ls),
(816,302,o),
(793,91,o),
(529,91,cs)
);
},
{
closed = 1;
nodes = (
(982,768,o),
(1131,919,o),
(1318,919,cs),
(1504,919,o),
(1657,763,o),
(1672,578,c),
(962,578,l)
);
}
);
width = 1877.33333;
},
{
anchors = (
{
name = bottom;
pos = (742,0);
},
{
name = top;
pos = (883,1000);
}
);
hints = (
{
horizontal = 1;
origin = (0,43);
target = (1,10);
type = Stem;
},
{
horizontal = 1;
origin = (1,5);
target = (0,37);
type = Stem;
},
{
horizontal = 1;
origin = (0,26);
target = (0,33);
type = Stem;
},
{
horizontal = 1;
origin = (0,26);
target = (2,2);
type = Stem;
},
{
origin = (0,40);
target = (1,2);
type = Stem;
}
);
layerId = "D546763A-DEF0-4334-A7AF-26D5912082F8";
shapes = (
{
closed = 1;
nodes = (
(393,-9,ls),
(550,-9,o),
(683,86,o),
(747,223,c),
(813,85,o),
(949,-9,o),
(1120,-9,cs),
(1320,-9,o),
(1510,115,o),
(1615,293,c),
(1477,327,l),
(1395,205,o),
(1273,131,o),
(1140,131,cs),
(955,132,o),
(831,274,o),
(835,465,c),
(1682,465,l),
(1744,794,o),
(1565,1045,o),
(1268,1045,cs),
(1089,1045,o),
(919,942,o),
(817,791,c),
(789,939,o),
(707,1045,o),
(487,1045,cs),
(334,1045,o),
(173,1011,o),
(72,871,c),
(183,801,l),
(243,881,o),
(350,915,o),
(469,915,cs),
(704,915,o),
(713,767,o),
(702,578,c),
(288,578,ls),
(114,578,o),
(-45,511,o),
(-77,327,cs),
(-107,101,o),
(62,-9,o),
(277,-9,cs)
);
},
{
closed = 1;
nodes = (
(170,91,o),
(36,146,o),
(58,315,cs),
(79,436,o),
(183,465,o),
(329,465,cs),
(685,465,l),
(671,371,ls),
(662,302,o),
(609,91,o),
(345,91,cs)
);
},
{
closed = 1;
nodes = (
(893,768,o),
(1063,919,o),
(1250,919,cs),
(1436,919,o),
(1568,763,o),
(1556,578,c),
(846,578,l)
);
}
);
width = 1877.33333;
}
);
unicode = 230;
},
{
glyphname = b;
kernLeft = h;
kernRight = o;
lastChange = "2021-06-04 07:15:20 +0000";
layers = (
{
anchors = (
{
name = bottom;
pos = (630,0);
},
{
name = top;
pos = (630,1900);
}
);
hints = (
{
horizontal = 1;
origin = (0,10);
target = (1,11);
type = Stem;
},
{
horizontal = 1;
origin = (0,16);
target = (1,5);
type = Stem;
},
{
horizontal = 1;
origin = (0,5);
target = up;
type = BottomGhost;
},
{
origin = (0,5);
target = (0,6);
type = Stem;
},
{
origin = (1,8);
target = (0,13);
type = Stem;
},
{
origin = (0,5);
target = (1,2);
type = Stem;
}
);
layerId = "10BC12B3-5274-42E3-B5BC-F74F362F0DF4";
shapes = (
{
closed = 1;
nodes = (
(566,1028,o),
(482,978,o),
(420,908,c),
(420,1500,l),
(120,1500,l),
(120,0,l),
(420,0,l),
(420,94,l),
(482,24,o),
(566,-26,o),
(672,-26,c),
(964,-26,o),
(1200,210,o),
(1200,502,c),
(1200,792,o),
(964,1028,o),
(672,1028,c)
);
},
{
closed = 1;
nodes = (
(546,264,o),
(446,370,o),
(446,502,c),
(446,632,o),
(546,740,o),
(668,740,c),
(792,740,o),
(892,632,o),
(892,502,c),
(892,370,o),
(792,264,o),
(668,264,c)
);
}
);
width = 1260;
},
{
anchors = (
{
name = bottom;
pos = (587,0);
},
{
name = top;
pos = (587,1900);
}
);
hints = (
{
horizontal = 1;
origin = (0,10);
target = (1,11);
type = Stem;
},
{
horizontal = 1;
origin = (0,16);
target = (1,5);
type = Stem;
},
{
horizontal = 1;
origin = (0,5);
target = up;
type = BottomGhost;
},
{
origin = (0,5);
target = (0,6);
type = Stem;
},
{
origin = (1,8);
target = (0,13);
type = Stem;
},
{
origin = (0,5);
target = (1,2);
type = Stem;
}
);
layerId = "9AF1F7D9-E035-453E-B2A8-46DE370997D0";
shapes = (
{
closed = 1;
nodes = (
(394,1028,o),
(252,924,o),
(180,768,c),
(180,1500,l),
(120,1500,l),
(120,0,l),
(180,0,l),
(180,234,l),
(252,78,o),
(394,-26,o),
(588,-26,c),
(878,-26,o),
(1114,210,o),
(1114,500,c),
(1114,792,o),
(878,1028,o),
(588,1028,c)
);
},
{
closed = 1;
nodes = (
(334,34,o),
(184,240,o),
(184,500,c),
(184,756,o),
(330,968,o),
(588,968,c),
(838,968,o),
(1054,764,o),
(1054,500,c),
(1054,244,o),
(846,34,o),
(588,34,c)
);
}
);
width = 1174;
},
{
anchors = (
{
name = bottom;
pos = (390,0);
},
{
name = top;
pos = (657,1900);
}
);
hints = (
{
horizontal = 1;
origin = (0,10);
target = (1,11);
type = Stem;
},
{
horizontal = 1;
origin = (0,16);
target = (1,5);
type = Stem;
},
{
horizontal = 1;
origin = (0,5);
target = up;
type = BottomGhost;
},
{
origin = (0,5);
target = (0,6);
type = Stem;
},
{
origin = (1,8);
target = (0,13);
type = Stem;
},
{
origin = (0,5);
target = (1,2);
type = Stem;
}
);
layerId = m003;
shapes = (
{
closed = 1;
nodes = (
(342,1028,o),
(185,924,o),
(91,768,c),
(194,1500,l),
(134,1500,l),
(-77,0,l),
(-17,0,l),
(16,234,l),
(66,78,o),
(194,-26,o),
(388,-26,c),
(678,-26,o),
(947,210,o),
(988,500,c),
(1029,792,o),
(826,1028,o),
(536,1028,c)
);
},
{
closed = 1;
nodes = (
(142,34,o),
(21,240,o),
(58,500,c),
(93,756,o),
(269,968,o),
(527,968,c),
(777,968,o),
(965,764,o),
(928,500,c),
(892,244,o),
(654,34,o),
(396,34,c)
);
}
);
width = 1174;
},
{
anchors = (
{
name = bottom;
pos = (433,0);
},
{
name = top;
pos = (700,1900);
}
);
hints = (
{
horizontal = 1;
origin = (0,10);
target = (1,11);
type = Stem;
},
{
horizontal = 1;
origin = (0,16);
target = (1,5);
type = Stem;
},
{
horizontal = 1;
origin = (0,5);
target = up;
type = BottomGhost;
},
{
origin = (0,5);
target = (0,6);
type = Stem;
},
{
origin = (1,8);
target = (0,13);
type = Stem;
},
{
origin = (0,5);
target = (1,2);
type = Stem;
}
);
layerId = m004;
shapes = (
{
closed = 1;
nodes = (
(514,1028,o),
(423,978,o),
(351,908,c),
(434,1500,l),
(134,1500,l),
(-77,0,l),
(223,0,l),
(236,94,l),
(289,24,o),
(366,-26,o),
(472,-26,c),
(764,-26,o),
(1033,210,o),
(1074,502,c),
(1115,792,o),
(912,1028,o),
(620,1028,c)
);
},
{
closed = 1;
nodes = (
(386,264,o),
(301,370,o),
(320,502,c),
(338,632,o),
(453,740,o),
(575,740,c),
(699,740,o),
(784,632,o),
(766,502,c),
(747,370,o),
(632,264,o),
(508,264,c)
);
}
);
width = 1260;
},
{
anchors = (
{
name = bottom;
pos = (601,0);
},
{
name = top;
pos = (601,1900);
}
);
hints = (
{
horizontal = 1;
origin = (0,10);
target = (1,11);
type = Stem;
},
{
horizontal = 1;
origin = (0,16);
target = (1,5);
type = Stem;
},
{
horizontal = 1;
origin = (0,5);
target = up;
type = BottomGhost;
},
{
origin = (0,5);
target = (0,6);
type = Stem;
},
{
origin = (1,8);
target = (0,13);
type = Stem;
},
{
origin = (0,5);
target = (1,2);
type = Stem;
}
);
layerId = "024B54ED-FF00-4B3B-B916-19AEEB47CF52";
shapes = (
{
closed = 1;
nodes = (
(451,1028,o),
(329,942,o),
(260,815,c),
(260,1500,l),
(120,1500,l),
(120,0,l),
(260,0,l),
(260,187,l),
(329,60,o),
(451,-26,o),
(616,-26,c),
(907,-26,o),
(1143,210,o),
(1143,501,c),
(1143,792,o),
(907,1028,o),
(616,1028,c)
);
},
{
closed = 1;
nodes = (
(405,111,o),
(271,283,o),
(271,501,c),
(271,715,o),
(402,892,o),
(615,892,c),
(823,892,o),
(1000,720,o),
(1000,501,c),
(1000,286,o),
(828,111,o),
(615,111,c)
);
}
);
width = 1202.66667;
},
{
anchors = (
{
name = bottom;
pos = (404,0);
},
{
name = top;
pos = (671,1900);
}
);
hints = (
{
horizontal = 1;
origin = (0,10);
target = (1,11);
type = Stem;
},
{
horizontal = 1;
origin = (0,16);
target = (1,5);
type = Stem;
},
{
horizontal = 1;
origin = (0,5);
target = up;
type = BottomGhost;
},
{
origin = (0,5);
target = (0,6);
type = Stem;
},
{
origin = (1,8);
target = (0,13);
type = Stem;
},
{
origin = (0,5);
target = (1,2);
type = Stem;
}
);
layerId = "D546763A-DEF0-4334-A7AF-26D5912082F8";
shapes = (
{
closed = 1;
nodes = (
(399,1028,o),
(264,942,o),
(178,815,c),
(274,1500,l),
(134,1500,l),
(-77,0,l),
(63,0,l),
(89,187,l),
(140,60,o),
(251,-26,o),
(416,-26,c),
(707,-26,o),
(976,210,o),
(1017,501,c),
(1058,792,o),
(855,1028,o),
(564,1028,c)
);
},
{
closed = 1;
nodes = (
(223,111,o),
(114,283,o),
(145,501,c),
(175,715,o),
(330,892,o),
(543,892,c),
(751,892,o),
(905,720,o),
(874,501,c),
(844,286,o),
(647,111,o),
(433,111,c)
);
}
);
width = 1202.66667;
}
);
metricLeft = H;
unicode = 98;
},
{
glyphname = c;
kernLeft = o;
kernRight = c;
lastChange = "2021-06-04 07:15:20 +0000";
layers = (
{
anchors = (
{
name = bottom;
pos = (510,0);
},
{
name = top;
pos = (510,1000);
}
);
hints = (
{
horizontal = 1;
origin = (0,21);
target = (0,2);
type = Stem;
},
{
horizontal = 1;
origin = (0,15);
target = (0,8);
type = Stem;
},
{
origin = (0,18);
target = (0,5);
type = Stem;
}
);
layerId = "10BC12B3-5274-42E3-B5BC-F74F362F0DF4";
shapes = (
{
closed = 1;
nodes = (
(654,294,o),
(608,274,o),
(560,274,c),
(446,274,o),
(360,382,o),
(360,500,c),
(360,620,o),
(446,728,o),
(560,728,c),
(608,728,o),
(654,708,o),
(690,672,c),
(960,818,l),
(868,946,o),
(724,1028,o),
(560,1028,c),
(284,1028,o),
(60,792,o),
(60,500,c),
(60,210,o),
(284,-26,o),
(560,-26,c),
(724,-26,o),
(868,56,o),
(960,182,c),
(690,328,l)
);
}
);
width = 1020;
},
{
anchors = (
{
name = bottom;
pos = (509,0);
},
{
name = top;
pos = (509,1000);
}
);
hints = (
{
horizontal = 1;
origin = (0,21);
target = (0,2);
type = Stem;
},
{
horizontal = 1;
origin = (0,15);
target = (0,8);
type = Stem;
},
{
origin = (0,18);
target = (0,5);
type = Stem;
}
);
layerId = "9AF1F7D9-E035-453E-B2A8-46DE370997D0";
shapes = (
{
closed = 1;
nodes = (
(828,108,o),
(700,34,o),
(560,34,c),
(318,34,o),
(120,242,o),
(120,500,c),
(120,754,o),
(312,968,o),
(560,968,c),
(688,968,o),
(820,904,o),
(906,790,c),
(958,818,l),
(868,946,o),
(722,1028,o),
(560,1028,c),
(284,1028,o),
(60,792,o),
(60,500,c),
(60,210,o),
(284,-26,o),
(560,-26,c),
(722,-26,o),
(868,56,o),
(958,184,c),
(906,212,l)
);
}
);
width = 1018;
},
{
anchors = (
{
name = bottom;
pos = (312,0);
},
{
name = top;
pos = (453,1000);
}
);
hints = (
{
horizontal = 1;
origin = (0,21);
target = (0,2);
type = Stem;
},
{
horizontal = 1;
origin = (0,15);
target = (0,8);
type = Stem;
},
{
origin = (0,18);
target = (0,5);
type = Stem;
}
);
layerId = m003;
shapes = (
{
closed = 1;
nodes = (
(646,108,o),
(508,34,o),
(368,34,c),
(126,34,o),
(-43,242,o),
(-6,500,c),
(29,754,o),
(251,968,o),
(499,968,c),
(627,968,o),
(750,904,o),
(820,790,c),
(876,818,l),
(804,946,o),
(670,1028,o),
(508,1028,c),
(232,1028,o),
(-25,792,o),
(-66,500,c),
(-107,210,o),
(84,-26,o),
(360,-26,c),
(522,-26,o),
(679,56,o),
(787,184,c),
(739,212,l)
);
}
);
width = 1018;
},
{
anchors = (
{
name = bottom;
pos = (313,0);
},
{
name = top;
pos = (454,1000);
}
);
hints = (
{
horizontal = 1;
origin = (0,21);
target = (0,2);
type = Stem;
},
{
horizontal = 1;
origin = (0,15);
target = (0,8);
type = Stem;
},
{
origin = (0,18);
target = (0,5);
type = Stem;
}
);
layerId = m004;
shapes = (
{
closed = 1;
nodes = (
(499,294,o),
(450,274,o),
(402,274,c),
(288,274,o),
(217,382,o),
(234,500,c),
(250,620,o),
(352,728,o),
(466,728,c),
(514,728,o),
(557,708,o),
(588,672,c),
(878,818,l),
(804,946,o),
(672,1028,o),
(508,1028,c),
(232,1028,o),
(-25,792,o),
(-66,500,c),
(-107,210,o),
(84,-26,o),
(360,-26,c),
(524,-26,o),
(679,56,o),
(789,182,c),
(539,328,l)
);
}
);
width = 1020;
},
{
anchors = (
{
name = bottom;
pos = (509,0);
},
{
name = top;
pos = (509,1000);
}
);
hints = (
{
horizontal = 1;
origin = (0,21);
target = (0,2);
type = Stem;
},
{
horizontal = 1;
origin = (0,15);
target = (0,8);
type = Stem;
},
{
origin = (0,18);
target = (0,5);
type = Stem;
}
);
layerId = "024B54ED-FF00-4B3B-B916-19AEEB47CF52";
shapes = (
{
closed = 1;
nodes = (
(770,170,o),
(669,114,o),
(560,114,c),
(361,114,o),
(200,289,o),
(200,500,c),
(200,709,o),
(357,888,o),
(560,888,c),
(661,888,o),
(765,839,o),
(834,751,c),
(959,818,l),
(868,946,o),
(723,1028,o),
(560,1028,c),
(284,1028,o),
(60,792,o),
(60,500,c),
(60,210,o),
(284,-26,o),
(560,-26,c),
(723,-26,o),
(868,56,o),
(959,183,c),
(834,251,l)
);
}
);
width = 1018.66667;
},
{
anchors = (
{
name = bottom;
pos = (312,0);
},
{
name = top;
pos = (453,1000);
}
);
hints = (
{
horizontal = 1;
origin = (0,21);
target = (0,2);
type = Stem;
},
{
horizontal = 1;
origin = (0,15);
target = (0,8);
type = Stem;
},
{
origin = (0,18);
target = (0,5);
type = Stem;
}
);
layerId = "D546763A-DEF0-4334-A7AF-26D5912082F8";
shapes = (
{
closed = 1;
nodes = (
(597,170,o),
(489,114,o),
(379,114,c),
(180,114,o),
(44,289,o),
(74,500,c),
(103,709,o),
(285,888,o),
(488,888,c),
(589,888,o),
(686,839,o),
(743,751,c),
(877,818,l),
(804,946,o),
(671,1028,o),
(508,1028,c),
(232,1028,o),
(-25,792,o),
(-66,500,c),
(-107,210,o),
(84,-26,o),
(360,-26,c),
(523,-26,o),
(679,56,o),
(788,183,c),
(672,251,l)
);
}
);
width = 1018.66667;
}
);
unicode = 99;
},
{
glyphname = d;
kernLeft = o;
kernRight = l;
lastChange = "2021-06-04 07:15:20 +0000";
layers = (
{
anchors = (
{
name = bottom;
pos = (620,0);
},
{
name = center;
pos = (620,500);
},
{
name = top;
pos = (620,1900);
},
{
name = topright;
pos = (1220,1000);
}
);
hints = (
{
horizontal = 1;
origin = (0,9);
target = (1,11);
type = Stem;
},
{
horizontal = 1;
origin = (0,3);
target = (1,5);
type = Stem;
},
{
horizontal = 1;
origin = (0,13);
target = up;
type = BottomGhost;
},
{
origin = (0,6);
target = (1,2);
type = Stem;
},
{
origin = (0,13);
target = (0,14);
type = Stem;
},
{
origin = (1,8);
target = (0,14);
type = Stem;
}
);
layerId = "10BC12B3-5274-42E3-B5BC-F74F362F0DF4";
shapes = (
{
closed = 1;
nodes = (
(840,908,l),
(778,978,o),
(694,1026,o),
(586,1026,c),
(296,1026,o),
(60,790,o),
(60,500,c),
(60,210,o),
(296,-26,o),
(586,-26,c),
(694,-26,o),
(778,22,o),
(840,92,c),
(840,0,l),
(1140,0,l),
(1140,1500,l),
(840,1500,l)
);
},
{
closed = 1;
nodes = (
(468,262,o),
(368,368,o),
(368,500,c),
(368,632,o),
(468,738,o),
(590,738,c),
(714,738,o),
(814,632,o),
(814,500,c),
(814,368,o),
(714,262,o),
(590,262,c)
);
}
);
width = 1240;
},
{
anchors = (
{
name = bottom;
pos = (602,0);
},
{
name = center;
pos = (602,500);
},
{
name = top;
pos = (602,1900);
},
{
name = topright;
pos = (1184,1000);
}
);
hints = (
{
horizontal = 1;
origin = (0,9);
target = (1,11);
type = Stem;
},
{
horizontal = 1;
origin = (0,3);
target = (1,5);
type = Stem;
},
{
horizontal = 1;
origin = (0,13);
target = up;
type = BottomGhost;
},
{
origin = (0,6);
target = (1,2);
type = Stem;
},
{
origin = (0,13);
target = (0,14);
type = Stem;
},
{
origin = (1,8);
target = (0,14);
type = Stem;
}
);
layerId = "9AF1F7D9-E035-453E-B2A8-46DE370997D0";
shapes = (
{
closed = 1;
nodes = (
(994,768,l),
(922,924,o),
(780,1028,o),
(586,1028,c),
(296,1028,o),
(60,792,o),
(60,500,c),
(60,210,o),
(296,-26,o),
(586,-26,c),
(780,-26,o),
(922,78,o),
(994,234,c),
(994,0,l),
(1054,0,l),
(1054,1500,l),
(994,1500,l)
);
},
{
closed = 1;
nodes = (
(336,34,o),
(120,238,o),
(120,500,c),
(120,758,o),
(330,968,o),
(586,968,c),
(840,968,o),
(990,762,o),
(990,500,c),
(990,244,o),
(844,34,o),
(586,34,c)
);
}
);
width = 1204;
},
{
anchors = (
{
name = bottom;
pos = (405,0);
},
{
name = center;
pos = (476,500);
},
{
name = top;
pos = (672,1900);
},
{
name = topright;
pos = (1128,1000);
}
);
hints = (
{
horizontal = 1;
origin = (0,9);
target = (1,11);
type = Stem;
},
{
horizontal = 1;
origin = (0,3);
target = (1,5);
type = Stem;
},
{
horizontal = 1;
origin = (0,13);
target = up;
type = BottomGhost;
},
{
origin = (0,6);
target = (1,2);
type = Stem;
},
{
origin = (0,13);
target = (0,14);
type = Stem;
},
{
origin = (1,8);
target = (0,14);
type = Stem;
}
);
layerId = m003;
shapes = (
{
closed = 1;
nodes = (
(905,768,l),
(855,924,o),
(728,1028,o),
(534,1028,c),
(244,1028,o),
(-25,792,o),
(-66,500,c),
(-107,210,o),
(96,-26,o),
(386,-26,c),
(580,-26,o),
(736,78,o),
(830,234,c),
(797,0,l),
(857,0,l),
(1068,1500,l),
(1008,1500,l)
);
},
{
closed = 1;
nodes = (
(144,34,o),
(-43,238,o),
(-6,500,c),
(30,758,o),
(269,968,o),
(525,968,c),
(779,968,o),
(900,762,o),
(864,500,c),
(828,244,o),
(652,34,o),
(394,34,c)
);
}
);
width = 1204;
},
{
anchors = (
{
name = bottom;
pos = (423,0);
},
{
name = center;
pos = (494,500);
},
{
name = top;
pos = (690,1900);
},
{
name = topright;
pos = (1164,1000);
}
);
hints = (
{
horizontal = 1;
origin = (0,9);
target = (1,11);
type = Stem;
},
{
horizontal = 1;
origin = (0,3);
target = (1,5);
type = Stem;
},
{
horizontal = 1;
origin = (0,13);
target = up;
type = BottomGhost;
},
{
origin = (0,6);
target = (1,2);
type = Stem;
},
{
origin = (0,13);
target = (0,14);
type = Stem;
},
{
origin = (1,8);
target = (0,14);
type = Stem;
}
);
layerId = m004;
shapes = (
{
closed = 1;
nodes = (
(771,908,l),
(719,978,o),
(641,1026,o),
(533,1026,c),
(243,1026,o),
(-26,790,o),
(-66,500,c),
(-107,210,o),
(96,-26,o),
(386,-26,c),
(494,-26,o),
(584,22,o),
(656,92,c),
(643,0,l),
(943,0,l),
(1154,1500,l),
(854,1500,l)
);
},
{
closed = 1;
nodes = (
(308,262,o),
(223,368,o),
(242,500,c),
(260,632,o),
(375,738,o),
(497,738,c),
(621,738,o),
(706,632,o),
(688,500,c),
(669,368,o),
(554,262,o),
(430,262,c)
);
}
);
width = 1240;
},
{
anchors = (
{
name = bottom;
pos = (608,0);
},
{
name = center;
pos = (608,500);
},
{
name = top;
pos = (608,1900);
},
{
name = topright;
pos = (1196,1000);
}
);
hints = (
{
horizontal = 1;
origin = (0,9);
target = (1,11);
type = Stem;
},
{
horizontal = 1;
origin = (0,3);
target = (1,5);
type = Stem;
},
{
horizontal = 1;
origin = (0,13);
target = up;
type = BottomGhost;
},
{
origin = (0,6);
target = (1,2);
type = Stem;
},
{
origin = (0,13);
target = (0,14);
type = Stem;
},
{
origin = (1,8);
target = (0,14);
type = Stem;
}
);
layerId = "024B54ED-FF00-4B3B-B916-19AEEB47CF52";
shapes = (
{
closed = 1;
nodes = (
(943,815,l),
(874,942,o),
(751,1027,o),
(586,1027,c),
(296,1027,o),
(60,791,o),
(60,500,c),
(60,210,o),
(296,-26,o),
(586,-26,c),
(751,-26,o),
(874,59,o),
(943,187,c),
(943,0,l),
(1083,0,l),
(1083,1500,l),
(943,1500,l)
);
},
{
closed = 1;
nodes = (
(380,110,o),
(203,281,o),
(203,500,c),
(203,716,o),
(376,891,o),
(587,891,c),
(798,891,o),
(931,719,o),
(931,500,c),
(931,285,o),
(801,110,o),
(587,110,c)
);
}
);
width = 1216;
},
{
anchors = (
{
name = bottom;
pos = (411,0);
},
{
name = center;
pos = (482,500);
},
{
name = top;
pos = (678,1900);
},
{
name = topright;
pos = (1140,1000);
}
);
hints = (
{
horizontal = 1;
origin = (0,9);
target = (1,11);
type = Stem;
},
{
horizontal = 1;
origin = (0,3);
target = (1,5);
type = Stem;
},
{
horizontal = 1;
origin = (0,13);
target = up;
type = BottomGhost;
},
{
origin = (0,6);
target = (1,2);
type = Stem;
},
{
origin = (0,13);
target = (0,14);
type = Stem;
},
{
origin = (1,8);
target = (0,14);
type = Stem;
}
);
layerId = "D546763A-DEF0-4334-A7AF-26D5912082F8";
shapes = (
{
closed = 1;
nodes = (
(860,815,l),
(810,942,o),
(699,1027,o),
(534,1027,c),
(244,1027,o),
(-25,791,o),
(-66,500,c),
(-107,210,o),
(96,-26,o),
(386,-26,c),
(551,-26,o),
(685,59,o),
(772,187,c),
(746,0,l),
(886,0,l),
(1097,1500,l),
(957,1500,l)
);
},
{
closed = 1;
nodes = (
(199,110,o),
(46,281,o),
(77,500,c),
(107,716,o),
(304,891,o),
(516,891,c),
(726,891,o),
(835,719,o),
(805,500,c),
(775,285,o),
(619,110,o),
(406,110,c)
);
}
);
width = 1216;
}
);
metricLeft = o;
unicode = 100;
},
{
glyphname = eth;
kernLeft = o;
kernRight = eth;
lastChange = "2021-06-04 07:15:20 +0000";
layers = (
{
hints = (
{
horizontal = 1;
origin = (0,3);
target = (0,1);
type = Stem;
},
{
origin = (0,2);
target = (0,0);
type = Stem;
}
);
layerId = "10BC12B3-5274-42E3-B5BC-F74F362F0DF4";
shapes = (
{
closed = 1;
nodes = (
(876,1450,l),
(736,1592,l),
(298,1160,l),
(440,1018,l)
);
},
{
ref = partialdiff;
}
);
width = 1126;
},
{
layerId = "9AF1F7D9-E035-453E-B2A8-46DE370997D0";
shapes = (
{
closed = 1;
nodes = (
(866,1500,l),
(824,1542,l),
(384,1114,l),
(428,1070,l)
);
},
{
ref = partialdiff;
}
);
width = 1124;
},
{
layerId = m003;
shapes = (
{
closed = 1;
nodes = (
(880,1500,l),
(844,1542,l),
(344,1114,l),
(382,1070,l)
);
},
{
ref = partialdiff;
}
);
width = 1124;
},
{
hints = (
{
horizontal = 1;
origin = (0,3);
target = (0,1);
type = Stem;
},
{
origin = (0,2);
target = (0,0);
type = Stem;
}
);
layerId = m004;
shapes = (
{
closed = 1;
nodes = (
(883,1450,l),
(763,1592,l),
(264,1160,l),
(386,1018,l)
);
},
{
ref = partialdiff;
}
);
width = 1126;
},
{
hints = (
{
horizontal = 1;
origin = (0,3);
target = (0,1);
type = Stem;
},
{
origin = (0,2);
target = (0,0);
type = Stem;
}
);
layerId = "024B54ED-FF00-4B3B-B916-19AEEB47CF52";
shapes = (
{
closed = 1;
nodes = (
(869,1483,l),
(795,1559,l),
(355,1129,l),
(432,1053,l)
);
},
{
alignment = -1;
ref = partialdiff;
}
);
width = 1124.66667;
},
{
hints = (
{
horizontal = 1;
origin = (0,3);
target = (0,1);
type = Stem;
},
{
origin = (0,2);
target = (0,0);
type = Stem;
}
);
layerId = "D546763A-DEF0-4334-A7AF-26D5912082F8";
shapes = (
{
closed = 1;
nodes = (
(881,1483,l),
(817,1559,l),
(317,1129,l),
(383,1053,l)
);
},
{
alignment = -1;
ref = partialdiff;
}
);
width = 1124.66667;
}
);
unicode = 240;
},
{
glyphname = e;
kernLeft = o;
kernRight = o;
lastChange = "2021-06-04 07:15:20 +0000";
layers = (
{
anchors = (
{
name = bottom;
pos = (560,0);
},
{
name = ogonek;
pos = (1008,10);
},
{
name = top;
pos = (560,1000);
}
);
hints = (
{
horizontal = 1;
origin = (0,19);
target = (0,6);
type = Stem;
},
{
horizontal = 1;
origin = (0,9);
target = (1,6);
type = Stem;
},
{
horizontal = 1;
origin = (0,13);
target = (1,2);
type = Stem;
}
);
layerId = "10BC12B3-5274-42E3-B5BC-F74F362F0DF4";
shapes = (
{
closed = 1;
nodes = (
(760,-26,o),
(932,98,o),
(1013,276,c),
(707,347,l),
(670,302,o),
(618,273,o),
(560,274,cs),
(467,276,o),
(412,330,o),
(384,401,c),
(1051,401,l),
(1111,719,o),
(879,1028,o),
(560,1028,cs),
(284,1028,o),
(60,792,o),
(60,501,cs),
(60,210,o),
(284,-26,o),
(560,-26,cs)
);
},
{
closed = 1;
nodes = (
(402,707,o),
(475,768,o),
(560,768,cs),
(646,768,o),
(719,707,o),
(748,621,c),
(373,621,l)
);
}
);
width = 1120;
},
{
anchors = (
{
name = bottom;
pos = (559,0);
},
{
name = ogonek;
pos = (1006,10);
},
{
name = top;
pos = (559,1000);
}
);
hints = (
{
horizontal = 1;
origin = (0,19);
target = (0,6);
type = Stem;
},
{
horizontal = 1;
origin = (0,9);
target = (1,6);
type = Stem;
},
{
horizontal = 1;
origin = (0,13);
target = (1,2);
type = Stem;
},
{
origin = (0,16);
target = (0,9);
type = Stem;
},
{
origin = (1,5);
target = (0,10);
type = Stem;
}
);
layerId = "9AF1F7D9-E035-453E-B2A8-46DE370997D0";
shapes = (
{
closed = 1;
nodes = (
(760,-26,o),
(932,98,o),
(1012,276,c),
(952,290,l),
(872,130,o),
(730,34,o),
(560,34,cs),
(330,34,o),
(140,220,o),
(120,470,c),
(1058,470,l),
(1052,804,o),
(846,1028,o),
(560,1028,cs),
(284,1028,o),
(60,792,o),
(60,500,cs),
(60,210,o),
(284,-26,o),
(560,-26,cs)
);
},
{
closed = 1;
nodes = (
(136,772,o),
(322,968,o),
(560,968,cs),
(796,968,o),
(990,764,o),
(998,530,c),
(120,530,l)
);
}
);
width = 1118;
},
{
anchors = (
{
name = bottom;
pos = (362,0);
},
{
name = ogonek;
pos = (811,10);
},
{
name = top;
pos = (503,1000);
}
);
hints = (
{
horizontal = 1;
origin = (0,19);
target = (0,6);
type = Stem;
},
{
horizontal = 1;
origin = (0,9);
target = (1,6);
type = Stem;
},
{
horizontal = 1;
origin = (0,13);
target = (1,2);
type = Stem;
},
{
origin = (0,16);
target = (0,9);
type = Stem;
},
{
origin = (1,5);
target = (0,10);
type = Stem;
}
);
layerId = m003;
shapes = (
{
closed = 1;
nodes = (
(560,-26,o),
(749,98,o),
(854,276,c),
(796,290,l),
(694,130,o),
(538,34,o),
(368,34,cs),
(138,34,o),
(-26,220,o),
(-11,470,c),
(927,470,l),
(968,804,o),
(794,1028,o),
(508,1028,cs),
(232,1028,o),
(-25,792,o),
(-66,500,cs),
(-107,210,o),
(84,-26,o),
(360,-26,cs)
);
},
{
closed = 1;
nodes = (
(48,772,o),
(261,968,o),
(499,968,cs),
(735,968,o),
(901,764,o),
(876,530,c),
(-2,530,l)
);
}
);
width = 1118;
},
{
anchors = (
{
name = bottom;
pos = (363,0);
},
{
name = ogonek;
pos = (813,10);
},
{
name = top;
pos = (504,1000);
}
);
hints = (
{
horizontal = 1;
origin = (0,19);
target = (0,6);
type = Stem;
},
{
horizontal = 1;
origin = (0,9);
target = (1,6);
type = Stem;
},
{
horizontal = 1;
origin = (0,13);
target = (1,2);
type = Stem;
}
);
layerId = m004;
shapes = (
{
closed = 1;
nodes = (
(560,-26,o),
(749,98,o),
(855,276,c),
(559,347,l),
(516,302,o),
(460,273,o),
(402,274,cs),
(309,276,o),
(262,330,o),
(244,401,c),
(911,401,l),
(1015,719,o),
(827,1028,o),
(508,1028,cs),
(232,1028,o),
(-25,792,o),
(-66,501,cs),
(-107,210,o),
(84,-26,o),
(360,-26,cs)
);
},
{
closed = 1;
nodes = (
(305,707,o),
(386,768,o),
(471,768,cs),
(557,768,o),
(622,707,o),
(639,621,c),
(264,621,l)
);
}
);
width = 1120;
},
{
anchors = (
{
name = bottom;
pos = (559,0);
},
{
name = ogonek;
pos = (1007,10);
},
{
name = top;
pos = (559,1000);
}
);
hints = (
{
horizontal = 1;
origin = (0,19);
target = (0,6);
type = Stem;
},
{
horizontal = 1;
origin = (0,9);
target = (1,6);
type = Stem;
},
{
horizontal = 1;
origin = (0,13);
target = (1,2);
type = Stem;
}
);
layerId = "024B54ED-FF00-4B3B-B916-19AEEB47CF52";
shapes = (
{
closed = 1;
nodes = (
(760,-26,o),
(932,98,o),
(1012,276,c),
(870,309,l),
(805,187,o),
(693,114,o),
(560,114,cs),
(376,115,o),
(231,257,o),
(208,447,c),
(1056,447,l),
(1072,776,o),
(857,1028,o),
(560,1028,cs),
(284,1028,o),
(60,792,o),
(60,500,cs),
(60,210,o),
(284,-26,o),
(560,-26,cs)
);
},
{
closed = 1;
nodes = (
(225,750,o),
(373,901,o),
(560,901,cs),
(746,901,o),
(900,745,o),
(915,560,c),
(204,560,l)
);
}
);
width = 1118.66667;
},
{
anchors = (
{
name = bottom;
pos = (362,0);
},
{
name = ogonek;
pos = (812,10);
},
{
name = top;
pos = (503,1000);
}
);
hints = (
{
horizontal = 1;
origin = (0,19);
target = (0,6);
type = Stem;
},
{
horizontal = 1;
origin = (0,9);
target = (1,6);
type = Stem;
},
{
horizontal = 1;
origin = (0,13);
target = (1,2);
type = Stem;
}
);
layerId = "D546763A-DEF0-4334-A7AF-26D5912082F8";
shapes = (
{
closed = 1;
nodes = (
(560,-26,o),
(749,98,o),
(854,276,c),
(717,309,l),
(635,187,o),
(512,114,o),
(379,114,cs),
(195,115,o),
(70,257,o),
(74,447,c),
(922,447,l),
(984,776,o),
(805,1028,o),
(508,1028,cs),
(232,1028,o),
(-25,792,o),
(-66,500,cs),
(-107,210,o),
(84,-26,o),
(360,-26,cs)
);
},
{
closed = 1;
nodes = (
(134,750,o),
(303,901,o),
(490,901,cs),
(676,901,o),
(808,745,o),
(797,560,c),
(87,560,l)
);
}
);
width = 1118.66667;
}
);
unicode = 101;
},
{
glyphname = f;
kernLeft = f;
kernRight = f;
lastChange = "2021-06-04 07:15:20 +0000";
layers = (
{
anchors = (
{
name = bottom;
pos = (381,0);
},
{
name = top;
pos = (381,1900);
}
);
hints = (
{
horizontal = 1;
origin = (0,17);
target = up;
type = BottomGhost;
},
{
horizontal = 1;
origin = (0,14);
target = (0,15);
type = Stem;
},
{
horizontal = 1;
origin = (0,2);
target = (0,9);
type = Stem;
},
{
horizontal = 1;
origin = (0,6);
target = down;
type = TopGhost;
},
{
origin = (0,17);
target = (0,18);
type = Stem;
}
);
layerId = "10BC12B3-5274-42E3-B5BC-F74F362F0DF4";
shapes = (
{
closed = 1;
nodes = (
(444,1206,o),
(464,1224,o),
(488,1224,c),
(504,1224,o),
(523,1214,o),
(530,1194,c),
(746,1406,l),
(675,1487,o),
(580,1524,o),
(488,1524,c),
(298,1524,o),
(144,1370,o),
(144,1182,c),
(144,1000,l),
(50,1000,l),
(50,700,l),
(144,700,l),
(144,0,l),
(444,0,l),
(444,700,l),
(702,700,l),
(702,1000,l),
(444,1000,l),
(444,1182,l)
);
}
);
width = 762;
},
{
anchors = (
{
name = bottom;
pos = (310,0);
},
{
name = top;
pos = (310,1900);
}
);
hints = (
{
horizontal = 1;
origin = (0,17);
target = up;
type = BottomGhost;
},
{
horizontal = 1;
origin = (0,14);
target = (0,15);
type = Stem;
},
{
horizontal = 1;
origin = (0,2);
target = (0,9);
type = Stem;
},
{
origin = (0,17);
target = (0,18);
type = Stem;
}
);
layerId = "9AF1F7D9-E035-453E-B2A8-46DE370997D0";
shapes = (
{
closed = 1;
nodes = (
(268,1390,o),
(342,1464,o),
(432,1464,c),
(476,1464,o),
(518,1446,o),
(548,1416,c),
(590,1458,l),
(548,1500,o),
(492,1524,o),
(432,1524,c),
(308,1524,o),
(208,1424,o),
(208,1300,c),
(208,1000,l),
(50,1000,l),
(50,940,l),
(208,940,l),
(208,0,l),
(268,0,l),
(268,940,l),
(590,940,l),
(590,1000,l),
(268,1000,l),
(268,1300,l)
);
}
);
width = 620;
},
{
anchors = (
{
name = bottom;
pos = (113,0);
},
{
name = top;
pos = (380,1900);
}
);
hints = (
{
horizontal = 1;
origin = (0,17);
target = up;
type = BottomGhost;
},
{
horizontal = 1;
origin = (0,14);
target = (0,15);
type = Stem;
},
{
horizontal = 1;
origin = (0,2);
target = (0,9);
type = Stem;
},
{
origin = (0,17);
target = (0,18);
type = Stem;
}
);
layerId = m003;
shapes = (
{
closed = 1;
nodes = (
(267,1390,o),
(351,1464,o),
(441,1464,c),
(485,1464,o),
(524,1446,o),
(550,1416,c),
(598,1458,l),
(562,1500,o),
(509,1524,o),
(449,1524,c),
(325,1524,o),
(211,1424,o),
(194,1300,c),
(152,1000,l),
(-6,1000,l),
(-15,940,l),
(143,940,l),
(11,0,l),
(71,0,l),
(203,940,l),
(525,940,l),
(534,1000,l),
(212,1000,l),
(254,1300,l)
);
}
);
width = 620;
},
{
anchors = (
{
name = bottom;
pos = (184,0);
},
{
name = top;
pos = (451,1900);
}
);
hints = (
{
horizontal = 1;
origin = (0,17);
target = up;
type = BottomGhost;
},
{
horizontal = 1;
origin = (0,14);
target = (0,15);
type = Stem;
},
{
horizontal = 1;
origin = (0,2);
target = (0,9);
type = Stem;
},
{
horizontal = 1;
origin = (0,6);
target = down;
type = TopGhost;
},
{
origin = (0,17);
target = (0,18);
type = Stem;
}
);
layerId = m004;
shapes = (
{
closed = 1;
nodes = (
(417,1206,o),
(439,1224,o),
(463,1224,c),
(479,1224,o),
(497,1214,o),
(501,1194,c),
(747,1406,l),
(687,1487,o),
(597,1524,o),
(505,1524,c),
(315,1524,o),
(140,1370,o),
(113,1182,c),
(88,1000,l),
(-6,1000,l),
(-48,700,l),
(46,700,l),
(-53,0,l),
(247,0,l),
(346,700,l),
(604,700,l),
(646,1000,l),
(388,1000,l),
(413,1182,l)
);
}
);
width = 762;
},
{
anchors = (
{
name = bottom;
pos = (334,0);
},
{
name = top;
pos = (334,1900);
}
);
hints = (
{
horizontal = 1;
origin = (0,17);
target = up;
type = BottomGhost;
},
{
horizontal = 1;
origin = (0,14);
target = (0,15);
type = Stem;
},
{
horizontal = 1;
origin = (0,2);
target = (0,9);
type = Stem;
},
{
horizontal = 1;
origin = (0,6);
target = down;
type = TopGhost;
},
{
origin = (0,17);
target = (0,18);
type = Stem;
}
);
layerId = "024B54ED-FF00-4B3B-B916-19AEEB47CF52";
shapes = (
{
closed = 1;
nodes = (
(327,1329,o),
(383,1384,o),
(451,1384,c),
(485,1384,o),
(520,1369,o),
(542,1342,c),
(642,1441,l),
(590,1496,o),
(521,1524,o),
(451,1524,c),
(305,1524,o),
(187,1406,o),
(187,1261,c),
(187,1000,l),
(50,1000,l),
(50,860,l),
(187,860,l),
(187,0,l),
(327,0,l),
(327,860,l),
(627,860,l),
(627,1000,l),
(327,1000,l),
(327,1261,l)
);
}
);
width = 667.33333;
},
{
anchors = (
{
name = bottom;
pos = (137,0);
},
{
name = top;
pos = (404,1900);
}
);
hints = (
{
horizontal = 1;
origin = (0,17);
target = up;
type = BottomGhost;
},
{
horizontal = 1;
origin = (0,14);
target = (0,15);
type = Stem;
},
{
horizontal = 1;
origin = (0,2);
target = (0,9);
type = Stem;
},
{
horizontal = 1;
origin = (0,6);
target = down;
type = TopGhost;
},
{
origin = (0,17);
target = (0,18);
type = Stem;
}
);
layerId = "D546763A-DEF0-4334-A7AF-26D5912082F8";
shapes = (
{
closed = 1;
nodes = (
(317,1329,o),
(380,1384,o),
(448,1384,c),
(483,1384,o),
(515,1369,o),
(534,1342,c),
(648,1441,l),
(604,1496,o),
(538,1524,o),
(468,1524,c),
(322,1524,o),
(187,1406,o),
(167,1261,c),
(131,1000,l),
(-6,1000,l),
(-26,860,l),
(111,860,l),
(-10,0,l),
(130,0,l),
(251,860,l),
(551,860,l),
(571,1000,l),
(271,1000,l),
(307,1261,l)
);
}
);
width = 667.33333;
}
);
unicode = 102;
},
{
glyphname = g;
kernLeft = o;
kernRight = g;
lastChange = "2021-06-04 07:15:20 +0000";
layers = (
{
anchors = (
{
name = bottom;
pos = (627,-500);
},
{
name = top;
pos = (627,1000);
}
);
hints = (
{
horizontal = 1;
origin = (0,23);
target = (0,16);
type = Stem;
},
{
horizontal = 1;
origin = (0,9);
target = (1,11);
type = Stem;
},
{
horizontal = 1;
origin = (0,28);
target = down;
type = TopGhost;
},
{
horizontal = 1;
origin = (0,3);
target = (1,5);
type = Stem;
},
{
origin = (0,6);
target = (1,2);
type = Stem;
},
{
origin = (0,13);
target = (0,26);
type = Stem;
},
{
origin = (1,8);
target = (0,26);
type = Stem;
}
);
layerId = "10BC12B3-5274-42E3-B5BC-F74F362F0DF4";
shapes = (
{
closed = 1;
nodes = (
(834,912,l),
(774,980,o),
(692,1026,o),
(586,1026,cs),
(296,1026,o),
(60,790,o),
(60,500,cs),
(60,210,o),
(296,-26,o),
(586,-26,cs),
(692,-26,o),
(774,20,o),
(834,88,c),
(834,-10,ls),
(834,-140,o),
(704,-198,o),
(566,-198,cs),
(472,-198,o),
(386,-146,o),
(344,-56,c),
(70,-180,l),
(158,-370,o),
(354,-500,o),
(566,-500,cs),
(870,-500,o),
(1134,-314,o),
(1134,-10,cs),
(1134,1000,l),
(834,1000,l)
);
},
{
closed = 1;
nodes = (
(468,262,o),
(368,368,o),
(368,500,cs),
(368,632,o),
(468,738,o),
(590,738,cs),
(714,738,o),
(814,632,o),
(814,500,cs),
(814,368,o),
(714,262,o),
(590,262,cs)
);
}
);
width = 1254;
},
{
anchors = (
{
name = bottom;
pos = (568,-500);
},
{
name = top;
pos = (568,1000);
}
);
hints = (
{
horizontal = 1;
origin = (0,23);
target = (0,16);
type = Stem;
},
{
horizontal = 1;
origin = (0,9);
target = (1,11);
type = Stem;
},
{
horizontal = 1;
origin = (0,28);
target = down;
type = TopGhost;
},
{
horizontal = 1;
origin = (0,3);
target = (1,5);
type = Stem;
},
{
origin = (0,6);
target = (1,2);
type = Stem;
},
{
origin = (0,13);
target = (0,26);
type = Stem;
},
{
origin = (1,8);
target = (0,26);
type = Stem;
}
);
layerId = "9AF1F7D9-E035-453E-B2A8-46DE370997D0";
shapes = (
{
closed = 1;
nodes = (
(956,770,l),
(882,924,o),
(742,1028,o),
(560,1028,c),
(284,1028,o),
(60,792,o),
(60,500,c),
(60,210,o),
(284,-26,o),
(560,-26,c),
(742,-26,o),
(882,78,o),
(956,232,c),
(956,-50,l),
(956,-250,o),
(754,-440,o),
(548,-440,c),
(370,-440,o),
(180,-290,o),
(146,-110,c),
(90,-136,l),
(136,-330,o),
(340,-500,o),
(548,-500,c),
(784,-500,o),
(1016,-282,o),
(1016,-50,c),
(1016,1000,l),
(956,1000,l)
);
},
{
closed = 1;
nodes = (
(320,34,o),
(120,240,o),
(120,500,c),
(120,758,o),
(314,968,o),
(560,968,c),
(804,968,o),
(954,754,o),
(954,500,c),
(954,252,o),
(808,34,o),
(560,34,c)
);
}
);
width = 1136;
},
{
anchors = (
{
name = bottom;
pos = (301,-500);
},
{
name = top;
pos = (512,1000);
}
);
hints = (
{
horizontal = 1;
origin = (0,23);
target = (0,16);
type = Stem;
},
{
horizontal = 1;
origin = (0,9);
target = (1,11);
type = Stem;
},
{
horizontal = 1;
origin = (0,28);
target = down;
type = TopGhost;
},
{
horizontal = 1;
origin = (0,3);
target = (1,5);
type = Stem;
},
{
origin = (0,6);
target = (1,2);
type = Stem;
},
{
origin = (0,13);
target = (0,26);
type = Stem;
},
{
origin = (1,8);
target = (0,26);
type = Stem;
}
);
layerId = m003;
shapes = (
{
closed = 1;
nodes = (
(867,770,l),
(815,924,o),
(690,1028,o),
(508,1028,c),
(232,1028,o),
(-25,792,o),
(-66,500,c),
(-107,210,o),
(84,-26,o),
(360,-26,c),
(542,-26,o),
(696,78,o),
(792,232,c),
(752,-50,l),
(724,-250,o),
(495,-440,o),
(289,-440,c),
(111,-440,o),
(-58,-290,o),
(-66,-110,c),
(-126,-136,l),
(-107,-330,o),
(73,-500,o),
(281,-500,c),
(517,-500,o),
(780,-282,o),
(812,-50,c),
(960,1000,l),
(900,1000,l)
);
},
{
closed = 1;
nodes = (
(128,34,o),
(-43,240,o),
(-6,500,c),
(30,758,o),
(253,968,o),
(499,968,c),
(743,968,o),
(863,754,o),
(828,500,c),
(793,252,o),
(616,34,o),
(368,34,c)
);
}
);
width = 1136;
},
{
anchors = (
{
name = bottom;
pos = (360,-500);
},
{
name = top;
pos = (571,1000);
}
);
hints = (
{
horizontal = 1;
origin = (0,23);
target = (0,16);
type = Stem;
},
{
horizontal = 1;
origin = (0,9);
target = (1,11);
type = Stem;
},
{
horizontal = 1;
origin = (0,28);
target = down;
type = TopGhost;
},
{
horizontal = 1;
origin = (0,3);
target = (1,5);
type = Stem;
},
{
origin = (0,6);
target = (1,2);
type = Stem;
},
{
origin = (0,13);
target = (0,26);
type = Stem;
},
{
origin = (1,8);
target = (0,26);
type = Stem;
}
);
layerId = m004;
shapes = (
{
closed = 1;
nodes = (
(765,912,l),
(715,980,o),
(639,1026,o),
(533,1026,cs),
(243,1026,o),
(-26,790,o),
(-66,500,cs),
(-107,210,o),
(96,-26,o),
(386,-26,cs),
(492,-26,o),
(580,20,o),
(650,88,c),
(636,-10,ls),
(618,-140,o),
(479,-198,o),
(341,-198,cs),
(247,-198,o),
(169,-146,o),
(139,-56,c),
(-152,-180,l),
(-91,-370,o),
(87,-500,o),
(299,-500,cs),
(603,-500,o),
(893,-314,o),
(936,-10,cs),
(1078,1000,l),
(778,1000,l)
);
},
{
closed = 1;
nodes = (
(308,262,o),
(223,368,o),
(242,500,cs),
(260,632,o),
(375,738,o),
(497,738,cs),
(621,738,o),
(706,632,o),
(688,500,cs),
(669,368,o),
(554,262,o),
(430,262,cs)
);
}
);
width = 1254;
},
{
anchors = (
{
name = bottom;
pos = (588,-500);
},
{
name = top;
pos = (588,1000);
}
);
hints = (
{
horizontal = 1;
origin = (0,23);
target = (0,16);
type = Stem;
},
{
horizontal = 1;
origin = (0,9);
target = (1,11);
type = Stem;
},
{
horizontal = 1;
origin = (0,28);
target = down;
type = TopGhost;
},
{
horizontal = 1;
origin = (0,3);
target = (1,5);
type = Stem;
},
{
origin = (0,6);
target = (1,2);
type = Stem;
},
{
origin = (0,13);
target = (0,26);
type = Stem;
},
{
origin = (1,8);
target = (0,26);
type = Stem;
}
);
layerId = "024B54ED-FF00-4B3B-B916-19AEEB47CF52";
shapes = (
{
closed = 1;
nodes = (
(915,817,l),
(846,943,o),
(725,1027,o),
(569,1027,cs),
(288,1027,o),
(60,791,o),
(60,500,cs),
(60,210,o),
(288,-26,o),
(569,-26,cs),
(725,-26,o),
(846,59,o),
(915,184,c),
(915,-37,ls),
(915,-213,o),
(737,-359,o),
(554,-359,cs),
(404,-359,o),
(249,-242,o),
(212,-92,c),
(83,-151,l),
(143,-343,o),
(345,-500,o),
(554,-500,cs),
(813,-500,o),
(1055,-293,o),
(1055,-37,cs),
(1055,1000,l),
(915,1000,l)
);
},
{
closed = 1;
nodes = (
(369,110,o),
(203,283,o),
(203,500,cs),
(203,716,o),
(365,891,o),
(570,891,cs),
(774,891,o),
(907,713,o),
(907,500,cs),
(907,291,o),
(777,110,o),
(570,110,cs)
);
}
);
width = 1175.33333;
},
{
anchors = (
{
name = bottom;
pos = (321,-500);
},
{
name = top;
pos = (532,1000);
}
);
hints = (
{
horizontal = 1;
origin = (0,23);
target = (0,16);
type = Stem;
},
{
horizontal = 1;
origin = (0,9);
target = (1,11);
type = Stem;
},
{
horizontal = 1;
origin = (0,28);
target = down;
type = TopGhost;
},
{
horizontal = 1;
origin = (0,3);
target = (1,5);
type = Stem;
},
{
origin = (0,6);
target = (1,2);
type = Stem;
},
{
origin = (0,13);
target = (0,26);
type = Stem;
},
{
origin = (1,8);
target = (0,26);
type = Stem;
}
);
layerId = "D546763A-DEF0-4334-A7AF-26D5912082F8";
shapes = (
{
closed = 1;
nodes = (
(833,817,l),
(782,943,o),
(673,1027,o),
(516,1027,cs),
(236,1027,o),
(-25,791,o),
(-66,500,cs),
(-107,210,o),
(88,-26,o),
(369,-26,cs),
(525,-26,o),
(657,59,o),
(745,184,c),
(713,-37,ls),
(689,-213,o),
(490,-359,o),
(306,-359,cs),
(156,-359,o),
(18,-242,o),
(2,-92,c),
(-135,-151,l),
(-102,-343,o),
(78,-500,o),
(287,-500,cs),
(546,-500,o),
(818,-293,o),
(853,-37,cs),
(999,1000,l),
(859,1000,l)
);
},
{
closed = 1;
nodes = (
(188,110,o),
(46,283,o),
(77,500,cs),
(107,716,o),
(294,891,o),
(498,891,cs),
(702,891,o),
(811,713,o),
(781,500,cs),
(752,291,o),
(595,110,o),
(389,110,cs)
);
}
);
width = 1175.33333;
}
);
unicode = 103;
},
